<?xml version="1.0" standalone="no"?>
<!DOCTYPE svg PUBLIC "-//W3C//DTD SVG 1.1//EN" "http://www.w3.org/Graphics/SVG/1.1/DTD/svg11.dtd" >
<svg xmlns="http://www.w3.org/2000/svg" xmlns:xlink="http://www.w3.org/1999/xlink" version="1.1">
<metadata>
Created by FontForge 20170731 at Fri Mar 20 19:56:30 2020
 By Aleksey,,,
Copyright (c) 2016 Monotype Imaging Inc. All rights reserved.
</metadata>
<defs>
<font id="HelveticaNeueLTGEOCaps-55Rmn" horiz-adv-x="556" >
  <font-face 
    font-family="Helvetica Neue LT GEO 55 Roman"
    font-weight="400"
    font-variant="small-caps"
    font-stretch="normal"
    units-per-em="1000"
    panose-1="2 11 6 4 2 2 2 2 2 4"
    ascent="800"
    descent="-200"
    x-height="517"
    cap-height="714"
    bbox="-166 -214 1076 973"
    underline-thickness="50"
    underline-position="-275"
    unicode-range="U+000D-FEFF"
  />
<missing-glyph horiz-adv-x="512" 
d="M0 0v718h512v-718h-512zM462 50v617h-412v-617h412zM166 574q34 35 93 35q35 0 63.5 -16.5t44.5 -46.5t16 -68t-14.5 -63.5t-49.5 -57.5q-34 -31 -41 -46q-7 -17 -7 -77h-46l-2 19q0 57 17 86q16 27 46 56q21 19 33.5 37.5t12.5 41.5q0 22 -10.5 42t-28 31.5t-37.5 11.5
q-34 0 -55 -24t-27 -71l-50 8q7 67 42 102zM222 184h56v-67h-56v67z" />
    <glyph glyph-name=".notdef" horiz-adv-x="512" 
d="M0 0v718h512v-718h-512zM462 50v617h-412v-617h412zM166 574q34 35 93 35q35 0 63.5 -16.5t44.5 -46.5t16 -68t-14.5 -63.5t-49.5 -57.5q-34 -31 -41 -46q-7 -17 -7 -77h-46l-2 19q0 57 17 86q16 27 46 56q21 19 33.5 37.5t12.5 41.5q0 22 -10.5 42t-28 31.5t-37.5 11.5
q-34 0 -55 -24t-27 -71l-50 8q7 67 42 102zM222 184h56v-67h-56v67z" />
    <glyph glyph-name=".null" horiz-adv-x="0" 
 />
    <glyph glyph-name="uni000D" horiz-adv-x="333" 
 />
    <glyph glyph-name="NULL.1" horiz-adv-x="0" 
 />
    <glyph glyph-name="NULL.1" horiz-adv-x="0" 
 />
    <glyph glyph-name="uni000D.1" unicode="&#xd;" horiz-adv-x="278" 
 />
    <glyph glyph-name="space" unicode=" " horiz-adv-x="278" 
 />
    <glyph glyph-name="exclam" unicode="!" horiz-adv-x="259" 
d="M177 494l-25 -311h-45l-25 311v220h95v-220zM185 0h-111v111h111v-111z" />
    <glyph glyph-name="quotedbl" unicode="&#x22;" horiz-adv-x="426" 
d="M249 714h68v-258h-68v258zM109 714h68v-258h-68v258z" />
    <glyph glyph-name="numbersign" unicode="#" 
d="M34 274h107l21 150h-102v68h111l30 205h68l-29 -205h124l30 205h68l-29 -205h89v-68h-98l-21 -150h91v-68h-101l-29 -206h-69l29 206h-124l-29 -206h-69l29 206h-97v68zM210 274h124l21 150h-124z" />
    <glyph glyph-name="dollar" unicode="$" 
d="M25 218h85q3 -64 39.5 -104t101.5 -51v265q-79 19 -123 43t-63 59.5t-19 90.5t25 101t71.5 74.5t108.5 34.5v66h55v-67q78 -9 126.5 -58t70.5 -140h-85q-10 50 -39 79t-73 37v-246l63 -17q38 -10 75 -36q39 -26 60 -64t21 -85q0 -60 -26.5 -107t-75.5 -75.5t-116 -34.5
v-82h-56v82q-101 11 -159 71.5t-67 163.5zM306 314v-251q64 4 96.5 37t32.5 91q0 31 -11.5 52.5t-39 38.5t-78.5 32zM147 479q11 -21 36 -35.5t68 -26.5v234q-53 -5 -84 -37t-31 -84q0 -31 11 -51z" />
    <glyph glyph-name="percent" unicode="%" horiz-adv-x="1000" 
d="M92 506q0 97 41.5 150t120.5 53q160 0 160 -200q0 -61 -19 -106.5t-55 -70t-86 -24.5q-79 0 -120.5 51t-41.5 147zM628 336q42 53 120 53q80 0 120 -50t40 -150q0 -59 -18.5 -104.5t-55 -71t-86.5 -25.5q-78 0 -120 51t-42 147q0 97 42 150zM726 722h85l-537 -744h-86z
M683 78q21 -35 62 -35q88 0 88 146q0 74 -21 109.5t-64 35.5q-42 0 -64.5 -37t-22.5 -109q0 -75 22 -110zM251 363q43 0 65.5 36.5t22.5 109.5q0 75 -21.5 110t-64.5 35q-41 0 -63.5 -37.5t-22.5 -109.5q0 -144 84 -144z" />
    <glyph glyph-name="ampersand" unicode="&#x26;" horiz-adv-x="630" 
d="M72 302q39 51 128 97l-33 45q-24 32 -35 61t-11 62q0 41 20.5 74.5t57 53t83.5 19.5q49 0 88.5 -18t62 -51.5t22.5 -76.5q0 -54 -34 -100.5t-100 -84.5l129 -157q21 60 23 111h81q-5 -45 -9.5 -69t-12 -45.5t-26.5 -61.5l139 -161h-111l-76 88q-31 -46 -86 -73t-117 -27
q-109 0 -165 55q-57 57 -57 141q0 67 39 118zM142 123q19 -28 50.5 -44t66.5 -16q47 0 86 22t66 63l-164 197q-46 -25 -73 -49t-39 -50.5t-12 -60.5t19 -62zM212 532q5 -16 19.5 -37.5t43.5 -55.5q54 34 74.5 62t20.5 62q0 21 -10.5 38t-29 27.5t-42.5 10.5q-21 0 -40 -9.5
t-30.5 -26.5t-11.5 -40q0 -16 6 -31z" />
    <glyph glyph-name="quotesingle" unicode="'" horiz-adv-x="278" 
d="M173 456h-68v258h68v-258z" />
    <glyph glyph-name="parenleft" unicode="(" horiz-adv-x="259" 
d="M88 509q41 121 116 222h65q-68 -107 -100 -218.5t-32 -242.5q0 -134 31.5 -246t100.5 -222h-65q-85 133 -121 242t-36 226q0 118 41 239z" />
    <glyph glyph-name="parenright" unicode=")" horiz-adv-x="259" 
d="M90 21q32 111 32 242q0 132 -32 246t-100 222h65q81 -124 119 -236t38 -232t-41 -239t-116 -222h-65q68 107 100 219z" />
    <glyph glyph-name="asterisk" unicode="*" horiz-adv-x="352" 
d="M201 714v-113l107 40l20 -48l-109 -38l66 -91l-41 -31l-69 96l-65 -96l-45 31l65 91l-106 38l18 48l106 -40v113h53z" />
    <glyph glyph-name="plus" unicode="+" horiz-adv-x="600" 
d="M266 287v219h68v-219h218v-68h-218v-219h-68v219h-218v68h218z" />
    <glyph glyph-name="comma" unicode="," horiz-adv-x="278" 
d="M83 111h111v-107q0 -56 -28 -95.5t-82 -55.5v50q26 9 42 34t16 58v5h-59v111z" />
    <glyph glyph-name="hyphen" unicode="-" horiz-adv-x="389" 
d="M339 238h-289v80h289v-80z" />
    <glyph glyph-name="period" unicode="." horiz-adv-x="278" 
d="M194 0h-111v111h111v-111z" />
    <glyph glyph-name="slash" unicode="/" horiz-adv-x="333" 
d="M55 -17h-73l296 748h73z" />
    <glyph glyph-name="zero" unicode="0" 
d="M42 348q0 203 59 282q30 40 74 59.5t103 19.5q117 0 177 -78q59 -77 59 -283q0 -103 -14.5 -173t-44.5 -109q-60 -78 -177 -78q-119 0 -177 79q-59 79 -59 281zM169 122q38 -59 109 -59q79 0 113 68q17 34 25 89.5t8 134.5q0 72 -7.5 129t-34.5 96q-37 54 -105 54
t-107 -58q-38 -58 -38 -227q0 -165 37 -227z" />
    <glyph glyph-name="one" unicode="1" 
d="M87 508v68h3q90 0 139 32.5t62 100.5h65v-709h-85v508h-184z" />
    <glyph glyph-name="two" unicode="2" 
d="M69 155q38 65 144 129q60 36 100 66t57 52q34 43 34 103q0 37 -18 66.5t-49.5 46t-69.5 16.5q-43 0 -74 -22t-47.5 -60t-16.5 -87v-7h-85l-1 18q0 69 28.5 122t80 82t120.5 29q65 0 115.5 -25t78.5 -71t28 -108q0 -73 -41 -132q-40 -59 -174 -136q-54 -31 -86.5 -57.5
t-48.5 -51t-21 -53.5h364v-75h-463q7 87 45 155z" />
    <glyph glyph-name="three" unicode="3" 
d="M29 219h86q3 -75 43 -115.5t108 -40.5q43 0 78 17.5t55 49t20 70.5q0 42 -19 72.5t-53.5 47t-81.5 16.5q-23 0 -48 -3v72q8 -1 32 -1q41 0 73.5 15t50 41t17.5 60q0 35 -16 60.5t-44.5 39.5t-65.5 14q-62 0 -98 -40.5t-37 -113.5h-85q5 110 62.5 169.5t157.5 59.5
q67 0 115.5 -23t74 -65.5t25.5 -100.5q0 -44 -25.5 -81.5t-72.5 -60.5v-2q62 -14 95 -59t33 -113q0 -65 -31 -114t-86 -75.5t-126 -26.5t-124.5 26.5t-83 78t-29.5 123.5v3z" />
    <glyph glyph-name="four" unicode="4" 
d="M351 709h68v-468h96v-75h-96v-166h-80v166h-311v82zM101 241h238v347h-2z" />
    <glyph glyph-name="five" unicode="5" 
d="M35 190v1h85q2 -37 22 -66t53 -45.5t74 -16.5q43 0 77.5 20.5t53.5 58.5t19 89q0 47 -21 83.5t-58 57t-81 20.5q-38 0 -70.5 -16.5t-61.5 -50.5l-73 4l66 368h350v-75h-286l-38 -204l2 -2q23 25 56.5 38t75.5 13q68 0 120 -29.5t80.5 -84t28.5 -128.5q0 -68 -31 -122
t-87.5 -84.5t-129.5 -30.5q-62 0 -113 24.5t-81 70.5t-32 107z" />
    <glyph glyph-name="six" unicode="6" 
d="M38 330q0 184 66.5 281.5t194.5 97.5q88 0 140 -47.5t60 -133.5h-85q-7 51 -38.5 78.5t-80.5 27.5q-82 0 -125.5 -68t-46.5 -201l2 -2q29 47 73 70t104 23q63 0 112.5 -29t77 -81.5t27.5 -118.5q0 -101 -62 -171q-63 -68 -175 -68q-121 0 -182.5 85.5t-61.5 256.5z
M157 139q18 -36 51.5 -56t77.5 -20q41 0 74 20.5t51 56t18 80.5q0 49 -17.5 85t-50 56t-76.5 20q-43 0 -76.5 -20.5t-51.5 -56.5t-18 -83q0 -46 18 -82z" />
    <glyph glyph-name="seven" unicode="7" 
d="M50 697h459v-73q-108 -108 -185 -282q-75 -172 -87 -342h-95q12 166 83.5 324.5t196.5 292.5h-372v80z" />
    <glyph glyph-name="eight" unicode="8" 
d="M73 315q32 46 91 66q-46 19 -72.5 59t-26.5 88q0 53 27.5 94t75 64t105.5 23q66 0 114.5 -22.5t74.5 -63.5t26 -95q0 -46 -25.5 -85t-72.5 -62q62 -19 94 -64t32 -113q0 -64 -30 -113t-83.5 -76t-121.5 -27q-72 0 -126.5 26t-84.5 74.5t-30 115.5q0 64 33 111zM149 128
q19 -31 53.5 -48t78.5 -17q41 0 74 17.5t52 49t19 71.5q0 37 -20 68t-54 49t-73 18q-41 0 -75 -17t-54 -48t-20 -71q0 -41 19 -72zM155 525q0 -33 15.5 -59t44 -40.5t66.5 -14.5q35 0 61.5 14t41 40t14.5 60q0 52 -32 80.5t-88 28.5q-36 0 -64 -14t-43.5 -38.5t-15.5 -56.5z
" />
    <glyph glyph-name="nine" unicode="9" 
d="M64 598q29 52 82 81.5t121 29.5q123 0 183 -84t60 -255q0 -195 -61 -288.5t-185 -93.5q-93 0 -149 47t-66 136h85q7 -51 42 -79.5t88 -28.5q78 0 116.5 67t43.5 207l-2 2q-25 -46 -68.5 -72t-96.5 -26q-69 0 -119 29t-77 82.5t-27 125.5q0 67 30 120zM143 392
q19 -35 51 -55.5t70 -20.5q42 0 75 21t51.5 56.5t18.5 78.5q0 46 -17 82.5t-50.5 58t-79.5 21.5q-42 0 -73.5 -20.5t-48 -58.5t-16.5 -89q0 -39 19 -74z" />
    <glyph glyph-name="colon" unicode=":" horiz-adv-x="278" 
d="M194 517v-111h-111v111h111zM83 0v111h111v-111h-111z" />
    <glyph glyph-name="semicolon" unicode=";" horiz-adv-x="278" 
d="M83 111h111v-112q0 -50 -28 -90t-82 -56v50q26 9 42 34t16 58v5h-59v111zM83 406v111h111v-111h-111z" />
    <glyph glyph-name="less" unicode="&#x3c;" horiz-adv-x="600" 
d="M46 222v62l508 230v-68l-425 -193l425 -193v-68z" />
    <glyph glyph-name="equal" unicode="=" horiz-adv-x="600" 
d="M552 388v-68h-504v68h504zM48 118v68h504v-68h-504z" />
    <glyph glyph-name="greater" unicode="&#x3e;" horiz-adv-x="600" 
d="M46 446v68l508 -230v-62l-508 -230v68l425 193z" />
    <glyph glyph-name="question" unicode="?" 
d="M54 502q0 98 61 163q60 66 163 66q63 0 110.5 -24t74 -69t26.5 -107q0 -50 -21 -90t-72 -87q-39 -35 -51 -55q-17 -25 -23 -44.5t-6 -50.5v-30h-85v43q0 33 8.5 59.5t27.5 52.5t52 57q52 47 66 79q14 29 14 62q0 59 -32 94t-89 35q-66 0 -102 -43.5t-36 -121.5h-86v11z
M217 111h111v-111h-111v111z" />
    <glyph glyph-name="at" unicode="@" horiz-adv-x="800" 
d="M151 622q112 109 262 109q143 0 241 -88q99 -90 99 -220q0 -79 -37.5 -145.5t-92.5 -105.5t-104 -39q-28 0 -45 17t-19 48h-3q-29 -33 -61 -50t-63 -17q-40 0 -73 20.5t-51.5 57t-18.5 81.5q0 111 68 197q69 86 167 86q39 0 67.5 -21t44.5 -61l23 63h63l-83 -282
q-7 -22 -9.5 -32.5t-2.5 -20.5q0 -31 24 -31q46 0 92 75q46 77 46 155q0 112 -80 185q-81 73 -191 73q-125 0 -215 -96q-89 -97 -89 -225q0 -132 91 -224q92 -93 218 -93q46 0 92.5 15t87 42.5t68.5 63.5h63q-31 -53 -80 -93t-109 -61.5t-124 -21.5q-106 0 -192 51.5
t-134.5 138t-48.5 187.5q0 151 109 262zM271 247q10 -22 29.5 -35t45.5 -13q60 0 108 72q47 74 47 141q0 23 -11.5 44.5t-30.5 35t-40 13.5q-63 0 -111 -68q-48 -69 -48 -141q0 -27 11 -49z" />
    <glyph glyph-name="A" unicode="A" horiz-adv-x="648" 
d="M272 714h105l279 -714h-105l-78 215h-302l-80 -215h-98zM443 295l-119 333h-2l-121 -333h242z" />
    <glyph glyph-name="B" unicode="B" horiz-adv-x="685" 
d="M78 714h305q133 0 179 -54q48 -52 48 -121q0 -57 -27.5 -98.5t-78.5 -61.5v-2q65 -14 100.5 -60t35.5 -112q0 -57 -28 -104t-76.5 -74t-108.5 -27h-349v714zM173 327v-247h242q38 0 67.5 15.5t46 44.5t16.5 68q0 59 -41 89t-118 30h-213zM173 407h195q73 0 110 27.5
t37 86.5q0 39 -13.5 63.5t-45.5 37t-87 12.5h-196v-227z" />
    <glyph glyph-name="C" unicode="C" horiz-adv-x="722" 
d="M43 355q0 167 91 271q92 105 247 105q78 0 141 -28t103 -80.5t50 -123.5h-95q-16 73 -68.5 112.5t-131.5 39.5q-74 0 -129 -36.5t-84 -102t-29 -150.5q0 -91 28.5 -158.5t83 -104t131.5 -36.5q58 0 103 25.5t72 72t31 108.5h95q-10 -91 -49.5 -155.5t-105.5 -97.5
t-154 -33q-153 0 -242 101q-88 101 -88 271z" />
    <glyph glyph-name="D" unicode="D" horiz-adv-x="704" 
d="M78 714h251q108 0 183 -38.5t114.5 -114.5t39.5 -187q0 -187 -86 -280.5t-251 -93.5h-251v714zM173 80h161q72 0 125.5 31.5t82.5 94.5t29 155q0 140 -58 206.5t-175 66.5h-165v-554z" />
    <glyph glyph-name="E" unicode="E" horiz-adv-x="611" 
d="M78 714h493v-80h-398v-227h371v-80h-371v-247h401v-80h-496v714z" />
    <glyph glyph-name="F" unicode="F" horiz-adv-x="574" 
d="M547 714v-80h-374v-227h328v-80h-328v-327h-95v714h469z" />
    <glyph glyph-name="G" unicode="G" horiz-adv-x="759" 
d="M43 343q0 170 91 279q92 109 249 109q84 0 149.5 -27.5t106 -80.5t51.5 -129h-95q-14 76 -69 116.5t-143 40.5q-76 0 -131.5 -38.5t-84.5 -107t-29 -157.5q0 -122 68 -204q66 -81 177 -81q67 0 119 28t81 78.5t29 115.5v11h-228v80h313v-376h-60l-25 89q-39 -50 -99 -78
t-130 -28q-145 0 -243 104q-97 104 -97 256z" />
    <glyph glyph-name="H" unicode="H" horiz-adv-x="722" 
d="M78 0v714h95v-307h376v307h95v-714h-95v327h-376v-327h-95z" />
    <glyph glyph-name="I" unicode="I" horiz-adv-x="259" 
d="M177 0h-95v714h95v-714z" />
    <glyph glyph-name="J" unicode="J" horiz-adv-x="519" 
d="M117 235v-24q0 -58 13 -90.5t38 -45t64 -12.5q58 0 86 31t28 94v526h95v-539q0 -57 -23.5 -100.5t-71 -67.5t-116.5 -24q-96 0 -152 51q-56 50 -56 176v25h95z" />
    <glyph glyph-name="K" unicode="K" horiz-adv-x="667" 
d="M173 714v-356l362 356h123l-301 -288l313 -426h-120l-258 361l-119 -111v-250h-95v714h95z" />
    <glyph glyph-name="L" unicode="L" 
d="M173 80h378v-80h-473v714h95v-634z" />
    <glyph glyph-name="M" unicode="M" horiz-adv-x="871" 
d="M210 714l225 -600l226 600h130v-714h-90v594h-2l-223 -594h-81l-223 594h-2v-594h-90v714h130z" />
    <glyph glyph-name="N" unicode="N" horiz-adv-x="722" 
d="M77 714h101l376 -579h2v579h90v-714h-104l-373 573h-2v-573h-90v714z" />
    <glyph glyph-name="O" unicode="O" horiz-adv-x="760" 
d="M131 625q93 106 249 106q105 0 182.5 -50t118.5 -135t41 -189q0 -108 -42.5 -193t-120 -133t-179.5 -48q-104 0 -181.5 49.5t-119 134.5t-41.5 190q0 162 93 268zM164 204q30 -67 86 -104t130 -37q76 0 132 38t85.5 104.5t29.5 151.5q0 127 -65 210q-66 84 -183 84
q-115 0 -181 -84q-65 -85 -65 -210q0 -86 31 -153z" />
    <glyph glyph-name="P" unicode="P" horiz-adv-x="648" 
d="M78 714h318q65 0 113 -24t74.5 -71t26.5 -116t-26.5 -116.5t-73 -71t-108.5 -23.5h-229v-292h-95v714zM173 372h196q69 0 107.5 33t38.5 98q0 131 -152 131h-190v-262z" />
    <glyph glyph-name="Q" unicode="Q" horiz-adv-x="760" 
d="M131 625q93 106 249 106q106 0 183.5 -49.5t118 -134.5t40.5 -190q0 -82 -27 -156.5t-81 -127.5l94 -75l-48 -60l-109 88q-71 -43 -171 -43q-104 0 -181.5 49.5t-119 134.5t-41.5 190q0 162 93 268zM164 204q30 -67 86 -104t130 -37q51 0 99 20l-79 63l50 58l95 -76
q40 40 61 99t21 130q0 127 -65 210q-66 84 -183 84q-115 0 -181 -84q-65 -85 -65 -210q0 -86 31 -153z" />
    <glyph glyph-name="R" unicode="R" horiz-adv-x="685" 
d="M78 714h340q62 0 110 -22t75.5 -64.5t27.5 -100.5q0 -71 -31 -117t-93 -64v-2q37 -7 59.5 -26.5t35 -57.5t14.5 -103q2 -62 11.5 -97t28.5 -60h-106q-8 11 -10.5 20.5t-6.5 34.5l-4 78q-2 56 -24 113q-23 58 -97 59h-235v-305h-95v714zM173 385h203q80 0 120 31t40 96
q0 58 -32.5 90t-90.5 32h-240v-249z" />
    <glyph glyph-name="S" unicode="S" horiz-adv-x="648" 
d="M127 235q0 -54 26.5 -93t73.5 -59t108 -20q87 0 134 33.5t47 96.5q0 35 -18.5 59t-62 42.5t-120.5 32.5q-153 30 -204 74q-52 46 -52 121q0 64 33.5 111.5t92.5 72.5t133 25q79 0 138 -26.5t92 -77.5t33 -122h-90q-16 146 -177 146q-77 0 -118.5 -32t-41.5 -90
q0 -39 36 -69q35 -26 193 -58q117 -24 172.5 -73t55.5 -133q0 -100 -82 -156q-81 -57 -197 -57q-86 0 -152.5 29t-104.5 86t-38 137h90z" />
    <glyph glyph-name="T" unicode="T" horiz-adv-x="574" 
d="M2 634v80h571v-80h-238v-634h-95v634h-238z" />
    <glyph glyph-name="U" unicode="U" horiz-adv-x="722" 
d="M169 714v-460q0 -59 22.5 -101.5t67 -66t108.5 -23.5q91 0 138.5 51t47.5 140v460h95v-461q0 -84 -31.5 -144.5t-94.5 -93t-155 -32.5q-145 0 -219 70t-74 200v461h95z" />
    <glyph glyph-name="V" unicode="V" horiz-adv-x="611" 
d="M102 714l204 -619h2l206 619h99l-254 -714h-108l-252 714h103z" />
    <glyph glyph-name="W" unicode="W" horiz-adv-x="926" 
d="M109 714l140 -594h2l160 594h103l158 -594h2l145 594h95l-191 -714h-99l-163 600h-2l-165 -600h-99l-183 714h97z" />
    <glyph glyph-name="X" unicode="X" horiz-adv-x="611" 
d="M-1 0l249 367l-235 347h114l178 -279l186 279h106l-236 -347l251 -367h-116l-192 295l-198 -295h-107z" />
    <glyph glyph-name="Y" unicode="Y" horiz-adv-x="648" 
d="M2 714h113l214 -340l209 340h108l-273 -422v-292h-95v292z" />
    <glyph glyph-name="Z" unicode="Z" horiz-adv-x="611" 
d="M578 634l-443 -554h455v-80h-568v80l444 554h-410v80h522v-80z" />
    <glyph glyph-name="bracketleft" unicode="[" horiz-adv-x="259" 
d="M259 731v-68h-107v-793h107v-68h-187v929h187z" />
    <glyph glyph-name="backslash" unicode="\" horiz-adv-x="333" 
d="M351 -17h-73l-296 748h73z" />
    <glyph glyph-name="bracketright" unicode="]" horiz-adv-x="259" 
d="M187 731v-929h-187v68h107v793h-107v68h187z" />
    <glyph glyph-name="asciicircum" unicode="^" horiz-adv-x="600" 
d="M268 697h64l218 -433h-70l-181 360l-178 -360h-71z" />
    <glyph glyph-name="underscore" unicode="_" horiz-adv-x="500" 
d="M500 -125h-500v50h500v-50z" />
    <glyph glyph-name="grave" unicode="`" horiz-adv-x="222" 
d="M172 589h-64l-131 143h109z" />
    <glyph glyph-name="a" unicode="a" horiz-adv-x="537" 
d="M81 243q42 41 209 62q37 4 57.5 12t29 20.5t8.5 31.5q0 43 -28 64t-87 21q-63 0 -94.5 -24t-34.5 -74h-85q4 86 60.5 129.5t159.5 43.5q104 0 148.5 -36.5t44.5 -102.5v-298q0 -29 27 -29q13 0 26 5v-66q-25 -14 -61 -14q-35 0 -53.5 20t-18.5 60q-68 -80 -182 -80
q-80 0 -125.5 38t-45.5 107q0 70 45 110zM153 83q26 -20 73 -20t83 16.5t55.5 43t19.5 55.5v89q-10 -7 -26.5 -13t-33.5 -8l-87 -13q-57 -8 -84 -31t-27 -63q0 -36 27 -56z" />
    <glyph glyph-name="b" unicode="b" horiz-adv-x="593" 
d="M67 714h85v-267h2q20 40 62.5 61t102.5 21q73 0 126.5 -35t82.5 -96.5t29 -140.5t-28.5 -140t-82 -95t-125.5 -34q-51 0 -96 20.5t-71 60.5h-2v-69h-85v714zM149 259q0 -59 19.5 -103.5t56 -68.5t87.5 -24q49 0 83.5 23.5t53 68.5t18.5 108q0 55 -19.5 98.5t-56 68
t-85.5 24.5t-84.5 -25t-54 -69t-18.5 -101z" />
    <glyph glyph-name="c" unicode="c" horiz-adv-x="537" 
d="M36 252q0 84 29.5 146.5t84.5 96.5t130 34q95 0 154 -45.5t69 -132.5h-88q-10 50 -43.5 76.5t-84.5 26.5q-78 0 -119.5 -52.5t-41.5 -149.5q0 -56 18 -99t52.5 -66.5t80.5 -23.5q61 0 97.5 33t44.5 93h87q-14 -97 -73 -149t-155 -52q-75 0 -129.5 32t-83.5 91.5
t-29 140.5z" />
    <glyph glyph-name="d" unicode="d" horiz-adv-x="593" 
d="M36 260q0 79 28 140t81 95t126 34q52 0 98.5 -21.5t69.5 -59.5h2v266h85v-714h-85v70h-2q-20 -39 -63.5 -60.5t-101.5 -21.5q-71 0 -125 34.5t-83.5 96t-29.5 141.5zM126 254q0 -55 19.5 -98.5t55.5 -68t85 -24.5q50 0 85.5 24.5t54 69t18.5 101.5q0 59 -19 103t-56 68.5
t-89 24.5q-48 0 -83 -24t-53 -69.5t-18 -106.5z" />
    <glyph glyph-name="e" unicode="e" horiz-adv-x="537" 
d="M104 452q69 77 175 77q111 0 173 -80q61 -79 61 -206v-10h-387v-6q0 -49 19.5 -86t56 -57.5t85.5 -20.5q56 0 89.5 26t44.5 75h84q-17 -85 -74.5 -130.5t-146.5 -45.5q-81 0 -137 36q-54 36 -82.5 101t-28.5 137q0 115 68 190zM126 308h297q-2 41 -22 74.5t-53.5 52.5
t-74.5 19q-40 0 -72 -18t-52 -51.5t-23 -76.5z" />
    <glyph glyph-name="f" unicode="f" horiz-adv-x="296" 
d="M12 442v75h87v81q0 58 36.5 91t105.5 33q13 0 30 -2.5t26 -5.5v-74q-9 3 -23 5t-25 2q-34 0 -49.5 -14.5t-15.5 -41.5v-74h100v-75h-100v-442h-85v442h-87z" />
    <glyph glyph-name="g" unicode="g" horiz-adv-x="574" 
d="M64 397q28 62 82 97t128 35q53 0 93 -23t62 -63h1v74h80v-478q0 -249 -239 -249q-59 0 -107 17.5t-77 51.5t-31 83h85q1 -26 20.5 -45t49.5 -29t64 -10q75 0 115 50t40 148v32h-2q-20 -43 -63.5 -68.5t-97.5 -25.5q-69 0 -121.5 33t-81 92.5t-28.5 136.5q0 79 28 141z
M126 266q0 -60 17 -104.5t50 -68.5t79 -24t81 25t54 70t19 105q0 55 -17.5 96.5t-50.5 65t-80 23.5t-81 -23.5t-52.5 -66t-18.5 -98.5z" />
    <glyph glyph-name="h" unicode="h" 
d="M149 714v-273h2q18 41 62.5 64.5t100.5 23.5q92 0 135 -47t43 -138v-344h-85v353q0 29 -12.5 52t-36 36t-57.5 13q-47 0 -81.5 -20t-52.5 -56t-18 -83v-295h-85v714h85z" />
    <glyph glyph-name="i" unicode="i" horiz-adv-x="222" 
d="M69 0v517h85v-517h-85zM154 714v-104h-85v104h85z" />
    <glyph glyph-name="j" unicode="j" horiz-adv-x="222" 
d="M-14 -121q9 -2 28 -2q22 0 34 6q10 5 15.5 18.5t5.5 42.5v573h85v-586q0 -62 -31.5 -95.5t-92.5 -33.5q-25 0 -44 4v73zM154 714v-104h-85v104h85z" />
    <glyph glyph-name="k" unicode="k" horiz-adv-x="519" 
d="M69 0v714h85v-423l236 226h114l-205 -188l220 -329h-108l-177 270l-80 -74v-196h-85z" />
    <glyph glyph-name="l" unicode="l" horiz-adv-x="222" 
d="M154 0h-85v714h85v-714z" />
    <glyph glyph-name="m" unicode="m" horiz-adv-x="853" 
d="M144 517v-76h2q58 88 167 88q56 0 92 -22.5t50 -65.5q26 42 69 65t94 23q85 0 128 -39t43 -108v-382h-85v343q0 56 -24 83.5t-76 27.5q-41 0 -72 -17t-47 -46.5t-16 -65.5v-325h-85v343q0 56 -23.5 83.5t-73.5 27.5q-40 0 -72 -20q-19 -12 -34.5 -32t-23.5 -41t-8 -37
v-324h-85v517h80z" />
    <glyph glyph-name="n" unicode="n" 
d="M64 517h80v-82h2q28 48 69.5 71t98.5 23q92 0 135 -47t43 -138v-344h-85v353q0 29 -12.5 52t-36 36t-57.5 13q-48 0 -82 -20t-52 -56t-18 -83v-295h-85v517z" />
    <glyph glyph-name="o" unicode="o" horiz-adv-x="574" 
d="M36 258q0 82 30.5 143t87 94.5t133.5 33.5q78 0 134.5 -34.5t86.5 -96t30 -140.5t-31 -140.5t-88 -95.5t-132 -34t-131.5 33t-88 94.5t-31.5 142.5zM147 156q20 -44 56.5 -68.5t83.5 -24.5q46 0 83 24.5t57.5 68.5t20.5 102t-21 102.5t-57.5 69t-83.5 24.5
q-45 0 -81.5 -24t-57.5 -68.5t-21 -103.5q0 -58 21 -102z" />
    <glyph glyph-name="p" unicode="p" horiz-adv-x="593" 
d="M67 517h85v-70h2q20 40 63 61t102 21q74 0 127.5 -34.5t82 -96t28.5 -141.5q0 -79 -28.5 -140t-82 -95t-125.5 -34q-51 0 -96 20.5t-71 60.5h-2v-267h-85v715zM169 156q19 -45 55.5 -69t87.5 -24q49 0 83.5 23.5t53 68.5t18.5 108q0 55 -19.5 98.5t-56 68t-85.5 24.5
q-50 0 -85.5 -25t-53.5 -69t-18 -101q0 -59 20 -103z" />
    <glyph glyph-name="q" unicode="q" horiz-adv-x="593" 
d="M65 400q28 61 81 95t125 34q52 0 98.5 -21.5t69.5 -59.5h2v69h85v-715h-85v268h-2q-20 -39 -63.5 -60.5t-101.5 -21.5q-71 0 -125 34.5t-83.5 96t-29.5 141.5q0 79 29 140zM126 254q0 -55 19.5 -98.5t55.5 -68t85 -24.5q50 0 85.5 24.5t54 69t18.5 101.5q0 59 -19 103
t-56 68.5t-89 24.5q-48 0 -83 -24t-53 -69.5t-18 -106.5z" />
    <glyph glyph-name="r" unicode="r" horiz-adv-x="333" 
d="M141 517v-109h2q30 62 73.5 91.5t104.5 29.5h12v-90q-95 0 -141 -51t-46 -157v-231h-85v517h80z" />
    <glyph glyph-name="s" unicode="s" horiz-adv-x="500" 
d="M116 163q1 -48 37.5 -74t101.5 -26q62 0 93.5 19.5t31.5 57.5q0 35 -32 55q-30 19 -129 40q-66 14 -104.5 33.5t-55.5 47t-17 66.5q0 45 24.5 78t69 51t100.5 18q103 0 154.5 -40t56.5 -122h-85v1q-4 41 -36 63.5t-84 22.5q-51 0 -80.5 -17.5t-29.5 -48.5q0 -28 25.5 -46
t79.5 -30l80 -18q77 -17 115 -51.5t38 -91.5q0 -50 -27 -87t-76.5 -56.5t-116.5 -19.5q-100 0 -157.5 44.5t-61.5 130.5h85z" />
    <glyph glyph-name="t" unicode="t" horiz-adv-x="315" 
d="M9 442v75h88v155h85v-155h103v-75h-103v-324q0 -20 6.5 -30t19.5 -11q34 -2 53 -2h24v-75h-70q-47 0 -72.5 10.5t-35.5 33.5t-10 64v334h-88z" />
    <glyph glyph-name="u" unicode="u" 
d="M149 517v-352q0 -30 13 -53t36.5 -36t55.5 -13q49 0 83 20t52 56t18 83v295h85v-517h-80v82h-2q-53 -94 -168 -94q-90 0 -134 46t-44 138v345h85z" />
    <glyph glyph-name="v" unicode="v" horiz-adv-x="500" 
d="M14 517h95l145 -431h2l141 431h89l-189 -517h-91z" />
    <glyph glyph-name="w" unicode="w" horiz-adv-x="758" 
d="M111 517l117 -423h2l104 423h93l109 -423h1l116 423h88l-164 -516l-1 -1h-90l-106 411h-1l-104 -411h-92l-166 517h94z" />
    <glyph glyph-name="x" unicode="x" horiz-adv-x="518" 
d="M203 272l-180 245h109l123 -180h1l129 180h102l-178 -238l200 -279h-109l-144 214l-144 -214h-103z" />
    <glyph glyph-name="y" unicode="y" horiz-adv-x="500" 
d="M104 517l151 -423h2l145 423h90l-220 -572q-23 -61 -44 -93.5t-46.5 -45.5t-64.5 -13q-35 0 -59 9v78q5 -1 13 -4t18.5 -5.5t18.5 -2.5q53 0 72 52l33 83l-205 514h96z" />
    <glyph glyph-name="z" unicode="z" horiz-adv-x="480" 
d="M444 459l-316 -384h330v-75h-436v65l312 377h-292v75h402v-58z" />
    <glyph glyph-name="braceleft" unicode="{" horiz-adv-x="333" 
d="M91 318q19 16 29.5 42.5t10.5 54.5v188q0 34 15.5 63.5t40 47t50.5 17.5h72v-60h-50q-24 0 -36 -22t-12 -61v-190q0 -30 -11 -56.5t-31 -46t-45 -27.5v-3q25 -5 45 -24t31 -46.5t11 -60.5v-189q0 -39 12 -61t36 -22h50v-60h-72q-26 0 -50.5 16.5t-40 46t-15.5 65.5v189
q0 29 -10.5 54.5t-29 41.5t-43.5 17v68q24 1 43 18z" />
    <glyph glyph-name="bar" unicode="|" horiz-adv-x="222" 
d="M145 -214h-68v1000h68v-1000z" />
    <glyph glyph-name="braceright" unicode="}" horiz-adv-x="333" 
d="M24 -198v60h49q24 0 36.5 22t12.5 61v189q0 31 12 58.5t31.5 46.5t43.5 26v3q-25 5 -45 23t-31 46t-11 61v188q0 40 -12 62.5t-37 22.5h-49v60h67q29 0 54.5 -17t41 -46.5t15.5 -64.5v-188q0 -30 10.5 -56t29 -42t43.5 -17v-68q-24 -1 -43 -17.5t-29.5 -42.5t-10.5 -54
v-188q0 -36 -15.5 -65.5t-40 -46t-50.5 -16.5h-72z" />
    <glyph glyph-name="asciitilde" unicode="~" horiz-adv-x="600" 
d="M194 315q32 0 72 -15l56 -25q31 -15 51.5 -23.5t33.5 -8.5q34 0 64 42l24 34l36 -50q-30 -45 -59 -65.5t-66 -20.5q-25 0 -50 9t-57 27q-64 36 -110 36q-25 0 -45 -17.5t-39 -58.5l-36 50q44 86 125 86z" />
    <glyph glyph-name="uni00A0" unicode="&#xa0;" horiz-adv-x="278" 
 />
    <glyph glyph-name="exclamdown" unicode="&#xa1;" horiz-adv-x="259" 
d="M185 406h-111v111h111v-111zM152 333l25 -311v-220h-95v220l25 311h45z" />
    <glyph glyph-name="cent" unicode="&#xa2;" 
d="M46 252q0 77 27.5 138t78.5 97.5t120 41.5v95h39v-95q88 -3 140 -48t63 -130h-87q-11 50 -41 75.5t-75 27.5v-391q100 10 121 126h85q-8 -58 -35.5 -103.5t-71.5 -71.5t-99 -26v-104h-39v104q-70 3 -121 37t-78 92.5t-27 134.5zM136 252q0 -53 16 -94.5t46.5 -66
t73.5 -28.5v391q-64 -7 -100 -58.5t-36 -143.5z" />
    <glyph glyph-name="sterling" unicode="&#xa3;" 
d="M105 372q-24 38 -35.5 76t-11.5 80q0 58 30 104.5t82 72.5t116 26q75 0 128 -29.5t80.5 -85t27.5 -133.5v-10h-85q-2 90 -39 136.5t-107 46.5q-40 0 -73 -17.5t-51.5 -47.5t-18.5 -67q0 -24 4 -43.5t15 -44.5t33 -64h159v-45h-137q20 -39 20 -76q0 -34 -10 -62t-35.5 -58
t-70.5 -67l2 -2q43 19 62 24t43 5q55 0 121 -23q35 -10 58 -10q22 0 46 10.5t43 26.5l43 -66q-28 -23 -63.5 -34.5t-82.5 -11.5q-38 0 -100 20q-60 21 -104 21q-52 0 -100 -35l-47 66q54 37 82 83.5t28 94.5q0 37 -25 94h-85v45h58z" />
    <glyph glyph-name="currency" unicode="&#xa4;" 
d="M74 604l56 -56q29 24 69 37.5t82 13.5q38 0 77.5 -14t65.5 -36l57 56l50 -51l-55 -55q25 -26 38.5 -65t13.5 -83q0 -43 -13.5 -82t-38.5 -68l55 -56l-47 -47l-56 58q-30 -27 -67.5 -41t-80.5 -14q-91 0 -152 54l-55 -58l-48 48l55 58q-26 32 -39 69.5t-13 76.5
q0 43 13.5 81.5t40.5 66.5l-57 58zM136 262q22 -40 60.5 -63t83.5 -23q44 0 81.5 23.5t59.5 64t22 87.5q0 46 -21.5 85.5t-59 63.5t-82.5 24t-83.5 -23.5t-61 -63.5t-22.5 -88t23 -87z" />
    <glyph glyph-name="yen" unicode="&#xa5;" 
d="M0 714h109l174 -353l169 353h104l-178 -345h93v-60h-126l-18 -33v-42h144v-60h-144v-174h-95v174h-141v60h141v42l-18 33h-123v60h92z" />
    <glyph glyph-name="brokenbar" unicode="&#xa6;" horiz-adv-x="222" 
d="M145 661v-250h-68v250h68zM77 -89v250h68v-250h-68z" />
    <glyph glyph-name="section" unicode="&#xa7;" 
d="M35 325q0 30 14 58.5t38.5 49.5t54.5 30q-24 27 -35 51.5t-11 54.5q0 47 25.5 84t68 57.5t91.5 20.5q86 0 134.5 -48.5t49.5 -136.5h-85q0 33 -13 58t-35.5 38.5t-52.5 13.5q-45 0 -70 -23t-25 -63q0 -33 29.5 -62.5t100.5 -65.5q63 -31 104.5 -60t60.5 -52
q37 -47 37 -101q0 -46 -28 -86.5t-76 -60.5q59 -44 59 -120q0 -46 -24.5 -82.5t-67 -57t-95.5 -20.5q-57 0 -100.5 22t-70 64.5t-30.5 102.5h85q1 -52 32.5 -83t81.5 -31q28 0 51 10.5t36.5 29.5t13.5 43q0 31 -24.5 57.5t-60 48t-108.5 60.5q-80 43 -117.5 90.5
t-37.5 108.5zM143 263q23 -26 113 -74q57 -31 106 -65q35 15 53.5 39t18.5 54q0 27 -23 56q-22 28 -105 76q-77 43 -116 71q-34 -12 -53.5 -37t-19.5 -54q0 -37 26 -66z" />
    <glyph glyph-name="dieresis" unicode="&#xa8;" horiz-adv-x="222" 
d="M160 706h90v-104h-90v104zM-28 706h90v-104h-90v104z" />
    <glyph glyph-name="copyright" unicode="&#xa9;" horiz-adv-x="800" 
d="M135 622q109 109 266 109q153 0 265 -109q110 -110 110 -263q0 -157 -110 -267q-110 -109 -265 -109t-267 110q-110 110 -110 266q0 154 111 263zM181 130q89 -92 220 -92q129 0 219 93q88 92 88 228q0 132 -88 224q-88 93 -220 93q-131 0 -219 -92q-89 -92 -89 -225
q0 -135 89 -229zM191 357q0 67 27 118.5t76.5 80.5t115.5 29q49 0 89 -18t65.5 -52t33.5 -82h-63q-10 46 -43.5 71.5t-80.5 25.5t-81 -21.5t-52.5 -60.5t-18.5 -89q0 -48 19.5 -88.5t54.5 -64t80 -23.5q47 0 80.5 27.5t41.5 74.5h64q-11 -49 -38 -84.5t-65 -54t-83 -18.5
q-64 0 -114.5 29t-79 81t-28.5 119z" />
    <glyph glyph-name="ordfeminine" unicode="&#xaa;" horiz-adv-x="378" 
d="M25 469q0 43 30 67.5t79 30.5q89 9 106 16q10 3 15 10t5 17q0 26 -18 37.5t-59 11.5t-61 -13.5t-22 -42.5h-60q2 49 40.5 77.5t106.5 28.5q64 0 97 -22.5t33 -61.5v-153q0 -17 1 -27t4.5 -12.5t13.5 -2.5q11 0 17 2v-44q-19 -8 -43 -8t-36.5 11t-14.5 34
q-45 -45 -117 -45q-53 0 -85 24t-32 65zM107 440q14 -10 48 -10q48 0 75 19.5t27 50.5v46q-9 -6 -25.5 -10t-64.5 -11q-41 -6 -57.5 -18.5t-16.5 -35.5q0 -21 14 -31z" />
    <glyph glyph-name="guillemotleft" unicode="&#xab;" horiz-adv-x="463" 
d="M246 322l152 120v-86l-100 -78l100 -78v-86l-152 120v88zM50 234v88l152 120v-86l-100 -78l100 -78v-86z" />
    <glyph glyph-name="logicalnot" unicode="&#xac;" horiz-adv-x="600" 
d="M552 109h-68v211h-436v68h504v-279z" />
    <glyph glyph-name="uni00AD" unicode="&#xad;" horiz-adv-x="389" 
d="M339 238h-289v80h289v-80z" />
    <glyph glyph-name="registered" unicode="&#xae;" horiz-adv-x="800" 
d="M135 622q109 109 266 109q153 0 265 -109q110 -110 110 -263q0 -157 -110 -267q-110 -109 -265 -109t-267 110q-110 110 -110 266q0 154 111 263zM181 130q89 -92 220 -92q129 0 219 93q88 92 88 228q0 134 -88 225q-89 92 -220 92t-219 -91q-89 -92 -89 -226
q0 -135 89 -229zM255 139v437h173q73 0 111 -31t38 -94q0 -105 -115 -119l125 -193h-73l-119 188h-72v-188h-68zM401 382q41 0 64.5 7t33.5 22.5t10 42.5q0 34 -23 50.5t-69 16.5h-94v-139h78z" />
    <glyph glyph-name="macron" unicode="&#xaf;" horiz-adv-x="222" 
d="M282 627h-341v55h341v-55z" />
    <glyph glyph-name="degree" unicode="&#xb0;" horiz-adv-x="400" 
d="M56 565q0 40 19.5 73t52.5 52t72 19t72 -20t52.5 -53t19.5 -71q0 -39 -19 -72t-52 -52.5t-73 -19.5t-73 19t-52 52t-19 73zM118 519q12 -22 33.5 -35t48.5 -13q28 0 49 13t33 34.5t12 46.5t-12 47t-33.5 34.5t-48.5 12.5q-26 0 -47.5 -12.5t-34 -34t-12.5 -47.5
q0 -25 12 -46z" />
    <glyph glyph-name="plusminus" unicode="&#xb1;" horiz-adv-x="600" 
d="M48 271v68h218v166h68v-166h218v-68h-218v-167h-68v167h-218zM48 68h504v-68h-504v68z" />
    <glyph glyph-name="twosuperior" unicode="&#xb2;" horiz-adv-x="370" 
d="M48 478q13 34 42.5 62.5t79.5 53.5q39 20 59 34.5t28.5 31t8.5 41.5q0 33 -19 53t-54 20q-40 0 -62.5 -25t-23.5 -74h-68q0 46 19.5 81t54.5 54t81 19q40 0 72 -16t50 -44.5t18 -65.5q0 -45 -23 -80q-25 -36 -103 -76q-50 -26 -73 -48t-28 -47h221v-55h-297q3 47 17 81z
" />
    <glyph glyph-name="threesuperior" unicode="&#xb3;" horiz-adv-x="370" 
d="M29 530h66q0 -42 24 -65t68 -23q41 0 64.5 21t23.5 57q0 35 -23 54.5t-65 19.5h-33v50h11q32 0 48 4q21 9 33 22t12 40q0 30 -19.5 47.5t-50.5 17.5q-38 0 -59.5 -22.5t-23.5 -66.5h-66q1 44 20.5 76t52.5 49.5t76 17.5q40 0 71.5 -14.5t48.5 -41t17 -59.5
q0 -28 -19 -52.5t-50 -35.5v-2q86 -21 86 -101q0 -40 -20 -70.5t-56 -47.5t-81 -17q-73 0 -114.5 37.5t-41.5 104.5z" />
    <glyph glyph-name="acute" unicode="&#xb4;" horiz-adv-x="222" 
d="M114 589h-64l86 143h109z" />
    <glyph glyph-name="uni00B5" unicode="&#xb5;" 
d="M67 -198v715h85v-353q0 -45 28 -73t75 -28q48 0 82 20.5t52 56.5t18 82v295h85v-517h-80v82h-2q-28 -46 -68.5 -70t-88.5 -24q-30 0 -57 9t-42 26h-2v-221h-85z" />
    <glyph glyph-name="paragraph" unicode="&#xb6;" horiz-adv-x="600" 
d="M76 619q28 46 78.5 70.5t116.5 24.5h244v-869h-68v814h-122v-814h-68v477q-95 1 -153 56q-56 55 -56 130q0 64 28 111z" />
    <glyph glyph-name="periodcentered" unicode="&#xb7;" horiz-adv-x="278" 
d="M84 344q9 14 23.5 22.5t31.5 8.5q18 0 32.5 -9t23 -24t8.5 -31t-9 -31t-23.5 -24t-30.5 -9q-17 0 -32 8.5t-24 23.5t-9 32q0 18 9 33z" />
    <glyph glyph-name="cedilla" unicode="&#xb8;" horiz-adv-x="222" 
d="M5 -191l18 44q33 -13 65 -13q27 0 42.5 8t15.5 23q0 14 -13 22.5t-34 8.5q-11 0 -20.5 -2t-20.5 -6l-17 28l61 78h42l-42 -53l2 -2q14 7 33 7q37 0 60.5 -20t23.5 -53q0 -42 -34 -65.5t-90 -23.5q-46 0 -92 19z" />
    <glyph glyph-name="onesuperior" unicode="&#xb9;" horiz-adv-x="370" 
d="M59 751q61 0 93.5 18.5t39.5 52.5h50v-425h-68v304h-115v50z" />
    <glyph glyph-name="ordmasculine" unicode="&#xba;" horiz-adv-x="384" 
d="M45 629q20 38 58 59t89 21q50 0 88 -20.5t58.5 -58t20.5 -87.5t-20 -87t-57.5 -56.5t-88.5 -19.5q-50 0 -88 20t-59 57t-21 86q0 48 20 86zM119 461q26 -31 74 -31t73 30t25 82q0 58 -26 87.5t-74 29.5q-45 0 -71.5 -30t-26.5 -86q0 -52 26 -82z" />
    <glyph glyph-name="guillemotright" unicode="&#xbb;" horiz-adv-x="463" 
d="M261 356v86l152 -120v-88l-152 -120v86l100 78zM165 278l-100 78v86l152 -120v-88l-152 -120v86z" />
    <glyph glyph-name="onequarter" unicode="&#xbc;" horiz-adv-x="834" 
d="M651 423h66v-266h56v-55h-56v-102h-66v102h-192v68zM150 -28l435 753h64l-435 -753h-64zM46 588v50h3q56 0 88.5 17.5t41.5 53.5h50v-429h-68v308h-115zM514 157h137v181h-2z" />
    <glyph glyph-name="onehalf" unicode="&#xbd;" horiz-adv-x="834" 
d="M519 115q32 46 98 79q66 32 84 55q18 21 18 55q0 33 -19.5 53t-53.5 20q-41 0 -62.5 -25.5t-23.5 -73.5h-68q0 48 20 82.5t55 53t80 18.5q41 0 72.5 -16t49.5 -44.5t18 -65.5q0 -43 -23 -78q-22 -35 -106 -80q-48 -24 -71 -46.5t-27 -46.5h221v-55h-297q3 68 35 115z
M565 725h64l-435 -753h-64zM46 588v50h3q56 0 88.5 17.5t41.5 53.5h50v-429h-68v308h-115z" />
    <glyph glyph-name="threequarters" unicode="&#xbe;" horiz-adv-x="834" 
d="M459 170l192 253h66v-266h56v-55h-56v-102h-66v102h-192v68zM114 413q1 -44 25 -66t67 -22q41 0 64.5 20.5t23.5 57.5q0 34 -22.5 54t-62.5 20h-36v50h11q35 0 46 4q21 7 34 20.5t13 41.5q0 29 -19.5 47t-50.5 18q-38 0 -59.5 -22.5t-23.5 -66.5h-66q1 44 20.5 76
t52.5 49.5t76 17.5q41 0 72 -14.5t48 -40.5t17 -59q0 -28 -18 -52.5t-51 -36.5v-2q43 -10 64.5 -35.5t21.5 -65.5q0 -39 -21 -69.5t-56.5 -48t-79.5 -17.5q-73 0 -114 37t-42 105h66zM201 -28l435 753h64l-435 -753h-64zM514 157h137v181h-2z" />
    <glyph glyph-name="questiondown" unicode="&#xbf;" 
d="M68 -10q0 32 7 57.5t27 54.5t59 65q48 43 65 75q15 30 15 81v16h85v-21q0 -57 -17 -96q-18 -37 -74 -90q-32 -30 -49 -53.5t-22.5 -42.5t-5.5 -42q0 -60 32 -94.5t89 -34.5q66 0 102 43.5t37 121.5h85v-2q0 -71 -28.5 -125t-79.5 -83.5t-116 -29.5q-63 0 -111 24.5
t-74 69.5t-26 106zM226 517h111v-111h-111v111z" />
    <glyph glyph-name="Agrave" unicode="&#xc0;" horiz-adv-x="648" 
d="M272 714h105l279 -714h-105l-78 215h-302l-80 -215h-98zM443 295l-119 333h-2l-121 -333h242zM178 922h109l86 -143h-64z" />
    <glyph glyph-name="Aacute" unicode="&#xc1;" horiz-adv-x="648" 
d="M272 714h105l279 -714h-105l-78 215h-302l-80 -215h-98zM201 295h242l-119 333h-2zM272 779l86 143h109l-131 -143h-64z" />
    <glyph glyph-name="Acircumflex" unicode="&#xc2;" horiz-adv-x="648" 
d="M272 714h105l279 -714h-105l-78 215h-302l-80 -215h-98zM201 295h242l-119 333h-2zM279 922h93l104 -143h-84l-69 96l-70 -96h-77z" />
    <glyph glyph-name="Atilde" unicode="&#xc3;" horiz-adv-x="648" 
d="M272 714h105l279 -714h-105l-78 215h-302l-80 -215h-98zM443 295l-119 333h-2l-121 -333h242zM155 793q24 110 106 110q29 0 74 -20q43 -20 65 -20q16 0 27.5 10.5t18.5 33.5h52q-8 -50 -32.5 -80.5t-68.5 -30.5q-19 0 -38.5 6.5t-57.5 21.5q-25 11 -45 11
q-17 0 -30 -11.5t-19 -30.5h-52z" />
    <glyph glyph-name="Adieresis" unicode="&#xc4;" horiz-adv-x="648" 
d="M272 714h105l279 -714h-105l-78 215h-302l-80 -215h-98zM201 295h242l-119 333h-2zM374 897h90v-104h-90v104zM186 793v104h90v-104h-90z" />
    <glyph glyph-name="Aring" unicode="&#xc5;" horiz-adv-x="648" 
d="M272 714h105l279 -714h-105l-78 215h-302l-80 -215h-98zM211 861q0 31 15.5 56.5t41.5 40.5t56 15t56 -14.5t41.5 -40.5t15.5 -57t-15 -56.5t-41 -40.5t-57 -15t-57 15t-41 40.5t-15 56.5zM201 295h242l-119 333h-2zM276 812q19 -20 48 -20t48 20t19 48q0 18 -8.5 34
t-24 25t-35.5 9q-18 0 -33 -9t-24 -24.5t-9 -34.5q0 -29 19 -48z" />
    <glyph glyph-name="AE" unicode="&#xc6;" horiz-adv-x="926" 
d="M354 714h535v-80h-351v-227h330v-80h-330v-247h357v-80h-447v208h-246l-102 -208h-107zM239 288h209v346h-41z" />
    <glyph glyph-name="Ccedilla" unicode="&#xc7;" horiz-adv-x="722" 
d="M43 355q0 111 42 196.5t118.5 132.5t177.5 47q78 0 141 -28t103 -80.5t50 -123.5h-95q-16 73 -68.5 112.5t-131.5 39.5q-74 0 -129 -36.5t-84 -102t-29 -150.5q0 -91 28.5 -158.5t83 -104t131.5 -36.5q58 0 103 25.5t72 72t31 108.5h95q-15 -135 -92.5 -208.5
t-208.5 -76.5l-29 -37l2 -2q14 7 33 7q36 0 60 -20t24 -53q0 -27 -16 -47.5t-44 -31t-64 -10.5q-43 0 -92 19l18 44q33 -13 65 -13q27 0 42.5 8t15.5 23q0 14 -13 22.5t-34 8.5q-11 0 -20.5 -2t-20.5 -6l-17 28l49 63q-142 12 -220 112q-77 100 -77 258z" />
    <glyph glyph-name="Egrave" unicode="&#xc8;" horiz-adv-x="611" 
d="M78 714h493v-80h-398v-227h371v-80h-371v-247h401v-80h-496v714zM275 922l86 -143h-64l-131 143h109z" />
    <glyph glyph-name="Eacute" unicode="&#xc9;" horiz-adv-x="611" 
d="M571 714v-80h-398v-227h371v-80h-371v-247h401v-80h-496v714h493zM270 779l86 143h109l-131 -143h-64z" />
    <glyph glyph-name="Ecircumflex" unicode="&#xca;" horiz-adv-x="611" 
d="M78 0v714h493v-80h-398v-227h371v-80h-371v-247h401v-80h-496zM272 922h93l104 -143h-84l-69 96l-70 -96h-77z" />
    <glyph glyph-name="Edieresis" unicode="&#xcb;" horiz-adv-x="611" 
d="M78 714h493v-80h-398v-227h371v-80h-371v-247h401v-80h-496v714zM368 897h90v-104h-90v104zM180 897h90v-104h-90v104z" />
    <glyph glyph-name="Igrave" unicode="&#xcc;" horiz-adv-x="259" 
d="M177 0h-95v714h95v-714zM177 779h-64l-131 143h109z" />
    <glyph glyph-name="Iacute" unicode="&#xcd;" horiz-adv-x="259" 
d="M177 0h-95v714h95v-714zM144 779h-64l86 143h109z" />
    <glyph glyph-name="Icircumflex" unicode="&#xce;" horiz-adv-x="259" 
d="M82 0v714h95v-714h-95zM-19 779l103 143h93l104 -143h-84l-69 96l-70 -96h-77z" />
    <glyph glyph-name="Idieresis" unicode="&#xcf;" horiz-adv-x="259" 
d="M82 0v714h95v-714h-95zM179 897h90v-104h-90v104zM-9 793v104h90v-104h-90z" />
    <glyph glyph-name="Eth" unicode="&#xd0;" horiz-adv-x="704" 
d="M8 405h70v309h251q108 0 183 -38.5t114.5 -114.5t39.5 -187q0 -187 -86 -280.5t-251 -93.5h-251v341h-70v64zM387 405v-64h-214v-261h161q72 0 125.5 31.5t82.5 94.5t29 155q0 140 -58 206.5t-175 66.5h-165v-229h214z" />
    <glyph glyph-name="Ntilde" unicode="&#xd1;" horiz-adv-x="722" 
d="M77 714h101l376 -579h2v579h90v-714h-104l-373 573h-2v-573h-90v714zM192 793q24 110 106 110q29 0 74 -20q43 -20 65 -20q16 0 27.5 10.5t18.5 33.5h52q-8 -50 -32.5 -80.5t-68.5 -30.5q-19 0 -38.5 6.5t-57.5 21.5q-25 11 -45 11q-17 0 -30 -11.5t-19 -30.5h-52z" />
    <glyph glyph-name="Ograve" unicode="&#xd2;" horiz-adv-x="760" 
d="M131 625q93 106 249 106q105 0 182.5 -50t118.5 -135t41 -189q0 -108 -42.5 -193t-120 -133t-179.5 -48q-104 0 -181.5 49.5t-119 134.5t-41.5 190q0 162 93 268zM133 357q0 -86 30.5 -153t86.5 -104t130 -37q76 0 132 38t85.5 104.5t29.5 151.5q0 127 -65 210
q-66 84 -183 84q-115 0 -181 -84q-65 -85 -65 -210zM338 922l86 -143h-64l-131 143h109z" />
    <glyph glyph-name="Oacute" unicode="&#xd3;" horiz-adv-x="760" 
d="M38 357q0 162 93 268t249 106q105 0 182.5 -50t118.5 -135t41 -189q0 -108 -42.5 -193t-120 -133t-179.5 -48q-104 0 -181.5 49.5t-119 134.5t-41.5 190zM164 204q30 -67 86 -104t130 -37q76 0 132 38t85.5 104.5t29.5 151.5q0 127 -65 210q-66 84 -183 84
q-115 0 -181 -84q-65 -85 -65 -210q0 -86 31 -153zM333 779l86 143h109l-131 -143h-64z" />
    <glyph glyph-name="Ocircumflex" unicode="&#xd4;" horiz-adv-x="760" 
d="M131 625q93 106 249 106q105 0 182.5 -50t118.5 -135t41 -189q0 -108 -42.5 -193t-120 -133t-179.5 -48q-104 0 -181.5 49.5t-119 134.5t-41.5 190q0 162 93 268zM133 357q0 -86 30.5 -153t86.5 -104t130 -37q76 0 132 38t85.5 104.5t29.5 151.5q0 127 -65 210
q-66 84 -183 84q-115 0 -181 -84q-65 -85 -65 -210zM335 922h93l104 -143h-84l-69 96l-70 -96h-77z" />
    <glyph glyph-name="Otilde" unicode="&#xd5;" horiz-adv-x="760" 
d="M38 357q0 162 93 268t249 106q105 0 182.5 -50t118.5 -135t41 -189q0 -108 -42.5 -193t-120 -133t-179.5 -48q-104 0 -181.5 49.5t-119 134.5t-41.5 190zM164 204q30 -67 86 -104t130 -37q76 0 132 38t85.5 104.5t29.5 151.5q0 127 -65 210q-66 84 -183 84
q-115 0 -181 -84q-65 -85 -65 -210q0 -86 31 -153zM317 903q29 0 74 -20q43 -20 65 -20q16 0 27.5 10.5t18.5 33.5h52q-8 -50 -32.5 -80.5t-68.5 -30.5q-19 0 -38.5 6.5t-57.5 21.5q-25 11 -45 11q-17 0 -30 -11.5t-19 -30.5h-52q24 110 106 110z" />
    <glyph glyph-name="Odieresis" unicode="&#xd6;" horiz-adv-x="760" 
d="M131 625q93 106 249 106q105 0 182.5 -50t118.5 -135t41 -189q0 -108 -42.5 -193t-120 -133t-179.5 -48q-104 0 -181.5 49.5t-119 134.5t-41.5 190q0 162 93 268zM133 357q0 -86 30.5 -153t86.5 -104t130 -37q76 0 132 38t85.5 104.5t29.5 151.5q0 127 -65 210
q-66 84 -183 84q-115 0 -181 -84q-65 -85 -65 -210zM430 897h90v-104h-90v104zM332 897v-104h-90v104h90z" />
    <glyph glyph-name="multiply" unicode="&#xd7;" horiz-adv-x="600" 
d="M70 72l182 182l-181 180l49 48l180 -180l180 180l48 -48l-179 -180l180 -182l-48 -48l-181 182l-181 -182z" />
    <glyph glyph-name="Oslash" unicode="&#xd8;" horiz-adv-x="760" 
d="M37 10l84 92q-41 50 -62 115t-21 140q0 162 93 268t249 106q72 0 129 -22t103 -66l79 87l32 -30l-82 -90q39 -50 60 -114t21 -139q0 -108 -43 -193t-120.5 -133t-178.5 -48q-136 0 -229 86l-81 -89zM133 357q0 -54 12.5 -101.5t37.5 -85.5l368 407h1q-33 37 -75.5 55.5
t-97.5 18.5q-115 0 -181 -85q-65 -85 -65 -209zM380 63q114 0 181 83q66 83 66 211q0 52 -12.5 99t-35.5 85l-369 -407q64 -71 170 -71z" />
    <glyph glyph-name="Ugrave" unicode="&#xd9;" horiz-adv-x="722" 
d="M74 714h95v-460q0 -59 22.5 -101.5t67 -66t108.5 -23.5q91 0 138.5 51t47.5 140v460h95v-461q0 -84 -31.5 -144.5t-94.5 -93t-155 -32.5q-145 0 -219 70t-74 200v461zM211 922h109l86 -143h-64z" />
    <glyph glyph-name="Uacute" unicode="&#xda;" horiz-adv-x="722" 
d="M74 714h95v-460q0 -59 22.5 -101.5t67 -66t108.5 -23.5q91 0 138.5 51t47.5 140v460h95v-461q0 -84 -31.5 -144.5t-94.5 -93t-155 -32.5q-145 0 -219 70t-74 200v461zM315 779l86 143h109l-131 -143h-64z" />
    <glyph glyph-name="Ucircumflex" unicode="&#xdb;" horiz-adv-x="722" 
d="M74 253v461h95v-460q0 -59 22.5 -101.5t67 -66t108.5 -23.5q91 0 138.5 51t47.5 140v460h95v-461q0 -84 -31.5 -144.5t-94.5 -93t-155 -32.5q-145 0 -219 70t-74 200zM317 922h93l104 -143h-84l-69 96l-70 -96h-77z" />
    <glyph glyph-name="Udieresis" unicode="&#xdc;" horiz-adv-x="722" 
d="M169 714v-460q0 -59 22.5 -101.5t67 -66t108.5 -23.5q91 0 138.5 51t47.5 140v460h95v-461q0 -84 -31.5 -144.5t-94.5 -93t-155 -32.5q-145 0 -219 70t-74 200v461h95zM502 897v-104h-90v104h90zM314 897v-104h-90v104h90z" />
    <glyph glyph-name="Yacute" unicode="&#xdd;" horiz-adv-x="648" 
d="M2 714h113l214 -340l209 340h108l-273 -422v-292h-95v292zM366 922h109l-131 -143h-64z" />
    <glyph glyph-name="Thorn" unicode="&#xde;" horiz-adv-x="648" 
d="M78 714h95v-114h218q67 0 116 -24t76 -71.5t27 -116.5q0 -68 -26 -115t-74 -71t-114 -24h-223v-178h-95v714zM173 258h190q74 0 113 32t39 98q0 132 -152 132h-190v-262z" />
    <glyph glyph-name="germandbls" unicode="&#xdf;" 
d="M64 528q0 59 24 105t69 72t105 26q84 0 145 -48q62 -50 62 -127q0 -61 -25.5 -99.5t-78.5 -55.5v-2q41 -4 71.5 -29t47.5 -64.5t17 -85.5q0 -68 -29.5 -120.5t-82.5 -82t-119 -29.5q-25 0 -43 4v74q7 -2 13.5 -2.5t16.5 -0.5q48 0 83 18.5t53 51.5t18 76q0 55 -16.5 87.5
t-54.5 47.5t-104 15h-9v68h20q62 0 97 30t35 86q0 30 -14.5 56t-40 41.5t-56.5 15.5q-64 0 -91.5 -34.5t-27.5 -100.5v-521h-85v528z" />
    <glyph glyph-name="agrave" unicode="&#xe0;" horiz-adv-x="537" 
d="M81 243q42 41 209 62q37 4 57.5 12t29 20.5t8.5 31.5q0 43 -28 64t-87 21q-63 0 -94.5 -24t-34.5 -74h-85q4 86 60.5 129.5t159.5 43.5q104 0 148.5 -36.5t44.5 -102.5v-298q0 -29 27 -29q13 0 26 5v-66q-25 -14 -61 -14q-35 0 -53.5 20t-18.5 60q-68 -80 -182 -80
q-80 0 -125.5 38t-45.5 107q0 70 45 110zM153 83q26 -20 73 -20t83 16.5t55.5 43t19.5 55.5v89q-10 -7 -26.5 -13t-33.5 -8l-87 -13q-57 -8 -84 -31t-27 -63q0 -36 27 -56zM122 732h109l86 -143h-64z" />
    <glyph glyph-name="aacute" unicode="&#xe1;" horiz-adv-x="537" 
d="M36 133q0 70 45 110q42 41 209 62q37 4 57.5 12t29 20.5t8.5 31.5q0 43 -28 64t-87 21q-63 0 -94.5 -24t-34.5 -74h-85q4 86 60.5 129.5t159.5 43.5q104 0 148.5 -36.5t44.5 -102.5v-298q0 -29 27 -29q13 0 26 5v-66q-25 -14 -61 -14q-35 0 -53.5 20t-18.5 60
q-68 -80 -182 -80q-80 0 -125.5 38t-45.5 107zM153 83q26 -20 73 -20t83 16.5t55.5 43t19.5 55.5v89q-10 -7 -26.5 -13t-33.5 -8l-87 -13q-57 -8 -84 -31t-27 -63q0 -36 27 -56zM222 589l86 143h109l-131 -143h-64z" />
    <glyph glyph-name="acircumflex" unicode="&#xe2;" horiz-adv-x="537" 
d="M36 133q0 70 45 110q42 41 209 62q37 4 57.5 12t29 20.5t8.5 31.5q0 43 -28 64t-87 21q-63 0 -94.5 -24t-34.5 -74h-85q4 86 60.5 129.5t159.5 43.5q104 0 148.5 -36.5t44.5 -102.5v-298q0 -29 27 -29q13 0 26 5v-66q-25 -14 -61 -14q-35 0 -53.5 20t-18.5 60
q-68 -80 -182 -80q-80 0 -125.5 38t-45.5 107zM126 139q0 -36 26.5 -56t73.5 -20t83 16.5t55.5 43t19.5 55.5v89q-10 -7 -26.5 -13t-33.5 -8l-87 -13q-57 -8 -84 -31t-27 -63zM123 589l103 143h93l104 -143h-84l-69 96l-70 -96h-77z" />
    <glyph glyph-name="atilde" unicode="&#xe3;" horiz-adv-x="537" 
d="M81 243q42 41 209 62q37 4 57.5 12t29 20.5t8.5 31.5q0 43 -28 64t-87 21q-63 0 -94.5 -24t-34.5 -74h-85q4 86 60.5 129.5t159.5 43.5q104 0 148.5 -36.5t44.5 -102.5v-298q0 -29 27 -29q13 0 26 5v-66q-25 -14 -61 -14q-35 0 -53.5 20t-18.5 60q-68 -80 -182 -80
q-80 0 -125.5 38t-45.5 107q0 70 45 110zM126 139q0 -36 26.5 -56t73.5 -20t83 16.5t55.5 43t19.5 55.5v89q-10 -7 -26.5 -13t-33.5 -8l-87 -13q-57 -8 -84 -31t-27 -63zM102 603q24 110 106 110q29 0 74 -20q23 -10 38.5 -15t26.5 -5q16 0 27.5 10.5t18.5 33.5h52
q-8 -49 -33 -80t-68 -31q-17 0 -33 5t-43 15q-5 3 -10.5 4.5t-9.5 3.5q-28 11 -45 11t-30 -11.5t-19 -30.5h-52z" />
    <glyph glyph-name="adieresis" unicode="&#xe4;" horiz-adv-x="537" 
d="M36 133q0 70 45 110q42 41 209 62q37 4 57.5 12t29 20.5t8.5 31.5q0 43 -28 64t-87 21q-63 0 -94.5 -24t-34.5 -74h-85q4 86 60.5 129.5t159.5 43.5q104 0 148.5 -36.5t44.5 -102.5v-298q0 -29 27 -29q13 0 26 5v-66q-25 -14 -61 -14q-35 0 -53.5 20t-18.5 60
q-68 -80 -182 -80q-80 0 -125.5 38t-45.5 107zM126 139q0 -36 26.5 -56t73.5 -20t83 16.5t55.5 43t19.5 55.5v89q-10 -7 -26.5 -13t-33.5 -8l-87 -13q-57 -8 -84 -31t-27 -63zM321 706h90v-104h-90v104zM223 706v-104h-90v104h90z" />
    <glyph glyph-name="aring" unicode="&#xe5;" horiz-adv-x="537" 
d="M81 243q42 41 209 62q37 4 57.5 12t29 20.5t8.5 31.5q0 43 -28 64t-87 21q-63 0 -94.5 -24t-34.5 -74h-85q4 86 60.5 129.5t159.5 43.5q104 0 148.5 -36.5t44.5 -102.5v-298q0 -29 27 -29q13 0 26 5v-66q-25 -14 -61 -14q-35 0 -53.5 20t-18.5 60q-68 -80 -182 -80
q-80 0 -125.5 38t-45.5 107q0 70 45 110zM159 676q0 30 15 56t41 41t57 15t57 -15t41 -41t15 -56t-15 -56t-41 -41t-57 -15q-30 0 -56 14.5t-41.5 40.5t-15.5 57zM153 83q26 -20 73 -20t83 16.5t55.5 43t19.5 55.5v89q-10 -7 -26.5 -13t-33.5 -8l-87 -13q-57 -8 -84 -31
t-27 -63q0 -36 27 -56zM205 675q0 -28 19 -48t48 -20t48 20t19 48q0 29 -18.5 48.5t-49.5 19.5q-17 0 -32.5 -8.5t-24.5 -24.5t-9 -35z" />
    <glyph glyph-name="ae" unicode="&#xe6;" horiz-adv-x="870" 
d="M36 133q0 59 31.5 96.5t92.5 50.5q64 16 132 26q38 6 58.5 14t28.5 20.5t8 33.5q0 40 -27.5 60t-88.5 20q-65 0 -96 -24t-34 -74h-85q4 86 60 129.5t159 43.5q70 0 112.5 -19t60.5 -56q23 35 66 55t99 20q233 0 233 -296h-379q1 -53 20 -91.5t53.5 -58.5t81.5 -20
q51 0 85.5 26t45.5 74h87q-19 -84 -78 -129.5t-146 -45.5q-70 0 -117.5 25.5t-69.5 75.5q-29 -50 -85.5 -75.5t-132.5 -25.5q-83 0 -129 37.5t-46 107.5zM126 139q0 -36 26.5 -56t73.5 -20t83.5 16.5t57 43.5t20.5 55v89q-18 -10 -38 -15.5t-62 -10.5q-101 -12 -131 -36
t-30 -66zM756 308q-2 43 -19.5 76t-49.5 51.5t-75 18.5q-41 0 -73.5 -17.5t-51.5 -50.5t-20 -78h289z" />
    <glyph glyph-name="ccedilla" unicode="&#xe7;" horiz-adv-x="537" 
d="M66 399q29 62 84 96t130 34q96 0 154.5 -45.5t68.5 -132.5h-88q-10 50 -43.5 76.5t-84.5 26.5q-78 0 -119.5 -52.5t-41.5 -149.5q0 -56 18 -99t52.5 -66.5t80.5 -23.5q61 0 97.5 33t44.5 93h87q-14 -94 -69 -145t-144 -54l-33 -43l2 -2q12 7 33 7q37 0 60.5 -20.5
t23.5 -52.5q0 -42 -34.5 -65.5t-89.5 -23.5q-47 0 -92 19l18 44q35 -13 65 -13q26 0 42 8t16 23q0 13 -13.5 22t-33.5 9q-10 0 -20 -2t-21 -6l-17 28l53 68h-1q-67 5 -115.5 38.5t-74 90.5t-25.5 133q0 84 30 147z" />
    <glyph glyph-name="egrave" unicode="&#xe8;" horiz-adv-x="537" 
d="M104 452q69 77 175 77q111 0 173 -80q61 -79 61 -206v-10h-387v-6q0 -49 19.5 -86t56 -57.5t85.5 -20.5q56 0 89.5 26t44.5 75h84q-17 -85 -74.5 -130.5t-146.5 -45.5q-81 0 -137 36q-54 36 -82.5 101t-28.5 137q0 115 68 190zM423 308q-2 41 -22 74.5t-53.5 52.5
t-74.5 19q-40 0 -72 -18t-52 -51.5t-23 -76.5h297zM240 732l86 -143h-64l-131 143h109z" />
    <glyph glyph-name="eacute" unicode="&#xe9;" horiz-adv-x="537" 
d="M104 452q69 77 175 77q111 0 173 -80q61 -79 61 -206v-10h-387v-6q0 -49 19.5 -86t56 -57.5t85.5 -20.5q56 0 89.5 26t44.5 75h84q-17 -85 -74.5 -130.5t-146.5 -45.5q-81 0 -137 36q-54 36 -82.5 101t-28.5 137q0 115 68 190zM423 308q-2 41 -22 74.5t-53.5 52.5
t-74.5 19q-40 0 -72 -18t-52 -51.5t-23 -76.5h297zM317 732h109l-131 -143h-64z" />
    <glyph glyph-name="ecircumflex" unicode="&#xea;" horiz-adv-x="537" 
d="M36 262q0 115 68 190q69 77 175 77q111 0 173 -80q61 -79 61 -206v-10h-387v-6q0 -49 19.5 -86t56 -57.5t85.5 -20.5q56 0 89.5 26t44.5 75h84q-17 -85 -74.5 -130.5t-146.5 -45.5q-81 0 -137 36q-54 36 -82.5 101t-28.5 137zM423 308q-2 41 -22 74.5t-53.5 52.5
t-74.5 19q-40 0 -72 -18t-52 -51.5t-23 -76.5h297zM132 589l103 143h93l104 -143h-84l-69 96l-70 -96h-77z" />
    <glyph glyph-name="edieresis" unicode="&#xeb;" horiz-adv-x="537" 
d="M36 262q0 115 68 190q69 77 175 77q111 0 173 -80q61 -79 61 -206v-10h-387v-6q0 -49 19.5 -86t56 -57.5t85.5 -20.5q56 0 89.5 26t44.5 75h84q-17 -85 -74.5 -130.5t-146.5 -45.5q-81 0 -137 36q-54 36 -82.5 101t-28.5 137zM126 308h297q-2 41 -22 74.5t-53.5 52.5
t-74.5 19q-40 0 -72 -18t-52 -51.5t-23 -76.5zM330 706h90v-104h-90v104zM142 602v104h90v-104h-90z" />
    <glyph glyph-name="igrave" unicode="&#xec;" horiz-adv-x="222" 
d="M154 0h-85v517h85v-517zM157 589h-64l-131 143h109z" />
    <glyph glyph-name="iacute" unicode="&#xed;" horiz-adv-x="222" 
d="M154 0h-85v517h85v-517zM126 589h-64l86 143h109z" />
    <glyph glyph-name="icircumflex" unicode="&#xee;" horiz-adv-x="222" 
d="M69 0v517h85v-517h-85zM66 732h93l104 -143h-84l-69 96l-70 -96h-77z" />
    <glyph glyph-name="idieresis" unicode="&#xef;" horiz-adv-x="222" 
d="M69 0v517h85v-517h-85zM161 706h90v-104h-90v104zM-27 602v104h90v-104h-90z" />
    <glyph glyph-name="eth" unicode="&#xf0;" horiz-adv-x="574" 
d="M102 435q66 71 170 71q45 0 79 -13.5t60 -42.5h2q-20 43 -54 84.5t-68 66.5l-115 -54l-38 40l110 51q-36 29 -71 48l70 45l40 -28l37 -28l120 56l35 -37l-115 -53q86 -69 130 -166t44 -217q0 -79 -31 -140.5t-88 -95.5t-132 -34t-132 33.5t-88 94.5t-31 141q0 108 66 178
zM147 156q20 -44 56.5 -68.5t83.5 -24.5q46 0 83 24.5t57.5 68.5t20.5 101q0 52 -19.5 91.5t-57 61t-90.5 21.5q-48 0 -83 -21t-53.5 -60t-18.5 -92q0 -58 21 -102z" />
    <glyph glyph-name="ntilde" unicode="&#xf1;" 
d="M144 517v-82h2q28 48 69.5 71t98.5 23q92 0 135 -47t43 -138v-344h-85v353q0 29 -12.5 52t-36 36t-57.5 13q-48 0 -82 -20t-52 -56t-18 -83v-295h-85v517h80zM111 603q24 110 106 110q29 0 74 -20q23 -10 38.5 -15t26.5 -5q16 0 27.5 10.5t18.5 33.5h52q-8 -49 -33 -80
t-68 -31q-17 0 -33 5t-43 15q-5 3 -10.5 4.5t-9.5 3.5q-28 11 -45 11t-30 -11.5t-19 -30.5h-52z" />
    <glyph glyph-name="ograve" unicode="&#xf2;" horiz-adv-x="574" 
d="M36 258q0 82 30.5 143t87 94.5t133.5 33.5q78 0 134.5 -34.5t86.5 -96t30 -140.5t-31 -140.5t-88 -95.5t-132 -34t-131.5 33t-88 94.5t-31.5 142.5zM126 258q0 -58 20.5 -102t57 -68.5t83.5 -24.5q46 0 83 24.5t57.5 68.5t20.5 102t-21 102.5t-57.5 69t-83.5 24.5
q-45 0 -81.5 -24t-57.5 -68.5t-21 -103.5zM245 732l86 -143h-64l-131 143h109z" />
    <glyph glyph-name="oacute" unicode="&#xf3;" horiz-adv-x="574" 
d="M67 401q30 61 86.5 94.5t133.5 33.5q78 0 134.5 -34.5t86.5 -96t30 -140.5t-31 -140.5t-88 -95.5t-132 -34t-131.5 33t-88 94.5t-31.5 142.5q0 82 31 143zM147 156q20 -44 56.5 -68.5t83.5 -24.5q46 0 83 24.5t57.5 68.5t20.5 102t-21 102.5t-57.5 69t-83.5 24.5
q-45 0 -81.5 -24t-57.5 -68.5t-21 -103.5q0 -58 21 -102zM326 732h109l-131 -143h-64z" />
    <glyph glyph-name="ocircumflex" unicode="&#xf4;" horiz-adv-x="574" 
d="M67 401q30 61 86.5 94.5t133.5 33.5q78 0 134.5 -34.5t86.5 -96t30 -140.5t-31 -140.5t-88 -95.5t-132 -34t-131.5 33t-88 94.5t-31.5 142.5q0 82 31 143zM147 156q20 -44 56.5 -68.5t83.5 -24.5q46 0 83 24.5t57.5 68.5t20.5 102t-21 102.5t-57.5 69t-83.5 24.5
q-45 0 -81.5 -24t-57.5 -68.5t-21 -103.5q0 -58 21 -102zM242 732h93l104 -143h-84l-69 96l-70 -96h-77z" />
    <glyph glyph-name="otilde" unicode="&#xf5;" horiz-adv-x="574" 
d="M67 401q30 61 86.5 94.5t133.5 33.5q78 0 134.5 -34.5t86.5 -96t30 -140.5t-31 -140.5t-88 -95.5t-132 -34t-131.5 33t-88 94.5t-31.5 142.5q0 82 31 143zM126 258q0 -58 20.5 -102t57 -68.5t83.5 -24.5q46 0 83 24.5t57.5 68.5t20.5 102t-21 102.5t-57.5 69t-83.5 24.5
q-45 0 -81.5 -24t-57.5 -68.5t-21 -103.5zM118 603q24 110 106 110q29 0 74 -20q23 -10 38.5 -15t26.5 -5q16 0 27.5 10.5t18.5 33.5h52q-8 -49 -33 -80t-68 -31q-17 0 -33 5t-43 15q-5 3 -10.5 4.5t-9.5 3.5q-28 11 -45 11t-30 -11.5t-19 -30.5h-52z" />
    <glyph glyph-name="odieresis" unicode="&#xf6;" horiz-adv-x="574" 
d="M36 258q0 82 30.5 143t87 94.5t133.5 33.5q78 0 134.5 -34.5t86.5 -96t30 -140.5t-31 -140.5t-88 -95.5t-132 -34t-131.5 33t-88 94.5t-31.5 142.5zM147 156q20 -44 56.5 -68.5t83.5 -24.5q46 0 83 24.5t57.5 68.5t20.5 102t-21 102.5t-57.5 69t-83.5 24.5
q-45 0 -81.5 -24t-57.5 -68.5t-21 -103.5q0 -58 21 -102zM427 706v-104h-90v104h90zM239 706v-104h-90v104h90z" />
    <glyph glyph-name="divide" unicode="&#xf7;" horiz-adv-x="600" 
d="M48 219v68h504v-68h-504zM236 47q0 17 8.5 31.5t23.5 23.5t32 9t32 -8.5t23.5 -23t8.5 -32.5q0 -16 -9 -30.5t-23.5 -24t-30.5 -9.5q-17 0 -32 9t-24 23.5t-9 31.5zM245 490q8 15 23 24t32 9q16 0 31 -8.5t24 -23.5t9 -32q0 -16 -9 -30.5t-23.5 -24t-30.5 -9.5
q-17 0 -32 9t-24 23.5t-9 31.5q0 16 9 31z" />
    <glyph glyph-name="oslash" unicode="&#xf8;" horiz-adv-x="574" 
d="M96 71q-29 35 -44.5 82.5t-15.5 104.5q0 81 31 142.5t87.5 95t132.5 33.5q105 0 168 -59l58 65l27 -26l-60 -66q29 -35 43.5 -82.5t14.5 -102.5q0 -79 -31 -140.5t-88 -95.5t-132 -34q-49 0 -91 14.5t-74 42.5l-60 -67l-28 24zM126 258q0 -68 30 -121l241 269h1
q-43 48 -112 48q-45 0 -81.5 -24.5t-57.5 -69t-21 -102.5zM287 63q46 0 83 24t57.5 68.5t20.5 102.5q0 64 -28 119l-241 -269q44 -45 108 -45z" />
    <glyph glyph-name="ugrave" unicode="&#xf9;" 
d="M64 172v345h85v-352q0 -30 13 -53t36.5 -36t55.5 -13q49 0 83 20t52 56t18 83v295h85v-517h-80v82h-2q-53 -94 -168 -94q-90 0 -134 46t-44 138zM128 732h109l86 -143h-64z" />
    <glyph glyph-name="uacute" unicode="&#xfa;" 
d="M64 517h85v-352q0 -30 13 -53t36.5 -36t55.5 -13q49 0 83 20t52 56t18 83v295h85v-517h-80v82h-2q-53 -94 -168 -94q-90 0 -134 46t-44 138v345zM228 589l86 143h109l-131 -143h-64z" />
    <glyph glyph-name="ucircumflex" unicode="&#xfb;" 
d="M64 517h85v-352q0 -30 13 -53t36.5 -36t55.5 -13q49 0 83 20t52 56t18 83v295h85v-517h-80v82h-2q-53 -94 -168 -94q-90 0 -134 46t-44 138v345zM129 589l103 143h93l104 -143h-84l-69 96l-70 -96h-77z" />
    <glyph glyph-name="udieresis" unicode="&#xfc;" 
d="M64 517h85v-352q0 -30 13 -53t36.5 -36t55.5 -13q49 0 83 20t52 56t18 83v295h85v-517h-80v82h-2q-53 -94 -168 -94q-90 0 -134 46t-44 138v345zM417 706v-104h-90v104h90zM139 602v104h90v-104h-90z" />
    <glyph glyph-name="yacute" unicode="&#xfd;" horiz-adv-x="500" 
d="M104 517l151 -423h2l145 423h90l-220 -572q-23 -61 -44 -93.5t-46.5 -45.5t-64.5 -13q-35 0 -59 9v78q5 -1 13 -4t18.5 -5.5t18.5 -2.5q53 0 72 52l33 83l-205 514h96zM291 732h109l-131 -143h-64z" />
    <glyph glyph-name="thorn" unicode="&#xfe;" horiz-adv-x="593" 
d="M67 714h85v-267h2q20 40 62.5 61t102.5 21q73 0 127 -35t82.5 -96.5t28.5 -140.5t-28.5 -140t-82 -95t-125.5 -34q-51 0 -96 20.5t-71 60.5h-2v-267h-85v912zM149 259q0 -59 19.5 -103.5t56 -68.5t87.5 -24q49 0 83.5 23.5t53 68.5t18.5 108q0 55 -19 98.5t-55.5 68
t-86.5 24.5t-85.5 -25t-53.5 -69t-18 -101z" />
    <glyph glyph-name="ydieresis" unicode="&#xff;" horiz-adv-x="500" 
d="M104 517l151 -423h2l145 423h90l-220 -572q-23 -61 -44 -93.5t-46.5 -45.5t-64.5 -13q-35 0 -59 9v78q5 -1 13 -4t18.5 -5.5t18.5 -2.5q53 0 72 52l33 83l-205 514h96zM304 602v104h90v-104h-90zM206 706v-104h-90v104h90z" />
    <glyph glyph-name="Gbreve" unicode="&#x11e;" horiz-adv-x="759" 
d="M134 622q92 109 249 109q84 0 149.5 -27.5t106 -80.5t51.5 -129h-95q-14 76 -69 116.5t-143 40.5q-76 0 -131.5 -38.5t-84.5 -107t-29 -157.5q0 -122 68 -204q66 -81 177 -81q67 0 119 28t81 78.5t29 115.5v11h-228v80h313v-376h-60l-25 89q-39 -50 -99 -78t-130 -28
q-145 0 -243 104q-97 104 -97 256q0 170 91 279zM280 919q24 -83 112 -83q24 0 41.5 7.5t31.5 25.5t26 50h51q-13 -67 -54.5 -102.5t-103.5 -35.5q-64 0 -104 34t-50 104h50z" />
    <glyph glyph-name="gbreve" unicode="&#x11f;" horiz-adv-x="574" 
d="M36 256q0 79 28 141t82 97t128 35q53 0 93 -23t62 -63h1v74h80v-478q0 -249 -239 -249q-59 0 -107 17.5t-77 51.5t-31 83h85q1 -26 20.5 -45t49.5 -29t64 -10q75 0 115 50t40 148v32h-2q-20 -43 -63.5 -68.5t-97.5 -25.5q-69 0 -121.5 33t-81 92.5t-28.5 136.5zM126 266
q0 -60 17 -104.5t50 -68.5t79 -24t81 25t54 70t19 105q0 55 -17.5 96.5t-50.5 65t-80 23.5t-81 -23.5t-52.5 -66t-18.5 -98.5zM130 729h50q24 -83 112 -83q36 0 59 18.5t40 64.5h51q-13 -67 -54 -102.5t-104 -35.5q-67 0 -105.5 34.5t-48.5 103.5z" />
    <glyph glyph-name="Idotaccent" unicode="&#x130;" horiz-adv-x="259" 
d="M177 0h-95v714h95v-714zM175 793h-90v104h90v-104z" />
    <glyph glyph-name="dotlessi" unicode="&#x131;" horiz-adv-x="222" 
d="M154 0h-85v517h85v-517z" />
    <glyph glyph-name="Lslash" unicode="&#x141;" 
d="M-1 260l79 56v398h95v-330l228 160v-76l-228 -160v-228h378v-80h-473v240l-79 -56v76z" />
    <glyph glyph-name="lslash" unicode="&#x142;" horiz-adv-x="222" 
d="M-1 337l70 56v321h85v-254l70 56v-71l-70 -56v-389h-85v321l-70 -55v71z" />
    <glyph glyph-name="OE" unicode="&#x152;" horiz-adv-x="1074" 
d="M129 627q92 104 244 104q38 0 74 -9.5t63 -27t39 -39.5h2v59h477v-80h-382v-227h350v-80h-350v-247h388v-80h-483v69h-2q-27 -41 -76.5 -63.5t-107.5 -22.5q-148 0 -238 102q-89 103 -89 270q0 169 91 272zM162 202q29 -66 83 -102.5t127 -36.5q49 0 90 18.5t65 50.5
t24 70v313q0 43 -22 70q-25 28 -64.5 47t-91.5 19q-76 0 -130.5 -40t-82 -108.5t-27.5 -151.5q0 -84 29 -149z" />
    <glyph glyph-name="oe" unicode="&#x153;" horiz-adv-x="891" 
d="M36 259q0 82 28 143t81 94t126 33q71 0 113 -22t66 -69q26 44 75 67.5t108 23.5q74 0 126 -32t79 -94t27 -151q0 -12 -1 -19h-375v-6q0 -47 18 -84.5t52 -58.5t79 -21q51 0 88.5 27t51.5 74h81q-51 -176 -221 -176q-145 0 -188 102q-23 -51 -69 -76.5t-110 -25.5
q-73 0 -126 33t-81 94t-28 144zM126 249q0 -54 17.5 -96t50 -66t77.5 -24q70 0 107 51.5t37 145.5q0 96 -36 145t-108 49q-44 0 -77 -25.5t-50.5 -71.5t-17.5 -108zM489 308h285q0 45 -17.5 78t-49.5 50.5t-75 17.5q-41 0 -73.5 -17.5t-51 -50.5t-18.5 -78z" />
    <glyph glyph-name="Scedilla" unicode="&#x15e;" horiz-adv-x="648" 
d="M127 235q0 -54 26.5 -93t73.5 -59t108 -20q87 0 134 33.5t47 96.5q0 35 -18.5 59t-62 42.5t-120.5 32.5q-153 30 -204 74q-52 46 -52 121q0 63 33.5 110.5t92.5 73t133 25.5q79 0 137 -26t90.5 -76.5t35.5 -123.5h-90q-16 146 -177 146q-77 0 -118.5 -32t-41.5 -90
q0 -40 35 -69q35 -26 194 -58q117 -24 172.5 -73t55.5 -133q0 -64 -36 -112t-100.5 -74.5t-148.5 -26.5l-28 -36l2 -2q14 7 33 7q37 0 60.5 -20.5t23.5 -52.5q0 -42 -34.5 -65.5t-89.5 -23.5q-47 0 -92 19l18 44q35 -13 65 -13q26 0 42 8t16 23q0 14 -13 22.5t-34 8.5
q-10 0 -20 -2t-21 -6l-17 28l49 64q-120 13 -184.5 78t-64.5 171h90z" />
    <glyph glyph-name="scedilla" unicode="&#x15f;" horiz-adv-x="500" 
d="M116 163q1 -48 37.5 -74t101.5 -26q62 0 93.5 19.5t31.5 57.5q0 35 -32 55q-34 21 -129 40q-65 13 -104 32.5t-56 47t-17 67.5q0 44 25.5 77.5t69.5 51.5t99 18q103 0 154.5 -40t56.5 -122h-85v1q-4 41 -36 63.5t-84 22.5q-51 0 -80.5 -17.5t-29.5 -48.5q0 -28 25.5 -46
t79.5 -30l80 -18q77 -17 115 -51.5t38 -91.5q0 -74 -54 -116.5t-159 -46.5l-32 -41l2 -2q14 7 33 7q24 0 43 -9.5t30 -26t11 -37.5q0 -27 -16 -47.5t-44 -31t-64 -10.5q-46 0 -92 19l18 44q33 -13 65 -13q27 0 42.5 8t15.5 23q0 14 -13 22.5t-34 8.5t-41 -8l-17 28l53 68
q-88 7 -135.5 51.5t-50.5 121.5h85z" />
    <glyph glyph-name="Scaron" unicode="&#x160;" horiz-adv-x="648" 
d="M127 235q0 -54 26.5 -93t73.5 -59t108 -20q87 0 134 33.5t47 96.5q0 35 -18.5 59t-62 42.5t-120.5 32.5q-153 30 -204 74q-52 46 -52 121q0 64 33.5 111.5t92.5 72.5t133 25q79 0 138 -26.5t92 -77.5t33 -122h-90q-16 146 -177 146q-77 0 -118.5 -32t-41.5 -90
q0 -39 36 -69q35 -26 193 -58q117 -24 172.5 -73t55.5 -133q0 -100 -82 -156q-81 -57 -197 -57q-86 0 -152.5 29t-104.5 86t-38 137h90zM258 922l69 -96l70 96h77l-103 -143h-93l-104 143h84z" />
    <glyph glyph-name="scaron" unicode="&#x161;" horiz-adv-x="500" 
d="M116 163q1 -48 37.5 -74t101.5 -26q62 0 93.5 19.5t31.5 57.5q0 35 -32 55q-30 19 -129 40q-66 14 -104.5 33.5t-55.5 47t-17 66.5q0 45 24.5 78t69 51t100.5 18q103 0 154.5 -40t56.5 -122h-85v1q-4 41 -36 63.5t-84 22.5q-51 0 -80.5 -17.5t-29.5 -48.5q0 -28 25.5 -46
t79.5 -30l80 -18q77 -17 115 -51.5t38 -91.5q0 -50 -27 -87t-76.5 -56.5t-116.5 -19.5q-100 0 -157.5 44.5t-61.5 130.5h85zM99 732h84l69 -96l70 96h77l-103 -143h-93z" />
    <glyph glyph-name="Ydieresis" unicode="&#x178;" horiz-adv-x="648" 
d="M2 714h113l214 -340l209 340h108l-273 -422v-292h-95v292zM377 897h90v-104h-90v104zM189 793v104h90v-104h-90z" />
    <glyph glyph-name="Zcaron" unicode="&#x17d;" horiz-adv-x="611" 
d="M22 80l444 554h-410v80h522v-80l-443 -554h455v-80h-568v80zM245 922l69 -96l70 96h77l-103 -143h-93l-104 143h84z" />
    <glyph glyph-name="zcaron" unicode="&#x17e;" horiz-adv-x="480" 
d="M22 0v65l312 377h-292v75h402v-58l-316 -384h330v-75h-436zM91 732h84l69 -96l70 96h77l-103 -143h-93z" />
    <glyph glyph-name="uni018F" unicode="&#x18f;" horiz-adv-x="743" 
d="M38 374v10h569v6q0 74 -31.5 133t-87.5 92t-128 33q-59 0 -108 -25t-80 -68.5t-36 -97.5h-92q9 78 53 141t113.5 98.5t152.5 35.5q98 0 176 -48.5t122 -135t44 -196.5q0 -108 -40.5 -191.5t-116.5 -130.5t-177 -47q-100 0 -175.5 49.5t-116.5 138t-41 203.5zM170 179
q28 -55 79.5 -85.5t121.5 -30.5t122.5 31t81.5 85.5t32 124.5h-468q2 -70 31 -125z" />
    <glyph glyph-name="florin" unicode="&#x192;" 
d="M3 -165l14 75h34q35 0 62 13.5t34 47.5l9 42l70 368h-92l13 68h91l26 135q26 130 161 130h67l-14 -75h-60q-50 0 -60 -50l-32 -140h102l-14 -68h-100l-54 -306q-25 -143 -67 -192q-40 -48 -120 -48h-70z" />
    <glyph glyph-name="uni0259" unicode="&#x259;" horiz-adv-x="537" 
d="M24 281h387v6q0 49 -20 86t-55.5 57.5t-82.5 20.5q-56 0 -91 -26t-46 -75h-84q17 85 76 130.5t148 45.5q78 0 133 -35t83.5 -97t28.5 -142q0 -75 -29.5 -136t-83 -96t-121.5 -35q-79 0 -133.5 36.5t-82 101t-27.5 148.5v10zM117 206q3 -42 21.5 -75t51.5 -52t77 -19
q40 0 71 18t50.5 51t22.5 77h-294z" />
    <glyph glyph-name="circumflex" unicode="&#x2c6;" horiz-adv-x="222" 
d="M64 732h93l104 -143h-84l-69 96l-70 -96h-77z" />
    <glyph glyph-name="caron" unicode="&#x2c7;" horiz-adv-x="222" 
d="M-39 732h84l69 -96l70 96h77l-103 -143h-93z" />
    <glyph glyph-name="breve" unicode="&#x2d8;" horiz-adv-x="222" 
d="M-45 729h50q24 -83 112 -83q36 0 59 18.5t40 64.5h51q-13 -67 -54 -102.5t-104 -35.5q-67 0 -105.5 34.5t-48.5 103.5z" />
    <glyph glyph-name="dotaccent" unicode="&#x2d9;" horiz-adv-x="222" 
d="M156 604h-90v104h90v-104z" />
    <glyph glyph-name="ring" unicode="&#x2da;" horiz-adv-x="222" 
d="M13 737q15 26 41 41t57 15t57 -15t41 -41t15 -56t-15 -56t-41 -41t-57 -15q-30 0 -56 14.5t-41.5 40.5t-15.5 57q0 30 15 56zM63 632q19 -20 48 -20t48 20t19 48q0 29 -18.5 48.5t-49.5 19.5q-17 0 -32.5 -8.5t-24.5 -24.5t-9 -35q0 -28 19 -48z" />
    <glyph glyph-name="ogonek" unicode="&#x2db;" horiz-adv-x="222" 
d="M105 -66q28 34 83 66h40q-43 -36 -63.5 -63t-20.5 -55q0 -20 11 -31t30 -11q16 0 31.5 7t27.5 23l32 -18q-18 -31 -44.5 -46.5t-63.5 -15.5q-43 0 -67.5 20t-24.5 56q0 34 29 68z" />
    <glyph glyph-name="tilde" unicode="&#x2dc;" horiz-adv-x="222" 
d="M-58 603q24 110 106 110q29 0 74 -20q23 -10 38.5 -15t26.5 -5q16 0 27.5 10.5t18.5 33.5h52q-8 -49 -33 -80t-68 -31q-17 0 -33 5t-43 15q-5 3 -10.5 4.5t-9.5 3.5q-28 11 -45 11t-30 -11.5t-19 -30.5h-52z" />
    <glyph glyph-name="hungarumlaut" unicode="&#x2dd;" horiz-adv-x="222" 
d="M189 732h105l-120 -143h-66zM33 732h105l-120 -143h-66z" />
    <glyph glyph-name="uni0394" unicode="&#x394;" horiz-adv-x="648" 
d="M653 0h-657l276 714h105zM124 80h394l-193 549h-2z" />
    <glyph glyph-name="uni03A9" unicode="&#x3a9;" horiz-adv-x="759" 
d="M35 0v80h171v4q-82 57 -122.5 133t-40.5 174q0 145 95 243q96 97 244 97q147 0 240 -94q94 -94 94 -236q0 -200 -164 -317v-4h175v-80h-282v72q87 60 131.5 143t44.5 186q0 109 -66 179q-66 71 -173 71q-72 0 -127.5 -32t-86 -91t-30.5 -136q0 -100 44.5 -179t135.5 -141
v-72h-283z" />
    <glyph glyph-name="uni03BC" unicode="&#x3bc;" 
d="M67 -198v715h85v-353q0 -45 28 -73t75 -28q48 0 82 20.5t52 56.5t18 82v295h85v-517h-80v82h-2q-28 -46 -68.5 -70t-88.5 -24q-30 0 -57 9t-42 26h-2v-221h-85z" />
    <glyph glyph-name="pi" unicode="&#x3c0;" horiz-adv-x="658" 
d="M635 517v-75h-106v-329q0 -51 44 -51q16 0 35 5v-66q-15 -6 -33.5 -9.5t-34.5 -3.5q-48 0 -72 26t-24 73v355h-237v-442h-85v442h-102v75h615z" />
    <glyph glyph-name="uni10D0" unicode="&#x10d0;" horiz-adv-x="568" 
d="M39 293q9 31 22 56h91q-11 -24 -19 -56t-8 -66q0 -46 19 -83.5t53.5 -59t79.5 -21.5t80 22t54.5 59.5t19.5 82.5q0 51 -13 89t-32.5 65t-52.5 64l-17 19q-32 37 -52.5 68.5t-34.5 76.5t-14 105h94q0 -45 11 -81t28.5 -63.5t43.5 -58.5l21 -24q37 -43 59.5 -74.5t38 -78
t15.5 -107.5q0 -70 -32.5 -125.5t-89.5 -87t-127 -31.5q-71 0 -127 31.5t-88 87t-32 125.5q0 34 9 66z" />
    <glyph glyph-name="uni10D1" unicode="&#x10d1;" horiz-adv-x="590" 
d="M42 237q0 72 28.5 126t77.5 85.5t111 38.5v18q0 33 -11.5 48t-26 25t-19.5 13q-19 13 -31 25.5t-20 36t-8 61.5h92q0 -28 12 -46.5t32 -32.5q25 -17 39.5 -29.5t25 -34t10.5 -53.5v-35q57 -11 101 -43.5t68.5 -84t24.5 -118.5q0 -79 -33.5 -136.5t-91 -87.5t-129.5 -30
q-69 0 -126.5 30t-91.5 88t-34 136zM157 144q20 -39 56 -60t81 -21q47 0 83.5 21t57.5 60t21 93t-21 93t-57.5 59.5t-83.5 20.5q-45 0 -81 -20.5t-56 -59.5t-20 -93t20 -93z" />
    <glyph glyph-name="uni10D2" unicode="&#x10d2;" horiz-adv-x="590" 
d="M42 227q0 99 52.5 157.5t138.5 84.5q77 23 106 50.5t29 62.5q0 19 -11 36t-31 27t-44 10q-25 0 -45.5 -11.5t-32.5 -31.5t-12 -46h-92q0 50 25 87.5t66.5 57.5t88.5 20q49 0 89.5 -19.5t64 -53t23.5 -73.5q0 -89 -98 -126v-3q59 -9 101.5 -41.5t65 -81t22.5 -106.5
q0 -74 -33.5 -129.5t-91.5 -85t-129 -29.5q-69 0 -126.5 29.5t-91.5 85t-34 129.5zM137 227q0 -49 20.5 -86t56 -57.5t80.5 -20.5q46 0 83 20.5t58 57.5t21 86q0 54 -21 93t-57.5 59.5t-83.5 20.5q-45 0 -81 -20.5t-56 -59.5t-20 -93z" />
    <glyph glyph-name="uni10D3" unicode="&#x10d3;" horiz-adv-x="896" 
d="M40 464q0 80 29 140.5t78 93.5t109 33q55 0 97 -26t65 -80h5q28 52 80 79t112 27q65 0 120 -33.5t88 -91.5t33 -130q0 -71 -33 -129t-90 -91t-127 -33q-69 0 -124.5 32.5t-86.5 90t-31 130.5v63q0 33 -13.5 58.5t-36.5 39.5t-51 14q-38 0 -66.5 -22.5t-44.5 -64.5
t-16 -100q0 -78 36 -137t93.5 -95.5t122.5 -52.5q70 -18 118 -39t77.5 -55.5t30.5 -84.5h-94q-2 35 -35.5 58.5t-85 35t-109.5 11.5h-159v72h98v4q-50 19 -93 58t-69.5 96.5t-26.5 128.5zM457 476q0 -48 18.5 -88t52.5 -63t78 -23t80 24t56.5 64t20.5 86q0 49 -20 89t-56 63
t-81 23q-44 0 -77.5 -23t-52.5 -63t-19 -89z" />
    <glyph glyph-name="uni10D4" unicode="&#x10d4;" horiz-adv-x="579" 
d="M35 197q0 54 19 99h90q-7 -24 -10.5 -44t-3.5 -44q0 -44 18 -76.5t51 -50.5t78 -18q46 0 79 19.5t50.5 54t17.5 79.5v282q0 42 -15.5 76.5t-46.5 55.5t-75 21q-42 0 -72.5 -17.5t-46.5 -46t-16 -60.5q0 -29 6 -53h-92q-3 10 -5.5 26t-2.5 34q0 52 28.5 97t80.5 72.5
t121 27.5q71 0 123.5 -30.5t80 -82t27.5 -114.5v-288q0 -71 -30.5 -123.5t-85.5 -81t-126 -28.5q-72 0 -126.5 25.5t-85 74t-30.5 114.5z" />
    <glyph glyph-name="uni10D5" unicode="&#x10d5;" horiz-adv-x="570" 
d="M53 286h90q-13 -34 -13 -81q0 -46 20 -78t54.5 -48t79.5 -16q41 0 76 16.5t56 48.5t21 76q0 41 -17.5 73.5t-49 50.5t-71.5 18h-53v78h50q39 0 65.5 15t39.5 40t13 56t-16 57.5t-45.5 42.5t-67.5 16q-41 0 -71 -16t-46 -42.5t-16 -57.5q0 -26 5 -43h-91q-4 9 -6 24.5
t-2 29.5q0 51 29.5 93.5t82 67t117.5 24.5q63 0 114 -25.5t79.5 -68t28.5 -91.5q0 -58 -28.5 -100t-74.5 -59v-4q33 -11 61.5 -35t46.5 -62.5t18 -89.5q0 -57 -32 -106t-89 -78t-127 -29q-75 0 -131 26t-87 73t-31 108q0 56 18 96z" />
    <glyph glyph-name="uni10D6" unicode="&#x10d6;" horiz-adv-x="607" 
d="M15 557q0 53 24.5 92.5t66.5 60.5t95 21t96 -21.5t67.5 -57t24.5 -74.5q0 -36 -11 -63.5t-34 -43.5v-3q64 -2 115.5 -31t81 -81.5t29.5 -121.5q0 -73 -33 -130.5t-90.5 -89t-128.5 -31.5q-68 0 -125.5 31t-91 86.5t-33.5 123.5q0 51 20.5 100t63.5 79v3q-43 6 -74 28
t-47 54t-16 69zM183 144q20 -39 55 -60t80 -21q46 0 82.5 21.5t57 60t20.5 89.5q0 52 -19 89.5t-54 57t-82 19.5q-45 0 -81.5 -19.5t-57.5 -57t-21 -89.5q0 -51 20 -90zM99 560q0 -29 12.5 -52t35 -35.5t50.5 -12.5q29 0 53.5 13t39 35.5t14.5 51.5q0 28 -13.5 50.5
t-36.5 35t-51 12.5t-52 -12.5t-38 -35t-14 -50.5z" />
    <glyph glyph-name="uni10D7" unicode="&#x10d7;" horiz-adv-x="912" 
d="M55 258v198q0 85 28.5 147t81 95t123.5 33q65 0 115 -30t75 -84h3q12 35 39.5 60.5t62 39.5t69.5 14q61 0 107 -30t72 -88t26 -138v-143q0 -97 -21 -186t-58 -146h-98q37 58 59.5 147t22.5 181v141q0 93 -31.5 137.5t-85.5 44.5q-32 0 -57.5 -17.5t-40.5 -53t-15 -88.5
v-233q0 -84 -29 -146.5t-82 -96t-125 -33.5t-126.5 33t-84.5 95.5t-30 146.5zM188 116q37 -53 108 -53q70 0 106 53t36 151v180q0 100 -34 152t-108 52q-71 0 -108.5 -53t-37.5 -151v-180q0 -98 38 -151z" />
    <glyph glyph-name="uni10D8" unicode="&#x10d8;" horiz-adv-x="594" 
d="M55 474q0 75 30 133.5t85 91t127 32.5t127 -33t85 -91.5t30 -133.5v-131q0 -96 -22.5 -190t-52.5 -152h-97q32 61 54.5 154.5t22.5 187.5v123q0 51 -16.5 93.5t-49.5 67.5t-81 25t-81 -25t-49.5 -67.5t-16.5 -93.5v-123q0 -94 22.5 -187.5t54.5 -154.5h-97
q-31 57 -53 151t-22 191v132z" />
    <glyph glyph-name="uni10D9" unicode="&#x10d9;" horiz-adv-x="561" 
d="M48 286h89q-13 -42 -13 -86q0 -40 20.5 -71.5t55.5 -48.5t79 -17q43 0 77 18t53.5 52.5t19.5 80.5q0 47 -18.5 83.5t-51.5 57t-75 20.5h-56v80h69q52 0 77.5 26t25.5 70q0 37 -23 62.5t-65 32.5v77q58 -5 98.5 -28.5t61 -58.5t20.5 -75q0 -53 -23.5 -89.5t-65.5 -51.5v-4
q56 -26 89.5 -78t33.5 -129q0 -63 -32 -115t-88.5 -81.5t-126.5 -29.5q-71 0 -128 26.5t-89 74t-32 106.5q0 56 18 96z" />
    <glyph glyph-name="uni10DA" unicode="&#x10da;" horiz-adv-x="1045" 
d="M67 603q25 61 70.5 94.5t103.5 33.5q46 0 84.5 -27t54.5 -74h4q10 31 32 54t50.5 35t56.5 12q31 0 60 -12t50.5 -35t30.5 -54h4q19 48 55 74.5t85 26.5q58 0 102.5 -34.5t68.5 -95t24 -135.5q0 -121 -40 -210h-96q42 96 42 206q0 59 -12.5 101.5t-36 65t-54.5 22.5
q-28 0 -49.5 -15t-33 -41.5t-11.5 -60.5v-186h-94v186q0 36 -12 62t-33.5 40.5t-49.5 14.5t-49.5 -15t-33.5 -42t-12 -60v-186h-94v186q0 54 -24.5 85.5t-65.5 31.5q-32 0 -56.5 -22t-37.5 -63t-13 -96q0 -78 39 -139t97 -97t115 -42q8 -1 19.5 -2t27.5 -2
q58 -4 105.5 -10.5t90.5 -19.5q67 -21 102 -63.5t39 -94.5h-94q-11 57 -80.5 82.5t-166.5 25.5h-296v72h100v4q-51 20 -95 58.5t-71 95t-27 124.5q0 80 25 141z" />
    <glyph glyph-name="uni10DB" unicode="&#x10db;" horiz-adv-x="608" 
d="M74 370q31 56 84 87t114 31q56 0 105.5 -23.5t73.5 -61.5h2v100q0 79 -43 113.5t-112 34.5q-53 0 -88.5 -26t-43.5 -68h-97q2 44 32 84.5t82 65t115 24.5q73 0 129.5 -24.5t88.5 -74t32 -121.5v-271q0 -79 -33 -137t-91 -89t-130 -31q-69 0 -126.5 31t-91.5 89t-34 137
q0 73 32 130zM137 235q0 -52 20.5 -91t56 -60t80.5 -21q46 0 83 21t58 60t21 91t-20.5 91.5t-57.5 60.5t-84 21t-82.5 -21t-55 -60.5t-19.5 -91.5z" />
    <glyph glyph-name="uni10DC" unicode="&#x10dc;" horiz-adv-x="608" 
d="M60 533q0 93 53 137t156 44h230v-81h-226q-118 0 -118 -105v-125h2q24 38 73.5 61.5t105.5 23.5q61 0 114 -31t84.5 -87.5t31.5 -129.5q0 -79 -34 -137t-91.5 -89t-126.5 -31q-72 0 -130 31t-91 89t-33 137v293zM173 144q21 -39 58 -60t83 -21q45 0 80.5 21t56 60
t20.5 91t-19.5 91.5t-55 60.5t-82.5 21t-84 -21t-57.5 -60.5t-20.5 -91.5t21 -91z" />
    <glyph glyph-name="uni10DD" unicode="&#x10dd;" horiz-adv-x="829" 
d="M55 342v131q0 79 26 137.5t72 89.5t105 31q55 0 96.5 -26t57.5 -77h3q11 34 35.5 57t56.5 34.5t65 11.5q61 0 106.5 -30.5t70.5 -89t25 -138.5v-131q0 -99 -21.5 -192.5t-58.5 -149.5h-98q37 57 60 152.5t23 189.5v123q0 93 -31.5 139.5t-84.5 46.5q-28 0 -51 -15
t-36.5 -43.5t-13.5 -68.5v-319h-95v319q0 40 -13.5 69t-36 43.5t-50.5 14.5q-35 0 -61 -21t-41 -62.5t-15 -102.5v-123q0 -59 10.5 -124.5t29 -123t41.5 -94.5h-97q-35 55 -57 149t-22 193z" />
    <glyph glyph-name="uni10DE" unicode="&#x10de;" horiz-adv-x="554" 
d="M45 255h91q-6 -17 -8.5 -32t-2.5 -36q0 -34 19.5 -62.5t53 -45t75.5 -16.5q40 0 73 17.5t52 47.5t19 66q0 39 -17 70t-48 49t-74 18h-47v79h71q42 0 65 19t23 48q0 24 -11.5 40.5t-28.5 27.5t-45 24q-42 19 -67 34.5t-43.5 42.5t-18.5 68h95q3 -30 25.5 -50t62.5 -40
q38 -18 64 -35t43.5 -43t17.5 -63q0 -38 -23 -68t-67 -44v-4q30 -8 56.5 -30t44 -59.5t17.5 -88.5q0 -57 -31.5 -104t-86.5 -74.5t-121 -27.5q-65 0 -120.5 26t-89 71t-33.5 97q0 42 15 78z" />
    <glyph glyph-name="uni10DF" unicode="&#x10df;" horiz-adv-x="588" 
d="M38 196q0 15 3 31.5t9 29.5h91q-8 -30 -8 -58q0 -35 19 -66.5t52.5 -50.5t75.5 -19q43 0 76.5 20t52.5 56.5t19 85.5v423l-193 -29v-3q33 -15 49.5 -46t16.5 -65q0 -38 -19 -69.5t-56 -50.5t-90 -19h-90v74h72q44 0 71.5 21.5t27.5 60.5q0 25 -15 44.5t-38.5 29.5
t-50.5 10v68l306 48h104v-504q0 -75 -31.5 -128t-86.5 -80t-125 -27t-125 27.5t-86 76t-31 109.5z" />
    <glyph glyph-name="uni10E0" unicode="&#x10e0;" horiz-adv-x="762" 
d="M42 293q0 117 34 192.5t95.5 117t150.5 58.5l102 20q24 5 39 12.5t21 20.5h95q-5 -33 -22 -54.5t-49.5 -35.5t-84.5 -23l-90 -16q-84 -16 -140.5 -57.5t-72.5 -120.5h2q11 26 32.5 44t47.5 27t51 9q45 0 76.5 -24.5t49.5 -71.5h3q18 45 57 70.5t86 25.5q55 0 99.5 -30.5
t70 -85t25.5 -124.5q0 -73 -16.5 -133t-51.5 -114h-98q36 55 53.5 115t17.5 128q0 55 -14 92t-38 54.5t-55 17.5q-26 0 -46.5 -14t-32 -39.5t-11.5 -59.5v-162h-94v162q0 53 -24 83t-63 30q-29 0 -54 -16t-40.5 -52.5t-15.5 -94.5q0 -66 18 -128t52 -116h-97q-24 41 -39 81
t-22 91t-7 121z" />
    <glyph glyph-name="uni10E1" unicode="&#x10e1;" horiz-adv-x="591" 
d="M160 714v-487q0 -51 19.5 -88t53 -56.5t75.5 -19.5t75 17t52 47t19 67q0 38 -11.5 64.5t-32.5 53.5q-6 7 -27 32.5t-33 56.5t-13 70h91q2 -29 13 -50t24.5 -38.5t17.5 -22.5q22 -28 35 -49t22 -53t9 -76q0 -60 -33.5 -105t-89 -69.5t-118.5 -24.5q-68 0 -123 27.5
t-87.5 81t-32.5 127.5v495h95z" />
    <glyph glyph-name="uni10E2" unicode="&#x10e2;" horiz-adv-x="729" 
d="M42 344q0 106 38 184t101.5 122t141.5 55h7q-5 18 -5 37h78q0 -9 -1.5 -20.5t-1.5 -16.5h6q78 -10 141.5 -54t101.5 -122.5t38 -184.5q0 -115 -43 -196.5t-116.5 -123t-162.5 -41.5q-90 0 -163.5 41.5t-116.5 123t-43 196.5zM137 344q0 -86 29 -149.5t80.5 -97.5
t118.5 -34q68 0 119 33.5t79.5 97t28.5 150.5q0 82 -23.5 142.5t-65 96.5t-95.5 47l-7 4q5 -27 7.5 -62t2.5 -66v-201h-93v202q0 30 3 65t8 62l-7 -3q-55 -12 -96.5 -48t-65 -96.5t-23.5 -142.5z" />
    <glyph glyph-name="uni10E3" unicode="&#x10e3;" horiz-adv-x="616" 
d="M97 726q115 0 141 -82h4q18 43 55.5 65t89.5 22q51 0 90.5 -21.5t61.5 -62.5t22 -96v-333q0 -68 -32.5 -121.5t-89.5 -83.5t-127 -30q-72 0 -130 27.5t-91.5 76t-33.5 108.5q0 47 19 94h90q-7 -19 -10.5 -43.5t-3.5 -45.5q0 -40 20.5 -71t57 -48.5t82.5 -17.5q44 0 79 19
t55 55.5t20 87.5v315q0 50 -24 80.5t-66 30.5q-41 0 -64 -29.5t-23 -76.5v-103h-94v114q0 39 -23.5 63t-67.5 24h-62v83h55z" />
    <glyph glyph-name="uni10E4" unicode="&#x10e4;" horiz-adv-x="818" 
d="M62 622q27 52 74.5 80.5t108.5 28.5t104 -24t68 -79h4q18 49 61.5 76t98.5 27q57 0 101 -27t69 -75.5t25 -108.5q0 -70 -28.5 -114t-80.5 -67v-4q42 -23 64.5 -61t22.5 -98q0 -57 -37 -100.5t-103 -68t-148 -24.5t-144.5 20.5t-99.5 61.5t-42 102h95q12 -59 64 -81.5
t127 -22.5q47 0 91 12.5t73 41t29 72.5q0 51 -26.5 82.5t-78.5 31.5h-29v79h50q55 1 80.5 34t25.5 96q0 67 -28.5 103.5t-81.5 36.5q-47 0 -75 -30t-28 -82v-40q0 -69 -26.5 -121t-75.5 -80.5t-114 -28.5t-114.5 28.5t-76 80.5t-26.5 121t27 122zM123 500q0 -45 15 -80
t44 -54.5t69 -19.5q41 0 70 19.5t44 54.5t15 80q0 47 -15.5 82t-44.5 54t-68 19q-40 0 -69 -19.5t-44.5 -54.5t-15.5 -81z" />
    <glyph glyph-name="uni10E5" unicode="&#x10e5;" horiz-adv-x="582" 
d="M35 194q0 29 12 62h88q-6 -25 -6 -52q0 -42 18 -74t50 -49.5t75 -17.5q47 0 81.5 19.5t52.5 56t18 85.5v143q0 50 -19 85.5t-52 54t-74 18.5q-38 0 -65 -15.5t-41 -41t-14 -54.5q0 -16 4 -34h-93q-6 18 -6 45q0 48 24 89t67 65.5t99 24.5q58 0 101 -23t65 -59h2v192h95
v-497q0 -76 -31 -128.5t-86.5 -79t-127.5 -26.5q-68 0 -122 26t-84.5 74t-30.5 111z" />
    <glyph glyph-name="uni10E6" unicode="&#x10e6;" horiz-adv-x="781" 
d="M40 466q0 79 25.5 139t70.5 93t103 33q54 0 93.5 -26t56.5 -77h4q20 51 60 77t91 26q58 0 102.5 -33t69.5 -91.5t25 -134.5q0 -117 -41 -211h-98q22 45 33 98.5t11 108.5q0 90 -30.5 136.5t-84.5 46.5q-27 0 -48.5 -14t-33.5 -40t-12 -61v-191h-93v191q0 37 -12 62.5
t-33 39t-48 13.5q-55 0 -85.5 -48.5t-30.5 -136.5q0 -81 37 -141.5t93 -96.5t114 -49q94 -20 141 -63.5t50 -115.5h-93q-2 32 -24 55.5t-62 36.5t-95 13h-164v72h95v4q-53 20 -95 59t-67 96.5t-25 129.5z" />
    <glyph glyph-name="uni10E7" unicode="&#x10e7;" horiz-adv-x="600" 
d="M42 527q0 57 15.5 105t37.5 82h88q-19 -35 -32.5 -81.5t-13.5 -92.5q0 -51 20 -86.5t54.5 -53t78.5 -17.5t79.5 22t56 62t20.5 91v156h89v-503q0 -68 -32 -120t-87.5 -80t-125.5 -28q-58 0 -113.5 20t-91 61t-35.5 100q0 27 10 55h87q-5 -22 -5 -37q0 -38 20 -65
t54 -40.5t74 -13.5q46 0 80 19.5t52 55.5t18 85v159h-2q-12 -22 -37.5 -39t-60 -27t-73.5 -10q-59 0 -111 28t-83 78.5t-31 114.5z" />
    <glyph glyph-name="uni10E8" unicode="&#x10e8;" horiz-adv-x="608" 
d="M74 361q31 55 84 86t114 31q56 0 105.5 -23.5t73.5 -61.5h2v146q0 53 -21.5 83.5t-62.5 30.5q-24 0 -42 -11t-27.5 -29.5t-9.5 -38.5v-27h-95v27q0 32 -20.5 51.5t-60.5 19.5h-60v80h70q42 0 73 -18t43 -59h4q18 42 54 62.5t83 20.5q76 0 121.5 -45.5t45.5 -137.5v-313
q0 -77 -33.5 -134t-91 -87.5t-129.5 -30.5q-69 0 -126.5 30.5t-91.5 88t-34 133.5q0 70 32 126zM158 143q20 -38 55.5 -59t80.5 -21q46 0 83 21t58 58.5t21 87.5t-21 88t-57.5 59t-83.5 21t-82.5 -21t-55 -59t-19.5 -88t21 -87z" />
    <glyph glyph-name="uni10E9" unicode="&#x10e9;" horiz-adv-x="595" 
d="M60 0v543q0 56 28 99t74.5 66t99.5 23q59 0 106 -25t74 -68.5t27 -95.5h-93q0 27 -13.5 52t-39 41t-58.5 16q-30 0 -55.5 -14.5t-40.5 -41t-15 -61.5v-134h2q28 37 71 61t103 24t111 -29.5t81.5 -85.5t30.5 -132q0 -73 -17 -133t-44 -105h-95q31 61 46 113t15 121
q0 54 -20 92.5t-54.5 58t-77.5 19.5t-78 -21t-55.5 -60.5t-20.5 -92.5v-230h-92z" />
    <glyph glyph-name="uni10EA" unicode="&#x10ea;" horiz-adv-x="654" 
d="M42 376q0 95 31.5 183.5t81.5 154.5h91q-49 -71 -79 -157t-30 -181q0 -105 29.5 -175t78.5 -104t107 -34q47 0 84.5 18t59 51t21.5 74q0 43 -17 76.5t-47 52t-69 18.5h-61v79h75q47 0 71.5 20.5t24.5 58.5q0 29 -14 48t-41 41q-22 19 -34.5 32t-22 33.5t-10.5 48.5h87
q4 -24 18.5 -42t41.5 -41q23 -19 36.5 -34t23 -36.5t9.5 -49.5q0 -39 -23 -69.5t-69 -47.5v-4q30 -11 56.5 -36.5t43 -65t16.5 -89.5q0 -58 -32.5 -107.5t-91.5 -79t-136 -29.5q-88 0 -158 44.5t-111 133t-41 215.5z" />
    <glyph glyph-name="uni10EB" unicode="&#x10eb;" horiz-adv-x="613" 
d="M42 240q0 73 31.5 129.5t84.5 87.5t114 31q56 0 105.5 -23.5t73.5 -61.5h2v311h95v-474q0 -79 -33 -137t-91 -89t-130 -31q-69 0 -126.5 31t-91.5 89t-34 137zM158 144q20 -39 55.5 -60t80.5 -21q46 0 83 21t58 60t21 91t-20.5 91.5t-57.5 60.5t-84 21t-82.5 -21
t-55 -60.5t-19.5 -91.5t21 -91z" />
    <glyph glyph-name="uni10EC" unicode="&#x10ec;" horiz-adv-x="613" 
d="M65 235v313q0 92 45.5 137.5t121.5 45.5q47 0 83 -20.5t54 -62.5h4q12 41 43 59t73 18h70v-80h-60q-40 0 -60.5 -19.5t-20.5 -51.5v-27h-95v27q0 20 -9.5 38.5t-27.5 29.5t-42 11q-41 0 -62.5 -30.5t-21.5 -83.5v-146h2q24 38 73.5 61.5t105.5 23.5q61 0 114 -31
t84.5 -86.5t31.5 -125.5q0 -76 -34 -133.5t-91.5 -88t-126.5 -30.5q-72 0 -129.5 30.5t-91 87.5t-33.5 134zM178 143q21 -38 58 -59t83 -21q45 0 80.5 21t56 58.5t20.5 87.5t-19.5 88t-55 59t-82.5 21t-83.5 -21t-57.5 -59t-21 -88t21 -87z" />
    <glyph glyph-name="uni10ED" unicode="&#x10ed;" horiz-adv-x="639" 
d="M42 190q0 13 2.5 26.5t7.5 24.5h90q-3 -9 -4.5 -21.5t-1.5 -22.5q0 -40 19 -70.5t52.5 -47t75.5 -16.5q44 0 77.5 17.5t52 51t18.5 80.5v177h-2q-10 -19 -36.5 -37.5t-63.5 -30t-78 -11.5q-47 0 -91.5 17t-73 51.5t-28.5 83.5q0 51 27.5 86.5t72.5 53t99 17.5h174v95h95
v-95h98v-74h-98v-322q0 -78 -31 -132t-86 -81t-126 -27q-69 0 -123.5 25t-86 72t-31.5 110zM167 424q16 -19 43.5 -29t61.5 -10q38 0 75 14.5t60.5 42t23.5 63.5v40h-163q-54 0 -86 -19.5t-32 -58.5q0 -25 17 -43z" />
    <glyph glyph-name="uni10EE" unicode="&#x10ee;" horiz-adv-x="613" 
d="M65 240v474h95v-311h2q24 38 73.5 61.5t105.5 23.5q61 0 114 -31t84.5 -87.5t31.5 -129.5q0 -79 -34 -137t-91.5 -89t-126.5 -31q-72 0 -130 31t-91 89t-33 137zM178 144q21 -39 58 -60t83 -21q45 0 80.5 21t56 60t20.5 91t-19.5 91.5t-55 60.5t-82.5 21t-84 -21
t-57.5 -60.5t-20.5 -91.5t21 -91z" />
    <glyph glyph-name="uni10EF" unicode="&#x10ef;" horiz-adv-x="573" 
d="M35 190q0 34 12 70h89q-7 -31 -7 -60q0 -40 20.5 -71.5t55.5 -48.5t79 -17q43 0 77 16.5t53.5 49t19.5 78.5q0 47 -19 82t-52.5 53.5t-75.5 18.5h-56v184h-187v74h187v104h90v-104h187v-74h-187v-106q59 -7 106 -35t75.5 -79t28.5 -123q0 -63 -32 -113t-88.5 -78
t-126.5 -28q-71 0 -128 26.5t-89 74t-32 106.5z" />
    <glyph glyph-name="uni10F0" unicode="&#x10f0;" horiz-adv-x="572" 
d="M30 147q0 25 10 52h87q-5 -20 -5 -34q0 -35 23 -58t59.5 -33.5t79.5 -10.5t78 11.5t55 32.5t20 49q0 46 -29.5 70.5t-88.5 24.5h-97v73h108q44 0 66.5 12.5t22.5 41.5t-24 43.5t-65 14.5h-108v73h112q38 0 55.5 11t17.5 32q0 22 -22.5 34t-68.5 23q-40 9 -65 19.5t-43 31
t-22 54.5h82q7 -15 30.5 -25t74.5 -24q44 -12 68.5 -22.5t42 -31.5t17.5 -56q0 -62 -81 -80v-4q24 -4 45.5 -16t35 -31.5t13.5 -45.5q0 -37 -21.5 -58t-63.5 -31v-3q44 -12 73.5 -43t29.5 -88q0 -52 -34.5 -91t-92.5 -60t-125 -21q-63 0 -120.5 19t-93.5 56.5t-36 88.5z" />
    <glyph glyph-name="uni10F1" unicode="&#x10f1;" horiz-adv-x="641" 
d="M64 548q25 88 73 166h92q-46 -79 -71 -167.5t-25 -174.5q0 -104 30 -173.5t80 -102.5t112 -33q42 0 76.5 10.5t54.5 31.5t20 50q0 44 -29.5 68.5t-82.5 24.5h-75v76h88q41 0 60.5 12.5t19.5 39.5q0 28 -20.5 43t-59.5 15h-88v76h91q39 0 53.5 12t14.5 34q0 19 -11 31.5
t-34 27.5q-18 12 -30 23t-21 30t-12 46h93q5 -19 16 -32.5t30 -28.5q21 -16 33 -27.5t21 -29.5t9 -43q0 -26 -19.5 -47.5t-63.5 -31.5v-4q39 -7 66 -30.5t27 -62.5q0 -38 -21 -58t-63 -31v-4q26 -7 49.5 -24.5t38.5 -46t15 -66.5q0 -49 -34 -86.5t-91 -57.5t-124 -20
q-89 0 -160 44t-112.5 132t-41.5 213q0 88 26 176z" />
    <glyph glyph-name="uni10F2" unicode="&#x10f2;" horiz-adv-x="596" 
d="M76 594q33 64 91.5 100.5t130.5 36.5t130.5 -36.5t92 -101t33.5 -143.5q0 -73 -24 -141t-67.5 -119.5t-99.5 -78.5v-3q33 -14 79 -21.5t85 -7.5v-79q-107 0 -229 61q-122 -61 -229 -61v79q38 0 84.5 7.5t79.5 21.5v3q-56 27 -99.5 78.5t-67.5 119.5t-24 141q0 79 34 144z
M179 272q42 -78 119 -124q77 46 119 124t42 169q0 59 -20 107t-56.5 75.5t-84.5 27.5t-84.5 -27.5t-56.5 -75.5t-20 -107q0 -91 42 -169z" />
    <glyph glyph-name="uni10F3" unicode="&#x10f3;" horiz-adv-x="572" 
d="M35 190q0 51 20 96h92q-8 -19 -12 -42t-4 -44q0 -38 20 -69.5t56 -49.5t81 -18q42 0 76 21.5t53.5 56t19.5 71.5q0 44 -16.5 79t-45.5 55t-66 20h-67v78h68q51 0 74 29t23 76v86h-315v79h410v-155q0 -58 -25 -97t-69 -55v-4q35 -13 63 -40.5t44.5 -68t16.5 -91.5
q0 -58 -31.5 -108.5t-87.5 -81t-125 -30.5q-71 0 -129 27.5t-91 75t-33 104.5z" />
    <glyph glyph-name="uni10F4" unicode="&#x10f4;" horiz-adv-x="571" 
d="M35 189q0 47 16 87h92q-6 -18 -9 -38.5t-3 -38.5q0 -37 20.5 -68t56.5 -49.5t80 -18.5q42 0 75.5 17.5t53 48t19.5 68.5q0 40 -17 70t-46.5 45.5t-66.5 15.5h-57v79h60q51 0 74.5 28.5t23.5 74.5v39h-145q-54 0 -93.5 19.5t-61 56.5t-21.5 89h94q0 -41 24 -64t81 -23h217
v-106q0 -59 -25.5 -98.5t-69.5 -54.5v-4q57 -14 90.5 -58t33.5 -119q0 -56 -31.5 -102.5t-87 -74t-124.5 -27.5q-71 0 -129 27t-91 74.5t-33 104.5z" />
    <glyph glyph-name="uni10F5" unicode="&#x10f5;" horiz-adv-x="613" 
d="M68 232q26 36 72.5 54.5t107.5 18.5h161v117h-161q-93 0 -145.5 39t-52.5 117q0 51 31.5 85.5t82.5 51t109 16.5q60 0 111.5 -18.5t84 -58t32.5 -98.5v-58h97v-76h-97v-117h97v-77h-97v-64q0 -59 -34 -100t-88 -61t-114 -20q-57 0 -108 18.5t-83 54.5t-32 87q0 52 26 89z
M156 98q19 -20 50 -29.5t65 -9.5q57 0 97.5 24.5t40.5 78.5v66h-159q-51 0 -82.5 -21.5t-31.5 -62.5q0 -27 20 -46zM142 577q0 -41 29.5 -60t81.5 -19h156v54q0 54 -39 79t-95 25q-34 0 -64.5 -8.5t-49.5 -26t-19 -44.5z" />
    <glyph glyph-name="uni10F6" unicode="&#x10f6;" horiz-adv-x="753" 
d="M42 458q0 82 39.5 137.5t105 84t147.5 34.5l-4 31h92l-2 -31q85 -6 150.5 -37.5t103 -87.5t37.5 -132q0 -121 -77.5 -183.5t-211.5 -72.5v-59q0 -74 -34 -107.5t-107 -34.5h-39v70h32q23 0 34.5 6.5t16.5 22.5t5 47v55q-135 11 -211.5 74.5t-76.5 182.5zM422 276
q93 6 143.5 47.5t50.5 133.5q0 88 -52.5 132.5t-141.5 50.5v-364zM188 325q50 -43 142 -49v364q-90 -6 -141.5 -51t-51.5 -131q0 -91 51 -133z" />
    <glyph glyph-name="uni10F7" unicode="&#x10f7;" horiz-adv-x="576" 
d="M35 200q0 75 30 123.5t71.5 75t106.5 54.5q45 20 70 34.5t41.5 35t16.5 49.5q0 39 -24.5 61t-64.5 22t-65.5 -25.5t-25.5 -72.5h-91q0 52 25 91.5t66.5 61t88.5 21.5q50 0 91.5 -21t65.5 -56t24 -75q0 -53 -22.5 -87.5t-54.5 -54.5t-87 -45t-88 -45.5t-56 -56t-23 -90.5
q0 -37 19 -68.5t54.5 -50t83.5 -18.5q49 0 85 19.5t55 51t19 66.5q0 28 -3.5 51t-13.5 52h92q8 -15 14 -44.5t6 -57.5q0 -65 -33.5 -114.5t-91.5 -76.5t-130 -27q-68 0 -125 25t-91.5 74.5t-34.5 117.5z" />
    <glyph glyph-name="uni10F8" unicode="&#x10f8;" horiz-adv-x="595" 
d="M149 714v-156q0 -51 20.5 -91t56 -62t79.5 -22t78.5 17.5t54.5 53t20 86.5q0 46 -13.5 92.5t-32.5 81.5h88q22 -34 37.5 -82t15.5 -105q0 -64 -31 -114.5t-83 -78.5t-111 -28q-39 0 -73.5 10t-60 27t-37.5 39h-2v-159q0 -49 18 -85t52 -55.5t80 -19.5q40 0 74 13.5
t54 40.5t20 65q0 15 -5 37h87q10 -28 10 -55q0 -59 -35.5 -100t-91 -61t-113.5 -20q-70 0 -125.5 28t-87.5 80t-32 120v503h89z" />
    <glyph glyph-name="uni10F9" unicode="&#x10f9;" horiz-adv-x="576" 
d="M35 487q0 74 33.5 129.5t91.5 85t129 29.5q69 0 126.5 -29.5t91.5 -85t34 -129.5q0 -99 -52.5 -157.5t-138.5 -84.5q-77 -23 -106 -50.5t-29 -62.5q0 -19 11 -36t31 -27t44 -10q25 0 45.5 11.5t32.5 31.5t12 46h92q0 -50 -25 -87.5t-66.5 -57.5t-88.5 -20
q-49 0 -89.5 19.5t-64 53t-23.5 73.5q0 89 98 126v3q-59 9 -101.5 41.5t-65 81t-22.5 106.5zM148 394q21 -39 57.5 -59.5t83.5 -20.5q45 0 81 20.5t56 59.5t20 93q0 49 -20.5 86t-56 57.5t-80.5 20.5q-46 0 -83 -20.5t-58 -57.5t-21 -86q0 -54 21 -93z" />
    <glyph glyph-name="uni10FA" unicode="&#x10fa;" horiz-adv-x="585" 
d="M75 606q33 61 90 93t128 32q73 0 129.5 -32t88.5 -93t32 -146q0 -34 -8 -73t-17 -59h-93q24 63 24 132q0 57 -20 100.5t-55.5 67t-80.5 23.5q-46 0 -81.5 -23.5t-55 -67t-19.5 -100.5q0 -71 23.5 -118.5t57.5 -76t90 -62.5q50 -31 79 -54t49.5 -59.5t21.5 -89.5h-93
q-2 34 -14 56.5t-40.5 35t-79.5 12.5h-116v73h112v4q-80 37 -132.5 106.5t-52.5 172.5q0 84 33 146z" />
    <glyph glyph-name="uni10FB" unicode="&#x10fb;" horiz-adv-x="537" 
d="M363 204v111h111v-111h-111zM194 517v-111h-111v111h111zM83 0v111h111v-111h-111z" />
    <glyph glyph-name="uni10FC" unicode="&#x10fc;" horiz-adv-x="370" 
d="M91 793q31 26 98 26h112v-55h-105q-37 0 -54.5 -14.5t-17.5 -47.5v-70h2q13 25 33 38t52 13q35 0 62.5 -17.5t43 -50.5t15.5 -77q0 -45 -16 -79t-47 -52.5t-73 -18.5t-72.5 18.5t-47 52.5t-16.5 79v166q0 62 31 89zM124 535q0 -38 19.5 -63t52.5 -25t51.5 24.5t18.5 63.5
q0 41 -18 65.5t-51 24.5q-35 0 -54 -23.5t-19 -66.5z" />
    <glyph glyph-name="uni10FD" unicode="&#x10fd;" horiz-adv-x="644" 
d="M37 235h90q0 -54 26.5 -93t73.5 -59t108 -20q87 0 134 33.5t47 96.5q0 35 -18.5 59t-62 42t-120.5 33q-103 20 -158.5 46t-76.5 61t-21 88q0 64 33.5 111.5t92.5 72.5t133 25q79 0 138 -26.5t92 -77.5t33 -122h-90q-16 146 -177 146q-77 0 -118.5 -32t-41.5 -90
q0 -41 36 -69q17 -14 64 -28t129 -30q117 -24 172.5 -73t55.5 -133q0 -65 -38 -113.5t-101.5 -74t-139.5 -25.5q-86 0 -152.5 29t-104.5 86t-38 137z" />
    <glyph glyph-name="uni10FE" unicode="&#x10fe;" horiz-adv-x="596" 
d="M42 264q0 73 24 141t67.5 119.5t99.5 78.5v3q-33 14 -79.5 21.5t-84.5 7.5v79q107 0 229 -61q122 61 229 61v-79q-39 0 -85 -7.5t-79 -21.5v-3q56 -27 99.5 -78.5t67.5 -119.5t24 -141q0 -79 -33.5 -143.5t-92 -101t-130.5 -36.5t-130.5 36.5t-92 101t-33.5 143.5z
M137 273q0 -59 20 -107t56.5 -75.5t84.5 -27.5t84.5 27.5t56.5 75.5t20 107q0 91 -42 169t-119 124q-77 -46 -119 -124t-42 -169z" />
    <glyph glyph-name="uni10FF" unicode="&#x10ff;" horiz-adv-x="710" 
d="M42 357q0 105 38 190t109 134.5t166 49.5q94 0 165 -48t109.5 -133t38.5 -193t-39.5 -193t-110.5 -133t-163 -48q-94 0 -165 48.5t-109.5 133.5t-38.5 192zM163 209q24 -67 72.5 -107t119.5 -40q70 0 119 39t73.5 106t24.5 150q0 82 -24.5 149t-73.5 106.5t-120 39.5
q-70 0 -119 -39.5t-73 -106.5t-24 -149q0 -81 25 -148z" />
    <glyph glyph-name="endash" unicode="&#x2013;" horiz-adv-x="500" 
d="M500 238h-500v80h500v-80z" />
    <glyph glyph-name="emdash" unicode="&#x2014;" horiz-adv-x="1000" 
d="M870 238h-740v80h740v-80z" />
    <glyph glyph-name="quoteleft" unicode="&#x2018;" horiz-adv-x="278" 
d="M84 456v104q0 72 29 113t81 41v-50q-28 0 -43 -25.5t-15 -71.5h59v-111h-111z" />
    <glyph glyph-name="quoteright" unicode="&#x2019;" horiz-adv-x="278" 
d="M83 714h111v-115q0 -40 -12.5 -72.5t-37.5 -51.5t-60 -19v50q28 0 43 25.5t15 71.5h-59v111z" />
    <glyph glyph-name="quotesinglbase" unicode="&#x201a;" horiz-adv-x="278" 
d="M83 111h111v-114q0 -41 -12.5 -73.5t-37 -51.5t-60.5 -19v50q28 0 43 25.5t15 71.5h-59v111z" />
    <glyph glyph-name="quotedblleft" unicode="&#x201c;" horiz-adv-x="426" 
d="M66 456v106q0 70 29 111t81 41v-50q-27 0 -42 -26t-16 -71h59v-111h-111zM249 456v110q0 66 29 107t81 41v-50q-28 0 -43 -25t-15 -72h59v-111h-111z" />
    <glyph glyph-name="quotedblright" unicode="&#x201d;" horiz-adv-x="426" 
d="M66 603v111h111v-115q0 -63 -28.5 -103t-81.5 -40v50q28 0 43 25.5t15 71.5h-59zM360 714v-114q0 -40 -12 -73t-37 -52t-61 -19v50q28 0 43 25.5t15 71.5h-59v111h111z" />
    <glyph glyph-name="quotedblbase" unicode="&#x201e;" horiz-adv-x="426" 
d="M249 111h111v-110q0 -67 -28.5 -107.5t-81.5 -40.5v50q28 0 43 25.5t15 71.5h-59v111zM66 111h111v-110q0 -67 -29 -107.5t-81 -40.5v50q28 0 43 26t15 71h-59v111z" />
    <glyph glyph-name="dagger" unicode="&#x2020;" 
d="M236 517v197h80v-197h198v-75h-198v-597h-80v597h-194v75h194z" />
    <glyph glyph-name="daggerdbl" unicode="&#x2021;" 
d="M42 117h194v325h-194v75h194v197h80v-197h198v-75h-198v-325h198v-75h-198v-197h-80v197h-194v75z" />
    <glyph glyph-name="bullet" unicode="&#x2022;" horiz-adv-x="500" 
d="M72 357q0 74 51 125q50 53 127 53q75 0 127 -53q52 -51 52 -125q0 -47 -24 -88.5t-65 -66t-90 -24.5q-76 0 -127 53q-51 54 -51 126z" />
    <glyph glyph-name="ellipsis" unicode="&#x2026;" horiz-adv-x="1000" 
d="M777 111h111v-111h-111v111zM555 111v-111h-111v111h111zM111 111h111v-111h-111v111z" />
    <glyph glyph-name="perthousand" unicode="&#x2030;" horiz-adv-x="1148" 
d="M782 155q0 84 38 129t110 45q71 0 108.5 -43.5t37.5 -124.5q0 -50 -16.5 -89t-50 -61.5t-81.5 -22.5q-70 0 -108 42.5t-38 124.5zM437 155q0 83 37.5 128.5t110.5 45.5q71 0 108.5 -43.5t37.5 -124.5q0 -50 -17 -89.5t-50 -61.5t-81 -22q-70 0 -108 43t-38 124zM72 535
q0 84 38 129t110 45q71 0 108.5 -44t37.5 -125q0 -49 -16.5 -88t-49.5 -61.5t-82 -22.5q-71 0 -108.5 43.5t-37.5 123.5zM90 -22l538 744h85l-537 -744h-86zM512 158q0 -115 72 -115q35 0 53.5 29.5t18.5 84.5q0 54 -18 85.5t-51 31.5q-34 0 -54.5 -30t-20.5 -86zM875 71
q18 -28 54 -28q35 0 53.5 29.5t18.5 84.5q0 54 -17.5 85.5t-50.5 31.5q-36 0 -56 -31t-20 -85q0 -59 18 -87zM165 451q18 -28 54 -28q35 0 53.5 30t18.5 84t-17.5 85.5t-50.5 31.5q-36 0 -56 -31.5t-20 -84.5q0 -59 18 -87z" />
    <glyph glyph-name="guilsinglleft" unicode="&#x2039;" horiz-adv-x="259" 
d="M202 442v-86l-100 -78l100 -78v-86l-152 120v88z" />
    <glyph glyph-name="guilsinglright" unicode="&#x203a;" horiz-adv-x="259" 
d="M57 356v86l152 -120v-88l-152 -120v86l100 78z" />
    <glyph glyph-name="fraction" unicode="&#x2044;" horiz-adv-x="167" 
d="M-102 -28h-64l435 753h64z" />
    <glyph glyph-name="Euro" unicode="&#x20ac;" 
d="M13 389l26 61h54q16 86 55 147.5t97.5 94.5t131.5 33q90 0 181 -62l-46 -84q-71 69 -143 69q-68 0 -115 -53t-65 -145h283l-27 -61h-263q-1 -9 -1 -26q0 -18 1 -26h249l-26 -61h-218q33 -215 190 -215q30 0 52.5 5.5t46 21t55.5 45.5v-105q-68 -44 -154 -44
q-122 0 -194 73t-93 219h-77l28 61h45q-1 8 -1 26q0 17 1 26h-73z" />
    <glyph glyph-name="uni20BE" unicode="&#x20be;" horiz-adv-x="741" 
d="M82 507q27 67 78.5 117.5t120.5 70.5v102h55v-91q24 2 39 2t41 -2v91h55v-102q70 -21 121.5 -70.5t79 -119.5t27.5 -152h-95q0 104 -30.5 172.5t-102.5 96.5v-269h-55v280q-19 4 -41 4q-21 0 -39 -3v-281h-55v268q-72 -28 -102.5 -96t-30.5 -172q0 -77 29.5 -139.5
t86 -99t132.5 -36.5h227v-78h-518v75h109v4q-52 24 -88 70t-54 103.5t-18 115.5q0 71 28 139z" />
    <glyph glyph-name="uni2113" unicode="&#x2113;" horiz-adv-x="500" 
d="M158 287v263q0 49 16.5 88t46 61t66.5 22q31 0 56 -15.5t39.5 -44.5t14.5 -68q0 -71 -42.5 -150t-128.5 -168v-153q0 -39 20 -61.5t55 -22.5q22 0 44.5 9.5t43.5 28.5h2l24 -35q-59 -55 -130 -55q-38 0 -66.5 15t-44.5 43t-16 66v118l-58 -62h-2l-26 37zM226 335
q53 62 83.5 129t30.5 124q0 38 -15 61.5t-38 23.5q-18 0 -32 -14.5t-21.5 -40t-7.5 -57.5v-226z" />
    <glyph glyph-name="uni2116" unicode="&#x2116;" horiz-adv-x="1000" 
d="M178 697l320 -560h2v560h90v-697h-104l-317 554h-2v-554h-90v697h101zM670 353q18 32 51 50t78 18q69 0 108 -39t39 -108q0 -42 -17.5 -74t-51 -50t-78.5 -18t-78.5 17.5t-51 50.5t-17.5 79q0 42 18 74zM725 276q0 -43 19.5 -66t54.5 -23q74 0 74 90q0 42 -19.5 65.5
t-55.5 23.5q-35 0 -54 -22.5t-19 -67.5zM944 63v-63h-280v63h280z" />
    <glyph glyph-name="trademark" unicode="&#x2122;" horiz-adv-x="990" 
d="M579 714l123 -313l121 313h104v-412h-68v344h-2l-135 -344h-43l-135 344h-2v-344h-68v412h105zM390 714v-55h-129v-357h-68v357h-129v55h326z" />
    <glyph glyph-name="uni2126" unicode="&#x2126;" horiz-adv-x="759" 
d="M35 0v80h171v4q-82 57 -122.5 133t-40.5 174q0 145 95 243q96 97 244 97q147 0 240 -94q94 -94 94 -236q0 -200 -164 -317v-4h175v-80h-282v72q87 60 131.5 143t44.5 186q0 109 -66 179q-66 71 -173 71q-72 0 -127.5 -32t-86 -91t-30.5 -136q0 -100 44.5 -179t135.5 -141
v-72h-283z" />
    <glyph glyph-name="partialdiff" unicode="&#x2202;" horiz-adv-x="511" 
d="M59 323q25 49 70 76.5t103 27.5q46 0 87 -19t74 -56l1 46q0 75 -22 134t-61 92.5t-90 33.5q-28 0 -56 -11.5t-58 -35.5l-42 50q35 31 72.5 45.5t80.5 14.5q120 0 186 -98q65 -100 65 -262q0 -118 -26 -201.5t-78 -127.5t-128 -44q-89 0 -146 64q-58 65 -58 161
q0 61 26 110zM107 210q0 -44 17 -81.5t47 -59t68 -21.5q69 0 109 69q41 71 41 163q-32 41 -70.5 63t-78.5 22q-38 0 -68.5 -20t-47.5 -55.5t-17 -79.5z" />
    <glyph glyph-name="uni2206" unicode="&#x2206;" horiz-adv-x="648" 
d="M653 0h-657l276 714h105zM124 80h394l-193 549h-2z" />
    <glyph glyph-name="product" unicode="&#x220f;" horiz-adv-x="719" 
d="M68 -214v1000h582v-1000h-78v928h-426v-928h-78z" />
    <glyph glyph-name="summation" unicode="&#x2211;" horiz-adv-x="615" 
d="M577 714h-437l301 -424l-319 -432h467v-72h-564v64l322 440l-308 432v64h538v-72z" />
    <glyph glyph-name="minus" unicode="&#x2212;" horiz-adv-x="600" 
d="M552 219h-504v68h504v-68z" />
    <glyph glyph-name="uni2215" unicode="&#x2215;" horiz-adv-x="167" 
d="M-102 -28h-64l435 753h64z" />
    <glyph glyph-name="uni2219" unicode="&#x2219;" horiz-adv-x="278" 
d="M84 344q9 14 23.5 22.5t31.5 8.5q18 0 32.5 -9t23 -24t8.5 -31t-9 -31t-23.5 -24t-30.5 -9q-17 0 -32 8.5t-24 23.5t-9 32q0 18 9 33z" />
    <glyph glyph-name="radical" unicode="&#x221a;" horiz-adv-x="504" 
d="M303 -214h-75l-162 334l-47 -22l-28 60l112 52l151 -317l184 893h76z" />
    <glyph glyph-name="infinity" unicode="&#x221e;" horiz-adv-x="759" 
d="M42 252q0 44 18.5 80t52 56t74.5 20q31 0 59.5 -11t60.5 -35.5t73 -67.5q70 73 109 94q40 22 80 22q43 0 76.5 -20t52.5 -55t19 -80t-18.5 -80.5t-51.5 -56t-77 -20.5t-88.5 24.5t-101.5 84.5q-39 -37 -66.5 -58.5t-57.5 -35.5t-63 -14q-45 0 -79 19t-53 54t-19 80z
M423 251q36 -35 61.5 -53.5t46 -25t42.5 -6.5q36 0 57.5 24t21.5 62q0 41 -22 65.5t-61 24.5q-19 0 -37.5 -7t-44.5 -27t-64 -57zM130 190q22 -24 60 -24q31 0 68.5 21.5t78.5 63.5q-46 45 -83 67.5t-67 22.5q-23 0 -41.5 -12t-28.5 -32.5t-10 -44.5q0 -39 23 -62z" />
    <glyph glyph-name="integral" unicode="&#x222b;" horiz-adv-x="554" 
d="M110 -136q11 11 25 11q20 0 32 -21q6 -9 11 -15t9 -6q14 0 21.5 28.5t7.5 84.5l-1 37l-1 584q0 123 32 172q32 47 94 47q34 0 57 -15.5t23 -40.5q0 -17 -12 -27.5t-30 -10.5q-21 0 -41 31q-7 12 -15 12q-15 0 -23 -24t-8 -70l2 -86v-548q0 -117 -31 -168.5t-95 -51.5
q-28 0 -48.5 14.5t-20.5 37.5q0 15 12 25z" />
    <glyph glyph-name="approxequal" unicode="&#x2248;" horiz-adv-x="600" 
d="M76 379q35 38 91 38q54 0 140 -35q46 -18 76 -27t49 -9q29 0 47 19t24 56h65q-8 -65 -43.5 -104t-90.5 -39q-34 0 -77.5 13.5t-105.5 38.5q-50 19 -82 19q-29 0 -47.5 -19t-23.5 -56h-65q8 66 43 105zM33 84q8 65 43.5 104t90.5 39q52 0 141 -36q86 -35 124 -35
q29 0 47 19t24 56h65q-8 -66 -43.5 -104.5t-90.5 -38.5q-51 0 -141 36q-90 35 -124 35q-29 0 -47.5 -19t-23.5 -56h-65z" />
    <glyph glyph-name="notequal" unicode="&#x2260;" horiz-adv-x="600" 
d="M48 388h293l80 140l58 -32l-62 -108h135v-66h-174l-76 -138h250v-66h-289l-83 -146l-58 32l65 114h-139v66h178l76 138h-254v66z" />
    <glyph glyph-name="lessequal" unicode="&#x2264;" horiz-adv-x="600" 
d="M48 274v66l504 188v-71l-418 -150l416 -149h2v-72zM48 0v68h504v-68h-504z" />
    <glyph glyph-name="greaterequal" unicode="&#x2265;" horiz-adv-x="600" 
d="M47 157l419 150l-418 150v71l504 -188v-66l-505 -188v71zM48 0v68h504v-68h-504z" />
    <glyph glyph-name="fi" unicode="&#xfb01;" horiz-adv-x="518" 
d="M12 442v75h87v81q0 58 36.5 91t105.5 33q13 0 30 -2.5t26 -5.5v-74q-9 3 -23 5t-25 2q-34 0 -49.5 -14.5t-15.5 -41.5v-74h100v-75h-100v-442h-85v442h-87zM365 517h85v-517h-85v517zM365 714h85v-104h-85v104z" />
    <glyph glyph-name="fl" unicode="&#xfb02;" horiz-adv-x="518" 
d="M12 517h87v81q0 58 36.5 91t105.5 33q13 0 30 -2.5t26 -5.5v-74q-9 3 -23 5t-25 2q-34 0 -49.5 -14.5t-15.5 -41.5v-74h100v-75h-100v-442h-85v442h-87v75zM450 714v-714h-85v714h85z" />
    <glyph glyph-name="uniFEFF" unicode="&#xfeff;" horiz-adv-x="0" 
 />
    <glyph glyph-name="uni10D0.case" horiz-adv-x="518" 
d="M53 278h88q-13 -39 -13 -74q0 -40 14 -72t43.5 -50.5t71.5 -18.5t71 18.5t43.5 49t14.5 66.5t-13 64t-32.5 48t-51.5 47q-33 28 -51 47.5t-31 46.5t-13 62h92q3 -23 14.5 -42.5t27 -35t40.5 -36.5q35 -31 56.5 -55t36.5 -60t15 -85q0 -55 -26 -103t-75.5 -77.5
t-117.5 -29.5q-71 0 -120 27t-74 73.5t-25 105.5q0 42 15 84z" />
    <glyph glyph-name="uni10D1.case" horiz-adv-x="569" 
d="M42 251q0 70 25.5 126.5t74 91.5t116.5 41v40q0 22 -8 37t-19 23.5t-31 19.5q-24 14 -37.5 25t-23 34t-9.5 61h86q0 -21 7.5 -35t18.5 -23t30 -20q25 -15 40 -26.5t25.5 -32.5t10.5 -53v-55q56 -13 96.5 -48.5t61.5 -88t21 -117.5q0 -76 -29 -135.5t-84 -93.5t-130 -34
q-74 0 -129 33.5t-84 93t-29 136.5zM132 251q0 -50 17 -93t51.5 -69t83.5 -26t83.5 26.5t51.5 69.5t17 92q0 51 -17 93t-51 67.5t-84 25.5q-49 0 -83 -25.5t-51.5 -68t-17.5 -92.5z" />
    <glyph glyph-name="uni10D2.case" horiz-adv-x="527" 
d="M30 25q0 68 30 117t77 78t101 39q45 9 70.5 34t25.5 65q0 37 -22.5 59t-60.5 22q-39 0 -61.5 -24t-22.5 -70h-87q0 51 22.5 89t61 58t85.5 20q50 0 89 -20t60 -53.5t21 -73.5q0 -48 -23 -79.5t-64 -45.5v-4q49 -8 86.5 -37t58 -73.5t20.5 -100.5q0 -74 -30 -127.5
t-83.5 -81.5t-120.5 -28t-120 27.5t-83 81t-30 128.5zM120 25q0 -48 17 -85t49.5 -57.5t77.5 -20.5q44 0 76.5 20.5t49.5 57.5t17 85q0 49 -17 86t-49.5 57t-77.5 20q-44 0 -76 -20.5t-49.5 -57.5t-17.5 -85z" />
    <glyph glyph-name="uni10D3.case" horiz-adv-x="831" 
d="M42 256q0 79 23 137t65 88.5t100 30.5q56 0 95.5 -26.5t55.5 -80.5h4q25 54 72 80.5t111 26.5t114.5 -32.5t78.5 -90t28 -130.5q0 -72 -28 -129.5t-80 -90t-121 -32.5t-120.5 32t-79 89t-27.5 131v62q0 35 -11.5 61.5t-33.5 41.5t-51 15q-52 0 -78.5 -47t-26.5 -136
q0 -79 31 -138.5t81 -95.5t108 -49q100 -23 152 -62.5t53 -110.5h-87q-2 32 -26.5 55.5t-68 36.5t-100.5 13h-159v66h100v4q-54 17 -93.5 57t-60 97.5t-20.5 126.5zM421 259q0 -47 15.5 -88t47 -66t76.5 -25t76.5 25t47.5 66t16 88q0 49 -15.5 90t-47.5 65.5t-78 24.5
q-44 0 -75 -24t-47 -65t-16 -91z" />
    <glyph glyph-name="uni10D4.case" horiz-adv-x="539" 
d="M35 2q0 26 5.5 50t15.5 50h87q-8 -21 -13 -46t-5 -45q0 -68 34.5 -108t101.5 -40q70 0 103 43.5t33 132.5v229q0 77 -30 123t-95 46q-39 0 -67.5 -15t-43 -41.5t-14.5 -59.5q0 -31 4 -51h-88q-2 8 -4 23t-2 31q0 48 26.5 91.5t75.5 70t113 26.5q70 0 118 -32.5t71 -87.5
t23 -121v-240q0 -119 -58 -181t-165 -62q-72 0 -122.5 27t-77 75.5t-26.5 111.5z" />
    <glyph glyph-name="uni10D5.case" horiz-adv-x="534" 
d="M35 -7q0 25 5 48t15 49h87q-8 -21 -12.5 -44t-4.5 -43q0 -40 17.5 -72t50.5 -50t78 -18q42 0 73.5 18t48 49.5t16.5 71.5q0 45 -15.5 77t-44 48.5t-66.5 16.5h-48v74h48q51 0 77 29.5t26 75.5q0 30 -12 56t-38 42t-65 16q-63 0 -93.5 -33.5t-30.5 -86.5q0 -23 4 -36h-89
q-5 17 -5 40q0 52 25.5 95.5t74 69.5t114.5 26q65 0 111.5 -25.5t70.5 -66.5t24 -87q0 -58 -25 -96.5t-69 -53.5v-4q51 -17 83.5 -60.5t32.5 -118.5q0 -56 -27.5 -104.5t-79.5 -78t-121 -29.5q-71 0 -124.5 27.5t-82.5 74.5t-29 103z" />
    <glyph glyph-name="uni10D6.case" horiz-adv-x="621" 
d="M39 678q23 40 63 62t87 22q48 0 88 -21.5t63.5 -59.5t23.5 -84q0 -22 -8.5 -48t-24.5 -42v-3q76 0 132 -33t86 -91.5t30 -131.5q0 -75 -29 -134t-83.5 -92.5t-129.5 -33.5t-129.5 32.5t-83.5 91.5t-29 136q0 48 16 93t49 79v4q-40 3 -73 23.5t-52.5 57t-19.5 82.5
q0 51 24 91zM202 157q17 -43 51.5 -68.5t83.5 -25.5t83.5 25.5t51.5 68t17 91.5q0 51 -17 93t-52 67.5t-84 25.5q-47 0 -81.5 -25.5t-52 -68t-17.5 -92.5q0 -49 17 -91zM94 587q0 -31 11.5 -55.5t33.5 -39t50 -14.5t49.5 14.5t33.5 39.5t12 55t-11.5 54.5t-33 38.5t-50.5 14
q-28 0 -49.5 -14.5t-33.5 -39t-12 -53.5z" />
    <glyph glyph-name="uni10D7.case" horiz-adv-x="847" 
d="M70 385q27 59 78.5 93t119.5 34q63 0 108.5 -22.5t78.5 -79.5h3q25 56 64 79t93 23q57 0 100 -30.5t66.5 -88.5t23.5 -137q0 -75 -17 -137.5t-54 -118.5h-94q38 58 56.5 121t18.5 135q0 89 -27.5 136t-80.5 47q-46 0 -72 -32.5t-26 -90.5v-65q0 -77 -27 -136.5t-79.5 -93
t-127.5 -33.5q-74 0 -126.5 33t-79.5 92.5t-27 137.5q0 75 28 134zM132 251q0 -53 15.5 -95.5t48 -67.5t80.5 -25t80 25t47.5 67.5t15.5 95.5q0 85 -36.5 135.5t-107.5 50.5q-48 0 -80 -24t-47.5 -66t-15.5 -96z" />
    <glyph glyph-name="uni10D8.case" horiz-adv-x="538" 
d="M42 252q0 81 28 139.5t79.5 89.5t119.5 31t119.5 -31t79.5 -89.5t28 -139.5q0 -76 -17 -135t-49 -117h-89q32 62 48 120t16 132q0 81 -33.5 133t-102.5 52t-103 -52t-34 -133q0 -73 16 -131t48 -121h-89q-32 57 -48.5 116.5t-16.5 135.5z" />
    <glyph glyph-name="uni10D9.case" horiz-adv-x="522" 
d="M35 42q5 23 15 48h85q-7 -20 -11 -43t-4 -44q0 -40 17 -72t49 -50t77 -18q42 0 72.5 19t46 53t15.5 77q0 46 -15 80t-43.5 53t-67.5 19h-58v74h51q51 0 76 27t25 70q0 38 -21 65t-62 35v75q58 -5 97.5 -29t58 -59.5t18.5 -75.5q0 -53 -23 -88.5t-66 -51.5v-4
q54 -16 87 -65t33 -127q0 -61 -27 -111.5t-77.5 -80.5t-119.5 -30q-71 0 -124 27.5t-81 74.5t-28 103q0 26 5 49z" />
    <glyph glyph-name="uni10DA.case" horiz-adv-x="972" 
d="M44 256q0 122 45.5 189t132.5 67q48 0 82 -25.5t50 -77.5h4q13 52 47.5 77.5t81.5 25.5q51 0 81.5 -24.5t44.5 -78.5h4q16 51 53 77t83 26q58 0 97 -31.5t58.5 -88.5t19.5 -133q0 -62 -11.5 -115t-35.5 -101h-93q50 94 50 212q0 92 -23.5 137t-71.5 45q-39 0 -60.5 -32.5
t-21.5 -86.5v-181h-90v181q0 58 -20 88.5t-64 30.5t-64.5 -31.5t-20.5 -87.5v-181h-90v181q0 56 -21.5 87.5t-61.5 31.5q-50 0 -72.5 -45t-22.5 -136q0 -79 31.5 -136.5t81 -90.5t105.5 -43q22 -4 63 -9q8 -1 39.5 -5.5t56.5 -10t42 -11.5q130 -44 138 -150h-91
q-11 54 -74 81t-159 27h-235v66h94v4q-54 15 -95.5 55.5t-64 98t-22.5 124.5z" />
    <glyph glyph-name="uni10DB.case" horiz-adv-x="576" 
d="M42 252q0 76 29.5 134t80.5 90t114 32q56 0 96 -19.5t68 -58.5h2v99q0 49 -17 85t-48 54.5t-73 18.5q-40 0 -70.5 -13.5t-48 -38.5t-19.5 -57h-89q2 50 30 92t78.5 67t117.5 25q71 0 122 -28.5t77.5 -80.5t26.5 -122v-279q0 -79 -28.5 -138.5t-82 -92t-127.5 -32.5
t-128 32.5t-82.5 92t-28.5 138.5zM150 153q17 -42 50.5 -65.5t80.5 -23.5t82 24t53.5 65.5t18.5 93.5q0 90 -40.5 138t-114.5 48q-47 0 -80.5 -23.5t-50.5 -65t-17 -97.5q0 -53 18 -94z" />
    <glyph glyph-name="uni10DC.case" horiz-adv-x="577" 
d="M57 254v310q0 95 53 140.5t159 45.5h210v-74h-205q-66 0 -98 -25.5t-32 -87.5v-128h2q24 34 65 55t96 21q63 0 115 -31.5t82.5 -90t30.5 -135.5q0 -81 -28.5 -141t-82.5 -92.5t-128 -32.5q-75 0 -128.5 32.5t-82 92.5t-28.5 141zM160 153q18 -42 53.5 -66t82.5 -24
q46 0 79.5 24t51 66t17.5 96q0 56 -17 98t-50 65.5t-81 23.5q-74 0 -114.5 -48t-40.5 -139q0 -54 19 -96z" />
    <glyph glyph-name="uni10DD.case" horiz-adv-x="736" 
d="M64 395q21 56 62 86.5t99 30.5q53 0 86.5 -24.5t51.5 -77.5h4q18 52 55.5 77t87.5 25q58 0 99.5 -32t63 -89t21.5 -132q0 -76 -18 -140.5t-55 -118.5h-91q38 58 56.5 121t18.5 134q0 92 -28.5 137t-80.5 45q-40 0 -62.5 -32.5t-22.5 -86.5v-181h-89v181q0 56 -22 87.5
t-61 31.5q-53 0 -80.5 -45t-27.5 -136q0 -68 19 -133.5t55 -122.5h-90q-36 57 -54.5 121t-18.5 140q0 77 22 134z" />
    <glyph glyph-name="uni10DE.case" horiz-adv-x="534" 
d="M31 189q0 40 15 83h86q-11 -36 -11 -72q0 -38 17 -69.5t49.5 -49.5t77.5 -18q42 0 73 19t47.5 53t16.5 76q0 45 -16 79t-46 52.5t-71 18.5h-43v74h50q46 0 68.5 19.5t22.5 56.5q0 26 -12 44t-30.5 28.5t-48.5 23.5q-51 20 -83 52t-32 91h90q1 -23 12.5 -39.5t29.5 -28
t45 -24.5q39 -18 63 -33.5t41.5 -41t17.5 -62.5q0 -46 -19.5 -76t-64.5 -45v-3q49 -18 82.5 -65.5t33.5 -122.5q0 -60 -27.5 -110.5t-79 -80.5t-120.5 -30q-70 0 -123.5 28t-82 74t-28.5 99z" />
    <glyph glyph-name="uni10DF.case" horiz-adv-x="557" 
d="M40 170v68h71q38 0 62 19.5t24 55.5q0 24 -11.5 42t-31.5 27.5t-43 9.5v69l298 47h88v-469q0 -125 -57.5 -188t-165.5 -63q-72 0 -122.5 26t-77 74t-26.5 111q0 14 3 30.5t8 30.5h86q-3 -12 -5 -25.5t-2 -24.5q0 -69 34.5 -108t101.5 -39q68 0 102 46t34 126v407
l-203 -31v-4q35 -17 53.5 -46.5t18.5 -63.5q0 -36 -20 -65t-56 -45.5t-80 -16.5h-83z" />
    <glyph glyph-name="uni10E0.case" horiz-adv-x="739" 
d="M114 574q68 94 209 123l92 19q22 5 37 13.5t20 20.5h91q-5 -32 -21 -53t-47 -34.5t-81 -23.5l-81 -16q-83 -16 -137.5 -62t-75.5 -133h3q17 41 48 62.5t71 21.5q34 0 57 -10.5t39 -33t28 -59.5h4q18 52 55.5 77.5t87.5 25.5q58 0 99.5 -32t63 -89t21.5 -132
q0 -77 -17 -140t-53 -119h-94q38 58 56.5 121t18.5 134q0 92 -28.5 137t-80.5 45q-40 0 -62.5 -32.5t-22.5 -86.5v-181h-89v181q0 56 -22 87.5t-61 31.5q-50 0 -79 -44.5t-29 -136.5q0 -68 19 -133.5t55 -122.5h-93q-36 57 -53 128.5t-17 184.5q0 166 69 261z" />
    <glyph glyph-name="uni10E1.case" horiz-adv-x="552" 
d="M144 750v-520q0 -49 16 -87t47 -59t76 -21t76 19.5t46.5 51.5t15.5 71q0 41 -12.5 70t-36.5 58l-15 18q-21 24 -33 42t-21.5 44.5t-10.5 62.5h90q1 -26 9.5 -46.5t20 -35.5t32.5 -40q32 -38 50 -78.5t18 -103.5q0 -57 -29.5 -104.5t-82 -75.5t-117.5 -28q-71 0 -121.5 28
t-77.5 81.5t-27 127.5v525h87z" />
    <glyph glyph-name="uni10E2.case" horiz-adv-x="663" 
d="M42 147q0 99 30.5 177t86.5 126t130 58h7q-4 22 -5 49t-1 53h83q0 -26 -1 -53t-4 -49h6q75 -10 131 -57.5t86 -125.5t30 -178q0 -108 -36 -189.5t-101.5 -125.5t-151.5 -44q-87 0 -152.5 44t-101.5 125.5t-36 189.5zM155 -1q22 -63 67 -99t110 -36t110 35.5t67 99.5
t22 148q0 75 -18 137t-53.5 102.5t-85.5 51.5l-10 5q5 -31 8 -66.5t3 -62.5v-177h-86v177q0 30 3 65.5t8 63.5l-11 -4q-51 -11 -86 -52t-53 -103t-18 -137q0 -84 23 -148z" />
    <glyph glyph-name="uni10E3.case" horiz-adv-x="557" 
d="M24 430v77h42q36 0 60 -6.5t41.5 -23t30.5 -47.5h4q19 44 54.5 63t86.5 19q45 0 81 -20t57 -62t21 -104v-302q0 -71 -27 -124.5t-78 -82.5t-121 -29q-72 0 -125.5 26t-82 72.5t-28.5 106.5q0 51 21 99h87q-8 -20 -13 -44.5t-5 -44.5q0 -67 38.5 -103.5t107.5 -36.5
q42 0 73.5 20t48.5 56.5t17 84.5v302q0 54 -21 84t-63 30q-39 0 -59 -29.5t-20 -78.5v-87h-89v85q0 44 -23.5 72t-67.5 28h-48z" />
    <glyph glyph-name="uni10E4.case" horiz-adv-x="800" 
d="M68 403q26 52 73 80.5t108 28.5t106.5 -25.5t65.5 -76.5h3q15 52 54 77t95 25q57 0 98.5 -26.5t64 -72.5t22.5 -103q0 -68 -28 -113.5t-75 -63.5v-4q49 -24 69 -60.5t20 -89.5q0 -58 -31 -101t-92.5 -66.5t-151.5 -23.5q-116 0 -185 43t-75 132h91q12 -57 56.5 -78
t116.5 -21q79 0 129.5 27.5t50.5 94.5q0 50 -25.5 81.5t-77.5 31.5h-18v74h30q55 1 80 33.5t25 94.5q0 64 -26 101t-76 37q-45 0 -70.5 -29.5t-25.5 -80.5v-47q0 -70 -26 -122t-74 -80t-113 -28t-113.5 28.5t-74.5 80.5t-26 121t26 121zM141 201q14 -37 43.5 -58t71.5 -21
q43 0 72 21t43.5 57t14.5 82q0 72 -33.5 115.5t-95.5 43.5q-43 0 -72.5 -20.5t-44 -56.5t-14.5 -82q0 -45 15 -81z" />
    <glyph glyph-name="uni10E5.case" horiz-adv-x="535" 
d="M29 2q0 52 21 100h87q-8 -21 -13 -45.5t-5 -43.5q0 -69 34.5 -109.5t101.5 -40.5q68 0 102 45.5t34 125.5v237q0 47 -16 84t-46 58t-71 21q-59 0 -88 -32t-29 -83q0 -27 5 -49h-89q-6 28 -6 54q0 49 21.5 92t66 69.5t109.5 26.5q48 0 83.5 -20t57.5 -55h2v313h87v-707
q0 -125 -58 -190t-165 -65q-72 0 -122.5 27t-77 75.5t-26.5 111.5z" />
    <glyph glyph-name="uni10E6.case" horiz-adv-x="736" 
d="M64 394q21 57 62 87.5t99 30.5q53 0 86.5 -24.5t51.5 -78.5h4q18 52 55.5 77.5t87.5 25.5q58 0 99.5 -32t63 -89t21.5 -132q0 -63 -11 -115.5t-35 -100.5h-94q50 97 50 212q0 90 -27.5 136t-79.5 46q-40 0 -63 -33t-23 -86v-181h-89v181q0 56 -22.5 87.5t-62.5 31.5
q-53 0 -79.5 -47t-26.5 -134q0 -79 31 -138.5t81 -95.5t108 -49q98 -22 148 -62.5t51 -110.5h-88q-1 32 -24 55.5t-65 36.5t-99 13h-159v66h100v4q-54 17 -93 57t-59.5 97.5t-20.5 126.5q0 80 22 138z" />
    <glyph glyph-name="uni10E7.case" horiz-adv-x="551" 
d="M58 426q16 48 36 74h84q-19 -35 -32 -81t-13 -91q0 -78 33.5 -119.5t100.5 -41.5q72 0 107 48.5t35 141.5v143h87v-482q0 -115 -59 -172.5t-167 -57.5q-61 0 -111 19t-80.5 59.5t-30.5 100.5q0 22 8 48h84q-5 -22 -5 -38q0 -56 34 -85t101 -29q136 0 136 151v151h-2
q-23 -30 -47 -45t-50.5 -20.5t-63.5 -5.5q-60 0 -105 27t-70.5 80.5t-25.5 130.5q0 45 16 94z" />
    <glyph glyph-name="uni10E8.case" horiz-adv-x="580" 
d="M72 386q29 57 80.5 87.5t114.5 30.5q55 0 93.5 -18.5t70.5 -56.5h2v150q0 53 -21.5 82t-60.5 29q-38 0 -59.5 -22t-21.5 -55v-34h-89v36q0 35 -22.5 53.5t-62.5 18.5q-12 0 -28 -2t-25 -5v74q9 3 27 5.5t31 2.5q51 0 81.5 -21.5t43.5 -60.5h4q17 41 52 61.5t84 20.5
q45 0 80.5 -21t56 -63.5t20.5 -104.5v-322q0 -81 -29 -140t-83.5 -91t-128.5 -32q-75 0 -129 32t-82.5 91t-28.5 140q0 77 30 135zM133 246q0 -54 17.5 -95.5t51 -64.5t80.5 -23q48 0 82.5 23t53 64.5t18.5 95.5q0 88 -41 135.5t-114 47.5q-48 0 -81 -23.5t-50 -65
t-17 -94.5z" />
    <glyph glyph-name="uni10E9.case" horiz-adv-x="566" 
d="M80 666q23 46 65.5 71t99.5 25q62 0 104.5 -25.5t63.5 -71t21 -103.5h-88q0 55 -24 89.5t-76 34.5q-32 0 -54.5 -17t-33.5 -45.5t-11 -63.5v-135h2q30 39 70 57.5t97 18.5q62 0 109 -30.5t73 -88.5t26 -139q0 -76 -15.5 -130.5t-47.5 -112.5h-91q22 44 35 77.5t21 74.5
t8 91q0 86 -37.5 134.5t-105.5 48.5q-70 -1 -108.5 -49.5t-38.5 -133.5v-243h-87v558q0 61 23 108z" />
    <glyph glyph-name="uni10EA.case" horiz-adv-x="588" 
d="M55 292q11 62 29.5 116.5t39.5 91.5h86q-32 -59 -54.5 -151.5t-22.5 -177.5q0 -308 185 -308q48 0 80.5 19t48.5 52t16 76t-16.5 75t-46.5 49t-69 17h-40v74h48q30 0 53 10.5t35.5 29t12.5 41.5q0 21 -7.5 36.5t-18.5 26t-29 24.5q-20 16 -32.5 28t-21.5 31.5t-10 47.5
h90q4 -23 16.5 -38.5t35.5 -33.5q22 -17 35 -30.5t22.5 -36t9.5 -54.5q0 -37 -23 -69t-69 -48v-4q30 -10 56 -33t42.5 -61t16.5 -89q0 -59 -28.5 -108t-82 -78t-124.5 -29q-133 0 -204 94.5t-71 288.5q0 58 12 121z" />
    <glyph glyph-name="uni10EB.case" horiz-adv-x="575" 
d="M42 253q0 77 29.5 136t80.5 91t114 32q56 0 95.5 -19.5t67.5 -56.5h2v314h87v-497q0 -81 -28 -140.5t-81 -92t-128 -32.5t-128.5 32.5t-82 92t-28.5 140.5zM132 248q0 -54 17.5 -96t51 -65.5t80.5 -23.5t81.5 23.5t53 65.5t18.5 96q0 91 -40 140t-113 49q-47 0 -81 -24
t-51 -66.5t-17 -98.5z" />
    <glyph glyph-name="uni10EC.case" horiz-adv-x="580" 
d="M57 251v322q0 62 20.5 104.5t56 63.5t80.5 21q49 0 84 -20.5t52 -61.5h4q13 39 43.5 60.5t81.5 21.5q13 0 31 -2.5t27 -5.5v-74q-9 3 -25 5t-28 2q-40 0 -62.5 -18.5t-22.5 -53.5v-36h-89v34q0 33 -21.5 55t-59.5 22q-39 0 -60.5 -29t-21.5 -82v-150h2q32 38 70.5 56.5
t93.5 18.5q63 0 114.5 -30.5t81 -88t29.5 -134.5q0 -81 -28.5 -140t-82.5 -91t-129 -32q-74 0 -128.5 32t-83.5 91t-29 140zM163 151q18 -42 52.5 -65t82.5 -23q47 0 80.5 23t51 64.5t17.5 95.5q0 53 -17 94.5t-50 65t-81 23.5q-73 0 -114 -47.5t-41 -135.5q0 -54 19 -95z
" />
    <glyph glyph-name="uni10ED.case" horiz-adv-x="602" 
d="M43 61h84q-4 -13 -6.5 -28t-2.5 -28q0 -64 34 -103t100 -39q69 0 103.5 46t34.5 126v195h-2q-19 -31 -59 -51t-88 -20q-49 0 -91.5 19t-68 57t-25.5 90q0 55 28.5 94.5t76.5 60t107 20.5h122v250h87v-250h110v-76h-110v-383q0 -125 -58.5 -189t-166.5 -64q-71 0 -121 26
t-75.5 73t-25.5 108q0 33 13 66zM142 325q0 -48 33.5 -70.5t86.5 -22.5q34 0 63.5 14t47 39.5t17.5 58.5v80h-116q-59 0 -95.5 -25t-36.5 -74z" />
    <glyph glyph-name="uni10EE.case" horiz-adv-x="575" 
d="M57 750h87v-314h2q28 37 67.5 56.5t95.5 19.5q63 0 114 -32t80.5 -91t29.5 -136q0 -81 -28.5 -140.5t-82 -92t-128.5 -32.5t-128 32.5t-81 92t-28 140.5v497zM160 152q18 -42 52.5 -65.5t81.5 -23.5t80.5 23.5t51 65.5t17.5 96q0 56 -17 98.5t-51 66.5t-81 24
q-73 0 -113 -49t-40 -140q0 -54 19 -96z" />
    <glyph glyph-name="uni10EF.case" horiz-adv-x="518" 
d="M208 401v111h87v-111h175v-69h-175v-98q60 -7 102.5 -37.5t64 -79t21.5 -109.5q0 -55 -26.5 -106t-77 -82.5t-118.5 -31.5q-70 0 -121 27.5t-77.5 75t-26.5 106.5q0 16 3.5 34t8.5 30h85q-3 -11 -5 -26t-2 -28q0 -67 34 -105.5t101 -38.5q45 0 74.5 21t43.5 54t14 70
q0 70 -34 114t-105 44h-46v166h-175v69h175z" />
    <glyph glyph-name="uni10F0.case" horiz-adv-x="530" 
d="M39 210h85q-6 -24 -6 -46q0 -48 38.5 -74.5t103.5 -26.5q67 0 102 25.5t35 76.5q0 49 -33 75.5t-89 26.5h-67v71h80q44 0 66.5 14t22.5 46t-23.5 48t-65.5 16h-80v71h83q40 0 57 12t17 35q0 26 -23.5 41t-64.5 25q-52 13 -85 39.5t-33 64.5h90q5 -13 18 -22.5t34 -17
t44 -14.5q44 -14 78.5 -43.5t34.5 -68.5q0 -32 -19.5 -53t-66.5 -32v-3q40 -8 68.5 -32.5t28.5 -65.5q0 -40 -21.5 -61t-66.5 -32v-4q27 -8 51.5 -26t40 -47t15.5 -67q0 -85 -60.5 -129t-167.5 -44q-72 0 -124 21t-79 59.5t-27 91.5q0 23 9 50z" />
    <glyph glyph-name="uni10F1.case" horiz-adv-x="593" 
d="M54 523q11 69 29.5 130t39.5 97h87q-20 -38 -38 -99.5t-28.5 -130t-10.5 -126.5q0 -158 49 -246t147 -88q64 0 97 26t33 78q0 49 -33 76t-89 27h-46v71h59q44 0 67 14t23 46t-24 48t-66 16h-59v71h63q76 0 76 47q0 17 -6.5 28.5t-16.5 19.5t-27 18q-20 13 -33 24.5
t-23.5 31t-12.5 48.5h90q5 -22 19 -37t37 -31q21 -14 33.5 -26t21 -30t8.5 -44q0 -27 -20 -50t-66 -33v-3q40 -8 69 -32.5t29 -65.5q0 -40 -22 -61t-66 -32v-4q44 -12 75.5 -48t31.5 -95q0 -53 -28 -91.5t-79 -59t-118 -20.5q-143 0 -213.5 106.5t-70.5 300.5q0 59 12 129z
" />
    <glyph glyph-name="uni10F2.case" horiz-adv-x="530" 
d="M65 403q26 49 77.5 79t122.5 30t122.5 -30t78 -79.5t26.5 -107.5q0 -52 -21.5 -97t-57.5 -74.5t-78 -38.5v-3q41 -8 76.5 -10.5t78.5 -2.5v-73q-68 0 -121.5 11.5t-103.5 32.5q-50 -21 -103.5 -32.5t-121.5 -11.5v73q43 0 78.5 2.5t76.5 10.5v3q-42 9 -78 38.5
t-57.5 74.5t-21.5 97q0 58 27 108zM143 221q15 -37 46 -68t76 -50q45 19 76 50t46 68t15 75t-16 70.5t-47 52.5t-74 20t-74 -20t-47 -52.5t-16 -70.5t15 -75z" />
    <glyph glyph-name="uni10F3.case" horiz-adv-x="543" 
d="M43 41q5 23 15 49h87q-8 -21 -12.5 -44t-4.5 -43q0 -40 17.5 -72.5t50.5 -51t78 -18.5q42 0 73 21t48 55.5t17 74.5q0 45 -17 79.5t-46.5 53.5t-66.5 19h-55v74h55q51 0 73.5 29t22.5 76v84h-281v73h372v-147q0 -58 -25 -96t-69 -54v-4q57 -21 92.5 -67t35.5 -122
q0 -57 -28 -108t-80 -82.5t-121 -31.5q-71 0 -124.5 27.5t-82.5 74.5t-29 103q0 25 5 48z" />
    <glyph glyph-name="uni10F4.case" horiz-adv-x="543" 
d="M38 -7q0 23 5 49t13 48h86q-7 -22 -11 -46t-4 -41q0 -40 17.5 -72.5t50.5 -51t78 -18.5q42 0 73.5 19.5t48 54t16.5 77.5q0 45 -16 79.5t-46.5 53.5t-70.5 19h-40v74h48q46 0 73.5 23t27.5 62v104h-120q-53 0 -97 18.5t-70.5 59.5t-26.5 105h90q0 -58 35 -84t99 -26h182
v-167q0 -47 -22 -79t-72 -51v-4q32 -11 58.5 -35t43 -63.5t16.5 -90.5q0 -61 -28 -111.5t-80.5 -80.5t-121.5 -30q-70 0 -123.5 27.5t-82.5 74.5t-29 103z" />
    <glyph glyph-name="uni10F5.case" horiz-adv-x="591" 
d="M42 154q0 80 58 121t155 41h124v131h-124q-97 0 -151 38.5t-54 118.5t55.5 119t147.5 39q61 0 109 -19t76 -59.5t28 -102.5v-63h110v-71h-110v-131h110v-71h-110v-69q0 -62 -28 -104t-76 -63t-109 -21q-59 0 -107 19t-76 56t-28 91zM128 155q0 -31 17 -52.5t45 -32.5
t62 -11q35 0 64 12.5t46 38.5t17 64v71h-129q-54 0 -88 -21.5t-34 -68.5zM136 603q0 -47 30 -66t84 -19h129v65q0 56 -35.5 82t-91.5 26q-53 0 -84.5 -21t-31.5 -67z" />
    <glyph glyph-name="uni10F6.case" horiz-adv-x="734" 
d="M81 397q39 57 102.5 86t137.5 31v93q0 74 34 108.5t106 34.5h41v-72h-33q-22 0 -34 -6t-17.5 -22t-5.5 -47v-89q78 -3 141.5 -34.5t101 -89.5t37.5 -134q0 -81 -36.5 -138t-100 -86t-144.5 -32v-64q0 -74 -33.5 -108t-105.5 -35h-41v73h33q22 0 34 6t17.5 22t5.5 46v60
q-82 4 -145 34t-98.5 86.5t-35.5 136.5q0 83 39 140zM506 93q43 19 69 60.5t26 102.5q0 58 -26.5 100t-70 63.5t-93.5 22.5v-369q52 0 95 20zM158 155q26 -41 69 -61t95 -20v368q-51 0 -94.5 -22t-69.5 -64t-26 -99q0 -61 26 -102z" />
    <glyph glyph-name="uni10F7.case" horiz-adv-x="518" 
d="M25 0q0 66 25 110t61.5 69.5t90.5 51.5q45 22 69.5 36.5t41.5 37t17 53.5q0 37 -23 60t-60 23q-39 0 -62 -25t-23 -71h-86q0 51 22.5 89t61 58t85.5 20q50 0 89 -20t60 -53.5t21 -73.5q0 -56 -23 -92.5t-55 -56.5t-89 -47q-41 -19 -69 -39t-45.5 -52t-17.5 -78
q0 -36 17.5 -68t50 -52t75.5 -20q44 0 77 20.5t50 54.5t17 75q0 28 -3.5 47.5t-12.5 42.5h88q7 -15 12.5 -37t5.5 -43q0 -72 -30 -124.5t-83 -80t-121 -27.5q-65 0 -118.5 26.5t-84.5 74.5t-31 111z" />
    <glyph glyph-name="uni10F8.case" 
d="M60 500h87v-143q0 -93 35 -141.5t107 -48.5q67 0 100.5 41.5t33.5 119.5q0 45 -13 91t-32 81h84q20 -26 36 -74.5t16 -93.5q0 -77 -25.5 -130.5t-70.5 -80.5t-105 -27q-37 0 -63.5 5.5t-50.5 20.5t-47 45h-2v-151q0 -151 136 -151q67 0 101 29t34 85q0 16 -5 38h84
q8 -26 8 -48q0 -60 -30.5 -100.5t-80.5 -59.5t-111 -19q-108 0 -167 57.5t-59 172.5v482z" />
    <glyph glyph-name="uni10F9.case" horiz-adv-x="527" 
d="M30 275q0 74 30 127.5t83.5 81.5t120.5 28t120 -27.5t83 -81t30 -128.5q0 -68 -30 -117t-77 -78t-101 -39q-45 -9 -70.5 -34t-25.5 -65q0 -37 22.5 -59t60.5 -22q39 0 61.5 24t22.5 70h87q0 -51 -22.5 -89t-61 -58t-85.5 -20q-50 0 -89 20t-60 53.5t-21 73.5
q0 48 23 79.5t64 45.5v4q-49 8 -86.5 37t-58 73.5t-20.5 100.5zM120 275q0 -49 17 -86t49.5 -57t77.5 -20q44 0 76 20.5t49.5 57.5t17.5 85t-17 85t-49.5 57.5t-77.5 20.5q-44 0 -76.5 -20.5t-49.5 -57.5t-17 -85z" />
    <glyph glyph-name="uni10FA.case" horiz-adv-x="518" 
d="M67 412q25 45 74.5 72.5t117.5 27.5q71 0 119.5 -27t73 -73.5t24.5 -103.5q0 -38 -12 -74h-85q10 36 10 63q0 41 -14.5 73.5t-44 51.5t-71.5 19t-71 -19t-43.5 -50t-14.5 -67q0 -65 40.5 -105.5t112.5 -63.5q59 -19 94 -49.5t41 -86.5h-87q-12 36 -46 50.5t-101 14.5h-96
v62h83v4q-64 23 -96.5 67t-32.5 114q0 54 25 100z" />
    <glyph glyph-name="uni10FD.case" horiz-adv-x="577" 
d="M130 242q1 -88 43 -134.5t125 -46.5q76 0 112.5 35t36.5 94q0 37 -15.5 65.5t-51.5 51t-97 41.5q-77 24 -125 53.5t-71 68t-23 88.5q0 65 28 111t78.5 69t115.5 23q113 0 172 -58t61 -167h-91q-3 75 -36 113t-108 38q-41 0 -70 -15.5t-44 -43.5t-15 -64q0 -47 37 -82.5
t123 -62.5q79 -25 127.5 -54.5t72 -69t23.5 -94.5q0 -65 -28 -113.5t-82 -74.5t-131 -26q-129 0 -192.5 65t-65.5 190h91z" />
    <glyph glyph-name="uni10FE.case" horiz-adv-x="538" 
d="M64 302q21 45 57 74.5t78 38.5v3q-41 8 -76.5 10.5t-78.5 2.5v73q68 0 121.5 -11.5t103.5 -32.5q50 21 103.5 32.5t121.5 11.5v-73q-43 0 -78.5 -2.5t-76.5 -10.5v-3q42 -9 78 -38.5t57.5 -74.5t21.5 -97q0 -58 -26.5 -107.5t-78 -79.5t-122.5 -30t-122.5 30t-78 79.5
t-26.5 107.5q0 52 22 97zM132 204q0 -38 16 -70.5t47 -52.5t74 -20t74 20t47 52.5t16 70.5t-15 75t-46 68t-76 50q-45 -19 -76 -50t-46 -68t-15 -75z" />
    <glyph glyph-name="uni10FF.case" horiz-adv-x="569" 
d="M42 250q0 75 29 134.5t83.5 93.5t129.5 34q74 0 129 -33.5t84.5 -93t29.5 -135.5t-29 -135.5t-84 -93t-130 -33.5q-74 0 -129 33t-84 92.5t-29 136.5zM149 157q17 -43 51.5 -69.5t83.5 -26.5t83.5 26.5t51.5 70t17 92.5q0 51 -17 94t-51.5 69t-84.5 26q-48 0 -82.5 -26.5
t-51.5 -69.5t-17 -93t17 -93z" />
    <glyph glyph-name="grave.cap" horiz-adv-x="222" 
d="M172 779h-64l-131 143h109z" />
    <glyph glyph-name="acute.cap" horiz-adv-x="222" 
d="M114 779h-64l86 143h109z" />
    <glyph glyph-name="circumflex.cap" horiz-adv-x="222" 
d="M64 922h93l104 -143h-84l-69 96l-70 -96h-77z" />
    <glyph glyph-name="caron.cap" horiz-adv-x="222" 
d="M-39 922h84l69 -96l70 96h77l-103 -143h-93z" />
    <glyph glyph-name="caron.alt" horiz-adv-x="222" 
d="M140 571h-60l26 143h109z" />
    <glyph glyph-name="tilde.cap" horiz-adv-x="222" 
d="M48 903q29 0 74 -20q43 -20 65 -20q16 0 27.5 10.5t18.5 33.5h52q-8 -50 -32.5 -80.5t-68.5 -30.5q-19 0 -38.5 6.5t-57.5 21.5q-25 11 -45 11q-17 0 -30 -11.5t-19 -30.5h-52q24 110 106 110z" />
    <glyph glyph-name="dieresis.cap" horiz-adv-x="222" 
d="M160 897h90v-104h-90v104zM-28 897h90v-104h-90v104z" />
    <glyph glyph-name="macron.cap" horiz-adv-x="222" 
d="M282 817h-341v55h341v-55z" />
    <glyph glyph-name="breve.cap" horiz-adv-x="222" 
d="M-45 919h50q24 -83 112 -83q24 0 41.5 7.5t31.5 25.5t26 50h51q-13 -67 -54.5 -102.5t-103.5 -35.5q-64 0 -104 34t-50 104z" />
    <glyph glyph-name="ring.cap" horiz-adv-x="222" 
d="M14 918q15 25 41 40t56 15t56 -14.5t41.5 -40.5t15.5 -57t-15 -56.5t-41 -40.5t-57 -15t-57 15t-41 40.5t-15 56.5t16 57zM63 812q19 -20 48 -20t48 20t19 48q0 18 -8.5 34t-24 25t-35.5 9q-18 0 -33 -9t-24 -24.5t-9 -34.5q0 -29 19 -48z" />
    <glyph glyph-name="hungarumlaut.cap" horiz-adv-x="222" 
d="M189 922h105l-120 -143h-66zM33 922h105l-120 -143h-66z" />
    <glyph glyph-name="dotaccent.cap" horiz-adv-x="222" 
d="M156 793h-90v104h90v-104z" />
    <glyph glyph-name="uni10FB.case" horiz-adv-x="533" 
d="M85 534h106v-125h-106v125zM85 150h106v-124h-106v124zM471 343v-125h-105v125h105z" />
    <glyph glyph-name=".ttfautohint" horiz-adv-x="533" 
 />
    </font>
</defs>
</svg>
