<?xml version="1.0" standalone="no"?>
<!DOCTYPE svg PUBLIC "-//W3C//DTD SVG 1.1//EN" "http://www.w3.org/Graphics/SVG/1.1/DTD/svg11.dtd" >
<svg xmlns="http://www.w3.org/2000/svg" xmlns:xlink="http://www.w3.org/1999/xlink" version="1.1">
<metadata>
Created by FontForge 20170731 at Fri Mar 20 20:12:46 2020
 By Aleksey,,,
Copyright (c) 2016 Monotype Imaging Inc. All rights reserved.
</metadata>
<defs>
<font id="HelveticaNeueLTGEOCaps-75Bold" horiz-adv-x="259" >
  <font-face 
    font-family="Helvetica Neue LT GEO 55 Roman"
    font-weight="700"
    font-variant="small-caps"
    font-stretch="normal"
    units-per-em="1000"
    panose-1="2 11 8 4 2 2 2 2 2 4"
    ascent="800"
    descent="-200"
    x-height="517"
    cap-height="714"
    bbox="-166 -217 1078 973"
    underline-thickness="50"
    underline-position="-275"
    unicode-range="U+000D-FEFF"
  />
<missing-glyph horiz-adv-x="512" 
d="M0 0v718h512v-718h-512zM462 50v617h-412v-617h412zM166 574q34 35 93 35q35 0 63.5 -16.5t44.5 -46.5t16 -68t-14.5 -63.5t-49.5 -57.5q-34 -31 -41 -46q-7 -17 -7 -77h-46l-2 19q0 34 4 54q3 20 21 44.5t38 43.5q21 19 33.5 37.5t12.5 41.5q0 22 -10.5 42t-28 31.5
t-37.5 11.5q-34 0 -55 -24t-27 -71l-50 8q7 67 42 102zM222 184h56v-67h-56v67z" />
    <glyph glyph-name=".notdef" horiz-adv-x="512" 
d="M0 0v718h512v-718h-512zM462 50v617h-412v-617h412zM166 574q34 35 93 35q35 0 63.5 -16.5t44.5 -46.5t16 -68t-14.5 -63.5t-49.5 -57.5q-34 -31 -41 -46q-7 -17 -7 -77h-46l-2 19q0 34 4 54q3 20 21 44.5t38 43.5q21 19 33.5 37.5t12.5 41.5q0 22 -10.5 42t-28 31.5
t-37.5 11.5q-34 0 -55 -24t-27 -71l-50 8q7 67 42 102zM222 184h56v-67h-56v67z" />
    <glyph glyph-name=".null" horiz-adv-x="0" 
 />
    <glyph glyph-name="uni000D" horiz-adv-x="333" 
 />
    <glyph glyph-name="NULL.1" horiz-adv-x="0" 
 />
    <glyph glyph-name="NULL.1" horiz-adv-x="0" 
 />
    <glyph glyph-name="uni000D.1" unicode="&#xd;" horiz-adv-x="278" 
 />
    <glyph glyph-name="space" unicode=" " horiz-adv-x="278" 
 />
    <glyph glyph-name="exclam" unicode="!" horiz-adv-x="278" 
d="M213 522l-39 -308h-71l-38 308v192h148v-192zM218 0h-157v154h157v-154z" />
    <glyph glyph-name="quotedbl" unicode="&#x22;" horiz-adv-x="463" 
d="M271 714h107v-321h-107v321zM85 714h107v-321h-107v321z" />
    <glyph glyph-name="numbersign" unicode="#" horiz-adv-x="556" 
d="M33 198v90h95l18 124h-83v90h95l28 198h97l-28 -198h97l27 198h97l-27 -198h74v-90h-87l-17 -124h74v-90h-87l-27 -198h-97l27 198h-96l-27 -195l-1 -3h-97l28 198h-83zM225 288h97l17 124h-96z" />
    <glyph glyph-name="dollar" unicode="$" horiz-adv-x="556" 
d="M307 808v-77q103 -11 161.5 -65.5t63.5 -147.5h-142q0 26 -11.5 48t-30.5 35t-41 13v-177q92 -21 146.5 -51.5t79 -76t24.5 -111.5q0 -45 -26 -92.5t-82.5 -82.5t-141.5 -40v-85h-59v85q-227 17 -249 249h142v-3q0 -51 29 -85t78 -44v209q-7 2 -24.5 6.5t-43.5 12.5
q-83 26 -123.5 70.5t-40.5 118.5q0 61 29.5 108t82 74t120.5 32v77h59zM158 531q0 -33 21 -50.5t69 -29.5v163q-25 0 -45.5 -10t-32.5 -29t-12 -44zM307 100q48 5 78 31.5t30 66.5q0 25 -10 42t-33.5 29t-64.5 23v-192z" />
    <glyph glyph-name="percent" unicode="%" horiz-adv-x="1000" 
d="M94 619q19 44 57.5 69.5t93.5 25.5q85 0 124.5 -54.5t39.5 -146.5q0 -91 -44 -140t-125 -49q-82 0 -123.5 48.5t-41.5 143.5q0 58 19 103zM591 183q0 56 18.5 99.5t57 68.5t94.5 25q81 0 122.5 -50t41.5 -146q0 -60 -19.5 -103.5t-57.5 -67t-92 -23.5q-83 0 -124 52
t-41 145zM254 -22l414 744h85l-412 -744h-87zM181 458q3 -24 17 -41.5t43 -17.5q37 0 51.5 30.5t14.5 83.5q0 126 -62 126q-41 0 -54.5 -35.5t-13.5 -90.5q0 -32 4 -55zM697 124q3 -25 17 -44t43 -19q36 0 51 31.5t15 89.5q0 59 -15.5 89t-47.5 30q-42 0 -54.5 -35.5
t-12.5 -83.5q0 -34 4 -58z" />
    <glyph glyph-name="ampersand" unicode="&#x26;" horiz-adv-x="685" 
d="M32 200q0 64 40.5 117t119.5 90q-38 45 -53 80t-15 72q0 47 25.5 84t68.5 58t93 21q54 0 98 -19.5t70.5 -58t26.5 -93.5q0 -110 -127 -178l92 -113q20 35 26 85h123q-11 -102 -69 -176l145 -169h-174l-58 71q-44 -43 -92.5 -64t-108.5 -21q-66 0 -118.5 26.5t-82.5 75
t-30 112.5zM167 197q0 -25 14.5 -47t38 -34.5t49.5 -12.5q32 0 61 14.5t59 48.5l-122 149q-48 -20 -74 -50.5t-26 -67.5zM265 517q11 -23 44 -60q39 24 56 47t17 55q0 18 -9 34t-24 25t-33 9q-17 0 -31.5 -8t-23 -22.5t-8.5 -32.5q0 -24 12 -47z" />
    <glyph glyph-name="quotesingle" unicode="'" horiz-adv-x="278" 
d="M193 393h-107v321h107v-321z" />
    <glyph glyph-name="parenleft" unicode="(" horiz-adv-x="296" 
d="M52 268q0 118 33.5 243t98.5 220h119q-53 -99 -81 -215t-28 -238q0 -124 26.5 -238t81.5 -222h-118q-64 105 -98 221t-34 229z" />
    <glyph glyph-name="parenright" unicode=")" horiz-adv-x="296" 
d="M75 36q27 113 27 234q0 250 -108 461h118q64 -105 98 -221.5t34 -229.5q0 -73 -14 -155t-44 -162t-74 -145h-119q54 104 82 218z" />
    <glyph glyph-name="asterisk" unicode="*" horiz-adv-x="407" 
d="M242 589l116 44l27 -77l-118 -39l74 -98l-66 -49l-74 103l-70 -103l-67 49l74 98l-116 39l27 77l113 -44v125h80v-125z" />
    <glyph glyph-name="plus" unicode="+" horiz-adv-x="600" 
d="M48 199v107h199v199h107v-199h199v-107h-199v-199h-107v199h-199z" />
    <glyph glyph-name="comma" unicode="," horiz-adv-x="278" 
d="M61 154h157v-156q0 -39 -18.5 -73.5t-53.5 -58.5t-84 -32v72q21 4 37 17.5t25 32t9 37.5v7h-72v154z" />
    <glyph glyph-name="hyphen" unicode="-" horiz-adv-x="407" 
d="M354 212h-301v122h301v-122z" />
    <glyph glyph-name="period" unicode="." horiz-adv-x="278" 
d="M217 0h-157v154h157v-154z" />
    <glyph glyph-name="slash" unicode="/" horiz-adv-x="371" 
d="M103 -17h-114l279 748h114z" />
    <glyph glyph-name="zero" unicode="0" horiz-adv-x="556" 
d="M86 622q65 92 191 92t192 -92t66 -269q0 -180 -66 -273.5t-192 -93.5t-191 93t-65 274q0 177 65 269zM163 357q0 -66 6 -118.5t31 -94t77 -41.5t77.5 40.5t32 93.5t6.5 120q0 64 -7.5 115.5t-33.5 88t-76 36.5q-51 0 -76 -41t-31 -91t-6 -108z" />
    <glyph glyph-name="one" unicode="1" horiz-adv-x="556" 
d="M74 454v107h10q85 0 134.5 35.5t60.5 103.5h113v-700h-142v454h-176z" />
    <glyph glyph-name="two" unicode="2" horiz-adv-x="556" 
d="M44 120q23 51 70 96q27 25 61 50t116 80q47 32 72.5 64t25.5 74q0 31 -13 55.5t-36.5 38.5t-55.5 14q-52 0 -81 -43t-30 -118h-136v13q0 81 31 142t88.5 94.5t134.5 33.5q65 0 120 -27t87.5 -76.5t32.5 -115.5q0 -68 -32 -120q-20 -31 -50 -58t-85 -62q-70 -44 -104 -73
t-56 -60h331v-122h-514q0 68 23 120z" />
    <glyph glyph-name="three" unicode="3" horiz-adv-x="556" 
d="M153 241q3 -66 35.5 -102t87.5 -36q33 0 59 14t40.5 39t14.5 57q0 58 -35 81t-105 23h-22v100h26q60 0 91.5 22.5t31.5 64.5q0 29 -13.5 50t-36 32t-49.5 11q-45 0 -76.5 -30t-31.5 -95h-135q2 73 33 127.5t85 84.5t124 30q58 0 112 -23t88.5 -67t34.5 -104
q0 -53 -25.5 -91.5t-72.5 -51.5v-2q38 -8 66 -31t43 -56t15 -72q0 -70 -35.5 -122.5t-95 -80t-129.5 -27.5q-79 0 -137.5 30t-90.5 86t-32 131v8h135z" />
    <glyph glyph-name="four" unicode="4" horiz-adv-x="556" 
d="M320 700h127v-421h93v-117h-93v-162h-135v162h-296v130zM128 279h184v243h-3z" />
    <glyph glyph-name="five" unicode="5" horiz-adv-x="556" 
d="M18 208h142q5 -48 36.5 -76.5t78.5 -28.5q35 0 62.5 18.5t43 49.5t15.5 67t-14 66t-41.5 47.5t-66.5 17.5q-37 0 -61 -13.5t-45 -42.5h-128l69 387h391v-117h-289l-28 -159l2 -2q27 27 60 40.5t77 13.5q67 0 116 -32t74.5 -86t25.5 -120q0 -69 -34 -126.5t-93 -91.5
t-130 -34q-75 0 -134 26.5t-93 76.5t-36 119z" />
    <glyph glyph-name="six" unicode="6" horiz-adv-x="556" 
d="M49 522q28 83 89.5 137.5t157.5 54.5q61 0 109.5 -23t79 -67t38.5 -104h-135q-8 39 -34 63t-60 24q-42 0 -71 -29t-44.5 -77t-18.5 -107l2 -2q29 41 67 59.5t90 18.5q56 0 105.5 -27t80 -78.5t30.5 -122.5q0 -72 -31 -130.5t-87 -92t-127 -33.5q-93 0 -153 45.5
t-88 126.5t-28 190q0 90 28 174zM173 233q0 -35 14 -64.5t40 -47.5t59 -18q32 0 56.5 18t37.5 47.5t13 62.5q0 34 -12 64t-36 49t-60 19q-34 0 -59 -16.5t-39 -46t-14 -67.5z" />
    <glyph glyph-name="seven" unicode="7" horiz-adv-x="556" 
d="M39 700h478v-122q-70 -62 -121 -160t-78.5 -208t-29.5 -210h-152q12 154 73 300.5t162 267.5h-332v132z" />
    <glyph glyph-name="eight" unicode="8" horiz-adv-x="556" 
d="M49 317q34 45 97 60v2q-49 13 -76 51.5t-27 92.5q0 60 34 103t88 65.5t114 22.5q80 0 132.5 -30.5t77 -74t24.5 -84.5q0 -52 -26.5 -90.5t-75.5 -55.5v-2q64 -15 97.5 -60t33.5 -111q0 -70 -36.5 -119.5t-96.5 -75t-129 -25.5q-70 0 -130.5 24t-98 73.5t-37.5 121.5
q0 66 35 112zM173 150q16 -27 44 -42t63 -15q34 0 61.5 15t43 42t15.5 61q0 32 -15.5 57.5t-43 40t-62.5 14.5t-63 -13.5t-44 -38.5t-16 -59q0 -35 17 -62zM187 460q14 -21 38.5 -31.5t53.5 -10.5q46 0 75.5 24.5t29.5 67.5q0 38 -23.5 67.5t-82.5 29.5q-28 0 -52 -11
t-39 -33t-15 -53q0 -29 15 -50z" />
    <glyph glyph-name="nine" unicode="9" horiz-adv-x="556" 
d="M21 458q0 70 30 128.5t86 93t130 34.5q91 0 150.5 -45t88.5 -125.5t29 -190.5q0 -93 -28.5 -176.5t-90.5 -137t-156 -53.5q-61 0 -109.5 23t-79 66.5t-38.5 104.5h135q8 -38 34 -62.5t60 -24.5q57 0 92 54.5t42 158.5l-2 2q-28 -40 -66 -59t-92 -19q-50 0 -99.5 24.5
t-82.5 76t-33 127.5zM163 469q0 -34 12 -64.5t36 -49t59 -18.5q36 0 61.5 17.5t38.5 47t13 65.5q0 35 -14 64.5t-40 47.5t-59 18q-32 0 -56.5 -18t-37.5 -47.5t-13 -62.5z" />
    <glyph glyph-name="colon" unicode=":" horiz-adv-x="278" 
d="M218 508v-154h-157v154h157zM61 0v154h157v-154h-157z" />
    <glyph glyph-name="semicolon" unicode=";" horiz-adv-x="278" 
d="M61 154h157v-155q0 -42 -20 -77t-55.5 -58t-80.5 -30v72q30 6 50.5 31t20.5 56v7h-72v154zM61 354v154h157v-154h-157z" />
    <glyph glyph-name="less" unicode="&#x3c;" horiz-adv-x="600" 
d="M46 194v118l508 202v-115l-367 -146l367 -146v-115z" />
    <glyph glyph-name="equal" unicode="=" horiz-adv-x="600" 
d="M553 413v-107h-505v107h505zM48 92v107h505v-107h-505z" />
    <glyph glyph-name="greater" unicode="&#x3e;" horiz-adv-x="600" 
d="M46 399v115l508 -202v-118l-508 -202v115l367 146z" />
    <glyph glyph-name="question" unicode="?" horiz-adv-x="556" 
d="M32 484q1 73 32 129t85.5 87t125.5 31q86 0 142 -30t81.5 -74.5t25.5 -89.5q0 -47 -13 -79.5t-31 -52.5t-43 -38l-33 -24q-62 -45 -62 -100v-29h-135v29q0 58 21.5 98.5t67.5 76.5q29 23 42.5 36t21 29.5t7.5 40.5q0 44 -22 67t-63 23q-49 0 -76 -35t-27 -95h-147zM193 0
v154h157v-154h-157z" />
    <glyph glyph-name="at" unicode="@" horiz-adv-x="800" 
d="M88 546q51 86 138 135.5t190 49.5q91 0 171 -38.5t128.5 -108t48.5 -158.5q0 -93 -42 -158.5t-98.5 -98.5t-95.5 -33q-30 0 -50 15.5t-22 41.5h-2q-18 -29 -46 -43.5t-62 -14.5q-41 0 -77.5 23t-58 63t-21.5 86q0 62 27 121t77 96t114 37q39 0 71 -18t46 -52l16 54h82
l-61 -250q-4 -16 -7 -29t-3 -22q0 -11 4.5 -17t12.5 -6q29 0 56.5 24t44.5 66t17 94q0 75 -34 130.5t-95.5 85.5t-141.5 30q-84 0 -148.5 -38.5t-99.5 -105.5t-35 -152t37 -151.5t104 -103.5t154 -37q62 0 119 21.5t96 60.5h84q-53 -79 -132.5 -120.5t-172.5 -41.5
q-105 0 -193.5 49t-140 135t-51.5 190q0 103 52 189zM291 319q0 -39 21 -64t57 -25q34 0 62.5 22.5t44.5 57.5t16 71q0 23 -10 42.5t-27.5 31t-40.5 11.5q-33 0 -61.5 -21.5t-45 -55.5t-16.5 -70z" />
    <glyph glyph-name="A" unicode="A" horiz-adv-x="685" 
d="M264 714h161l267 -714h-163l-54 159h-267l-56 -159h-159zM434 276l-90 262h-2l-93 -262h185z" />
    <glyph glyph-name="B" unicode="B" horiz-adv-x="704" 
d="M69 714h337q112 0 169.5 -43t57.5 -133q0 -54 -24.5 -90.5t-72.5 -59.5q65 -18 98 -65.5t33 -115.5t-34.5 -114.5t-91.5 -69.5t-126 -23h-346v714zM226 318v-196h169q56 0 85.5 23.5t29.5 70.5q0 51 -29 76.5t-83 25.5h-172zM226 425h160q44 0 69.5 21.5t25.5 63.5
q0 82 -106 82h-149v-167z" />
    <glyph glyph-name="C" unicode="C" horiz-adv-x="741" 
d="M80 546q42 86 121.5 135.5t187.5 49.5q80 0 147 -31t109.5 -89t51.5 -137h-152q-5 35 -27.5 63.5t-56.5 45t-72 16.5q-63 0 -106.5 -31t-65.5 -86t-22 -128q0 -69 21.5 -123t65.5 -85t107 -31q68 0 110 42t52 118h152q-8 -89 -49.5 -155t-109.5 -101.5t-155 -35.5
q-106 0 -186 48.5t-122.5 133t-42.5 189.5q0 106 42 192z" />
    <glyph glyph-name="D" unicode="D" horiz-adv-x="741" 
d="M69 714h306q99 0 172.5 -41.5t113.5 -121t40 -190.5q0 -112 -39 -193t-111.5 -124.5t-171.5 -43.5h-310v714zM365 132q51 0 91.5 22.5t64 70.5t23.5 122q0 124 -52 179.5t-154 55.5h-112v-450h139z" />
    <glyph glyph-name="E" unicode="E" horiz-adv-x="648" 
d="M69 714h534v-132h-377v-153h346v-122h-346v-175h385v-132h-542v714z" />
    <glyph glyph-name="F" unicode="F" horiz-adv-x="593" 
d="M571 714v-132h-345v-165h299v-122h-299v-295h-157v714h502z" />
    <glyph glyph-name="G" unicode="G" horiz-adv-x="759" 
d="M80 547q42 85 121.5 134.5t187.5 49.5q77 0 143.5 -31t108.5 -88t49 -133h-150q-14 59 -53.5 89.5t-97.5 30.5q-63 0 -106.5 -31.5t-65.5 -87t-22 -126.5q0 -66 20.5 -120t64 -86.5t109.5 -32.5q76 0 119.5 38.5t50.5 115.5h-158v117h300v-386h-100l-16 81
q-38 -49 -88 -73.5t-108 -24.5q-106 0 -186 49t-122.5 133.5t-42.5 188.5q0 107 42 193z" />
    <glyph glyph-name="H" unicode="H" horiz-adv-x="741" 
d="M69 0v714h157v-274h289v274h157v-714h-157v308h-289v-308h-157z" />
    <glyph glyph-name="I" unicode="I" horiz-adv-x="295" 
d="M226 0h-157v714h157v-714z" />
    <glyph glyph-name="J" unicode="J" horiz-adv-x="556" 
d="M14 266h142v-35q0 -62 22.5 -89t68.5 -27q36 0 54.5 15.5t23.5 38.5t5 57v488h157v-490q0 -118 -59.5 -179.5t-176.5 -61.5q-72 0 -125.5 27t-82.5 76.5t-29 115.5v64z" />
    <glyph glyph-name="K" unicode="K" horiz-adv-x="722" 
d="M226 714v-296l279 296h196l-279 -282l306 -432h-197l-215 321l-90 -91v-230h-157v714h157z" />
    <glyph glyph-name="L" unicode="L" horiz-adv-x="593" 
d="M226 132h348v-132h-505v714h157v-582z" />
    <glyph glyph-name="M" unicode="M" horiz-adv-x="907" 
d="M69 0v714h221l167 -491h2l158 491h221v-714h-147v506h-2l-175 -506h-121l-175 501h-2v-501h-147z" />
    <glyph glyph-name="N" unicode="N" horiz-adv-x="741" 
d="M69 714h156l298 -479h2v479h147v-714h-157l-297 478h-2v-478h-147v714z" />
    <glyph glyph-name="O" unicode="O" horiz-adv-x="778" 
d="M38 354q0 107 42.5 192.5t122 135t186.5 49.5q106 0 185.5 -49t122.5 -134.5t43 -193.5q0 -104 -42.5 -188.5t-122.5 -133.5t-186 -49t-186 49t-122.5 133.5t-42.5 188.5zM217 232q21 -54 65 -85.5t107 -31.5q64 0 107.5 32t65 86t21.5 121q0 71 -21.5 126t-65 87
t-108.5 32q-63 0 -106.5 -32t-65 -87t-21.5 -126q0 -68 22 -122z" />
    <glyph glyph-name="P" unicode="P" horiz-adv-x="667" 
d="M69 714h323q81 0 136 -30t82.5 -82t27.5 -117q0 -66 -27.5 -117.5t-82.5 -81.5t-135 -30h-167v-256h-157v714zM226 378h125q69 0 102 25.5t33 81.5q0 55 -32.5 81t-101.5 26h-126v-214z" />
    <glyph glyph-name="Q" unicode="Q" horiz-adv-x="778" 
d="M38 354q0 107 42 192.5t121.5 135t187.5 49.5q105 0 184.5 -48.5t123 -134t43.5 -194.5q0 -77 -23.5 -143.5t-69.5 -119.5l89 -81l-73 -77l-101 92q-73 -42 -173 -42q-107 0 -186.5 49.5t-122 134t-42.5 187.5zM195 354q0 -60 18.5 -114t62.5 -89.5t114 -35.5
q27 0 40.5 2t21.5 8l-67 61l73 78l81 -74q22 29 33 71t11 93q0 73 -22 128t-66 86t-107 31q-62 0 -105.5 -31.5t-65.5 -86.5t-22 -127z" />
    <glyph glyph-name="R" unicode="R" horiz-adv-x="722" 
d="M69 714h385q62 0 109.5 -26t73.5 -71t26 -100q0 -134 -113 -179v-2q46 -13 68.5 -47t29 -70.5t8.5 -87.5q2 -52 8.5 -82.5t19.5 -48.5h-157q-8 20 -12 48.5t-8 75.5q-4 56 -14.5 88.5t-35.5 49.5t-73 17h-158v-279h-157v714zM226 391h173q52 0 79.5 24t27.5 78
q0 52 -27.5 75.5t-80.5 23.5h-172v-201z" />
    <glyph glyph-name="S" unicode="S" horiz-adv-x="649" 
d="M176 237q0 -48 22.5 -77.5t58 -42t76.5 -12.5q60 0 100 21.5t40 67.5q0 34 -28.5 56.5t-94.5 38.5l-47 12q-10 3 -41 11t-57 16q-80 27 -118.5 73t-38.5 115t38 117.5t99.5 73t129.5 24.5q80 0 144.5 -24.5t103 -76t38.5 -129.5h-152q-4 55 -37.5 81.5t-102.5 26.5
q-47 0 -78 -20.5t-31 -60.5q0 -27 14 -41.5t50.5 -26.5t125.5 -34q71 -18 119 -38.5t82 -63t34 -112.5q0 -68 -35 -119.5t-102 -80.5t-160 -29q-80 0 -149 26.5t-112 82.5t-43 140v5h152z" />
    <glyph glyph-name="T" unicode="T" horiz-adv-x="611" 
d="M13 582v132h585v-132h-214v-582h-157v582h-214z" />
    <glyph glyph-name="U" unicode="U" horiz-adv-x="741" 
d="M66 267v447h157v-447q0 -79 35.5 -115.5t111.5 -36.5q55 0 87 16t46.5 49t14.5 87v447h157v-447q0 -89 -34.5 -153t-102.5 -97.5t-168 -33.5q-152 0 -228 74t-76 210z" />
    <glyph glyph-name="V" unicode="V" horiz-adv-x="630" 
d="M154 714l159 -502h2l161 502h162l-237 -714h-177l-232 714h162z" />
    <glyph glyph-name="W" unicode="W" horiz-adv-x="944" 
d="M160 714l113 -486h2l124 486h147l122 -492h2l117 492h154l-192 -714h-156l-121 486h-2l-119 -486h-159l-189 714h157z" />
    <glyph glyph-name="X" unicode="X" horiz-adv-x="667" 
d="M-6 0l250 374l-230 340h182l140 -228l145 228h172l-229 -341l249 -373h-187l-156 247l-159 -247h-177z" />
    <glyph glyph-name="Y" unicode="Y" horiz-adv-x="667" 
d="M-9 714h177l167 -282l166 282h175l-265 -440v-274h-157v278z" />
    <glyph glyph-name="Z" unicode="Z" horiz-adv-x="648" 
d="M615 590l-383 -458h393v-132h-602v124l383 458h-353v132h562v-124z" />
    <glyph glyph-name="bracketleft" unicode="[" horiz-adv-x="333" 
d="M332 731v-112h-122v-689h122v-112h-264v913h264z" />
    <glyph glyph-name="backslash" unicode="\" horiz-adv-x="371" 
d="M382 -17h-114l-279 748h114z" />
    <glyph glyph-name="bracketright" unicode="]" horiz-adv-x="333" 
d="M265 731v-913h-264v112h122v689h-122v112h264z" />
    <glyph glyph-name="asciicircum" unicode="^" horiz-adv-x="600" 
d="M233 700h134l172 -385h-117l-122 275l-122 -275h-117z" />
    <glyph glyph-name="underscore" unicode="_" horiz-adv-x="500" 
d="M500 -125h-500v50h500v-50z" />
    <glyph glyph-name="grave" unicode="`" 
d="M205 589h-99l-154 142h157z" />
    <glyph glyph-name="a" unicode="a" horiz-adv-x="574" 
d="M77 251q25 21 64 33t103 19q52 6 78.5 12t40 18t13.5 34q0 40 -24 54.5t-67 14.5q-45 0 -68 -19t-27 -59h-142q3 56 33.5 94.5t84 58.5t126.5 20q113 0 169.5 -37.5t56.5 -109.5v-274q0 -34 4.5 -64.5t13.5 -45.5h-144q-9 28 -10 50q-30 -31 -74.5 -47.5t-99.5 -16.5
q-53 0 -93 18t-61.5 53t-21.5 84q0 71 45 110zM261 81q57 0 86 30t29 87v55q-10 -9 -30 -14.5t-56 -10.5q-40 -5 -64.5 -13.5t-38 -24.5t-13.5 -43q0 -66 87 -66z" />
    <glyph glyph-name="b" unicode="b" horiz-adv-x="611" 
d="M196 714v-260h2q24 36 66.5 56.5t96.5 20.5q55 0 104 -30t79.5 -91.5t30.5 -150.5q0 -87 -29.5 -148.5t-78.5 -93t-107 -31.5q-62 0 -105 20.5t-64 59.5h-2v-66h-135v714h142zM205 173q14 -38 41.5 -59t65.5 -21q39 0 66 21.5t41 59t14 84.5t-13.5 84.5t-41 59.5
t-67.5 22q-38 0 -65 -21.5t-41 -59t-14 -85.5t14 -85z" />
    <glyph glyph-name="c" unicode="c" horiz-adv-x="574" 
d="M38 251q0 82 32 145.5t91.5 99t140.5 35.5q66 0 120 -23.5t87 -67.5t36 -105h-139q-14 89 -105 89q-41 0 -68 -23.5t-40 -62t-13 -82.5q0 -45 12.5 -81.5t39 -59t66.5 -22.5q47 0 76.5 26.5t36.5 78.5h137q-9 -67 -42 -115t-85.5 -72.5t-121.5 -24.5q-79 0 -138 34.5
t-91 95t-32 135.5z" />
    <glyph glyph-name="d" unicode="d" horiz-adv-x="611" 
d="M59 397q26 61 78 97.5t124 36.5q48 0 89 -20t64 -57h2v260h142v-714h-135v66h-2q-23 -39 -63 -59.5t-94 -20.5q-74 0 -126.5 37.5t-79 100.5t-26.5 139q0 73 27 134zM174 259q0 -43 13.5 -81t42 -61.5t69.5 -23.5q60 0 91 44t31 123q0 75 -30.5 119.5t-92.5 44.5
q-60 0 -92 -44.5t-32 -120.5z" />
    <glyph glyph-name="e" unicode="e" horiz-adv-x="574" 
d="M29 258q0 77 33.5 139.5t93.5 98t137 35.5q79 0 136 -37.5t86.5 -101.5t29.5 -142l-1 -26h-373q3 -67 34 -99t92 -32q26 0 50 9t41 24.5t22 33.5h125q-28 -88 -88.5 -131t-153.5 -43q-81 0 -140.5 34.5t-91.5 96.5t-32 141zM171 314h231q-10 58 -37 84t-77 26
q-51 0 -81.5 -29t-35.5 -81z" />
    <glyph glyph-name="f" unicode="f" horiz-adv-x="333" 
d="M0 517h85v38q0 78 47 118.5t126 40.5q19 0 75 -4v-106q-27 3 -51 3q-31 0 -43 -13.5t-12 -46.5v-30h98v-95h-98v-422h-142v422h-85v95z" />
    <glyph glyph-name="g" unicode="g" horiz-adv-x="611" 
d="M64 402q26 58 76 93.5t120 35.5q55 0 92.5 -20.5t61.5 -62.5h2v69h135v-485q0 -106 -65.5 -167t-201.5 -61q-61 0 -112 20t-82.5 57.5t-34.5 88.5h141q17 -71 106 -71q55 0 84.5 33t29.5 92v71h-2q-21 -38 -62 -59t-93 -21q-73 0 -122.5 33t-74 91.5t-24.5 135.5
q0 68 26 127zM180 277q0 -68 28.5 -111.5t86.5 -43.5q37 0 64.5 19t42 51.5t14.5 73.5q0 66 -27 112t-95 46q-36 0 -61.5 -19t-39 -52t-13.5 -76z" />
    <glyph glyph-name="h" unicode="h" horiz-adv-x="593" 
d="M196 714v-269h3q24 40 65 63t87 23q98 0 143 -50t45 -158v-323h-142v294q0 64 -21 94.5t-70 30.5q-62 0 -86 -37t-24 -111v-271h-142v714h142z" />
    <glyph glyph-name="i" unicode="i" horiz-adv-x="258" 
d="M58 0v517h142v-517h-142zM200 714v-117h-142v117h142z" />
    <glyph glyph-name="j" unicode="j" horiz-adv-x="278" 
d="M-19 -178v117q11 -4 32 -4q30 0 42 12t12 35v535h142v-546q0 -56 -17.5 -89t-57 -48.5t-106.5 -15.5q-26 0 -47 4zM209 714v-117h-142v117h142z" />
    <glyph glyph-name="k" unicode="k" horiz-adv-x="574" 
d="M67 714h142v-383l179 186h168l-195 -190l217 -327h-172l-142 231l-55 -53v-178h-142v714z" />
    <glyph glyph-name="l" unicode="l" horiz-adv-x="258" 
d="M200 0h-142v714h142v-714z" />
    <glyph glyph-name="m" unicode="m" horiz-adv-x="906" 
d="M192 517v-70h2q59 84 158 84q57 0 95 -22.5t56 -63.5q29 41 69.5 63.5t87.5 22.5q94 0 141 -48t47 -136v-347h-142v299q0 39 -6 64.5t-25 40.5t-56 15q-49 0 -72 -33t-23 -97v-289h-142v305q0 38 -6 62t-25 38t-55 14q-20 0 -42 -10.5t-38 -37t-16 -70.5v-301h-142v517
h134z" />
    <glyph glyph-name="n" unicode="n" horiz-adv-x="593" 
d="M54 0v517h135v-72h3q25 41 67 63.5t92 22.5q98 0 143 -50t45 -159v-322h-142v293q0 65 -21 95.5t-70 30.5q-43 0 -67 -18t-33.5 -50.5t-9.5 -81.5v-269h-142z" />
    <glyph glyph-name="o" unicode="o" horiz-adv-x="611" 
d="M71 402q33 61 93.5 95t140.5 34q81 0 141.5 -34t93.5 -96t33 -143q0 -82 -33.5 -143.5t-94.5 -95t-140 -33.5q-81 0 -141 34t-93 95.5t-33 142.5q0 82 33 144zM213 136q32 -43 92 -43q62 0 94 43.5t32 121.5q0 72 -29.5 119t-97.5 47q-59 0 -91.5 -43.5t-32.5 -122.5
t33 -122z" />
    <glyph glyph-name="p" unicode="p" horiz-adv-x="611" 
d="M54 517h135v-66h2q25 40 64 60t90 20q76 0 129 -36.5t79.5 -99.5t26.5 -142q0 -73 -26.5 -133.5t-77.5 -97t-123 -36.5q-48 0 -89 20.5t-66 57.5h-2v-246h-142v699zM191 257q0 -74 31 -119t93 -45q63 0 93 45t30 119q0 43 -12 81t-40 62t-73 24q-58 0 -90 -44t-32 -123z
" />
    <glyph glyph-name="q" unicode="q" horiz-adv-x="611" 
d="M32 254q0 75 26.5 138t78.5 101t127 38q54 0 94.5 -20.5t62.5 -59.5h2v66h135v-699h-142v247h-2q-23 -38 -66 -58.5t-97 -20.5q-52 0 -102.5 27.5t-83.5 87.5t-33 153zM174 258q0 -75 30.5 -120t92.5 -45q63 0 93.5 45t30.5 118q0 43 -12 81t-39.5 62.5t-70.5 24.5
q-62 0 -93.5 -46t-31.5 -120z" />
    <glyph glyph-name="r" unicode="r" horiz-adv-x="389" 
d="M54 517h135v-96h2q13 32 38.5 57t58.5 39t68 14q13 0 31 -5v-132q-23 5 -51 5q-73 0 -106.5 -44.5t-33.5 -121.5v-233h-142v517z" />
    <glyph glyph-name="s" unicode="s" horiz-adv-x="537" 
d="M29 168h135q0 -42 31 -64.5t78 -22.5q39 0 66 17t27 49q0 19 -15.5 32t-48.5 24t-92 23q-61 13 -97.5 31t-54 44.5t-17.5 63.5q0 82 57.5 124t167.5 42q105 0 163 -42.5t65 -122.5h-135q-3 37 -27.5 53.5t-69.5 16.5q-79 0 -79 -48q0 -17 11 -28.5t35 -20.5t65 -17
q76 -15 113 -29t61 -34q40 -36 40 -93q0 -63 -32.5 -103.5t-85.5 -58.5t-118 -18q-72 0 -125.5 20.5t-84.5 61t-33 100.5z" />
    <glyph glyph-name="t" unicode="t" horiz-adv-x="352" 
d="M92 517v155h142v-155h104v-95h-104v-256q0 -25 5 -37.5t17.5 -17.5t37.5 -5q28 0 44 4v-111q-30 -5 -84 -5q-84 0 -123 28.5t-39 96.5v303h-86v95h86z" />
    <glyph glyph-name="u" unicode="u" horiz-adv-x="593" 
d="M196 517v-293q0 -63 20.5 -94.5t70.5 -31.5q58 0 84 35t26 112v272h142v-517h-135v72h-3q-26 -42 -68 -64t-91 -22q-67 0 -108.5 23t-60.5 69t-19 118v321h142z" />
    <glyph glyph-name="v" unicode="v" horiz-adv-x="520" 
d="M154 517l109 -353h2l109 353h141l-175 -517h-158l-177 517h149z" />
    <glyph glyph-name="w" unicode="w" horiz-adv-x="814" 
d="M156 517l95 -351h2l86 351h138l88 -350h2l95 350h146l-163 -517h-146l-92 347h-2l-88 -347h-147l-164 517h150z" />
    <glyph glyph-name="x" unicode="x" horiz-adv-x="537" 
d="M0 0l186 272l-170 245h162l91 -135l90 135h157l-170 -242l191 -275h-162l-108 163l-108 -163h-159z" />
    <glyph glyph-name="y" unicode="y" horiz-adv-x="519" 
d="M-6 517h152l117 -354h2l113 354h147l-216 -582q-23 -61 -64 -89t-112 -28q-39 0 -89 5v117q38 -5 75 -5q29 0 46 18t17 47q0 15 -6 32z" />
    <glyph glyph-name="z" unicode="z" horiz-adv-x="519" 
d="M478 410l-269 -303h288v-107h-475v107l269 303h-249v107h436v-107z" />
    <glyph glyph-name="braceleft" unicode="{" horiz-adv-x="333" 
d="M-9 318q25 1 46 12t33.5 31t12.5 45v191q0 38 18.5 69t48 48t60.5 17h123v-112h-54q-28 0 -41 -17.5t-13 -53.5v-153q0 -53 -26 -83.5t-73 -35.5v-3q42 -6 70.5 -34.5t28.5 -74.5v-163q0 -37 13.5 -54t41.5 -17h53v-112h-124q-29 0 -58.5 16.5t-48.5 47t-19 70.5v196
q0 27 -14 45.5t-35.5 27.5t-42.5 10v87z" />
    <glyph glyph-name="bar" unicode="|" horiz-adv-x="223" 
d="M165 -214h-107v1000h107v-1000z" />
    <glyph glyph-name="braceright" unicode="}" horiz-adv-x="333" 
d="M0 -182v112h54q28 0 41 18t13 54v161q0 49 28.5 77t70.5 33v3q-49 5 -74 36.5t-25 79.5v156q0 71 -54 71h-54v112h126q26 0 55 -15.5t49 -46.5t20 -74v-188q0 -26 12.5 -46t33.5 -31t46 -12v-87q-27 -1 -48 -12.5t-32.5 -29.5t-11.5 -39v-198q0 -41 -20 -71.5t-49 -46.5
t-55 -16h-126z" />
    <glyph glyph-name="asciitilde" unicode="~" horiz-adv-x="600" 
d="M122 320q31 20 70 20q26 0 53.5 -9t70.5 -29q36 -17 55 -23.5t34 -6.5q23 0 43 16.5t45 55.5l40 -93q-31 -45 -59.5 -65.5t-65.5 -20.5q-24 0 -48.5 8t-61.5 26t-61 26t-46 8q-26 0 -46.5 -17t-37.5 -55l-40 93q23 45 55 66z" />
    <glyph glyph-name="uni00A0" unicode="&#xa0;" horiz-adv-x="278" 
 />
    <glyph glyph-name="exclamdown" unicode="&#xa1;" horiz-adv-x="278" 
d="M218 377h-157v154h157v-154zM213 9v-192h-148v192l39 308h71z" />
    <glyph glyph-name="cent" unicode="&#xa2;" horiz-adv-x="556" 
d="M21 250q0 77 28 138.5t82 99t129 43.5v85h59v-85q54 0 104.5 -23.5t83.5 -68.5t36 -105h-139q-3 36 -27 61.5t-58 28.5v-331q24 4 44 21t31.5 40.5t11.5 48.5h139q-5 -62 -34.5 -108.5t-79 -74.5t-112.5 -34v-101h-59v101q-70 4 -124.5 39.5t-84.5 94.5t-30 130zM188 153
q25 -45 72 -60v330q-46 -12 -71.5 -54t-25.5 -105q0 -67 25 -111z" />
    <glyph glyph-name="sterling" unicode="&#xa3;" horiz-adv-x="556" 
d="M21 309v85h64q-20 25 -32.5 62.5t-12.5 75.5q0 57 31 102.5t89 71t135 25.5q116 0 179.5 -64t64.5 -186h-135q-3 67 -30 100t-79 33q-44 0 -71 -25t-27 -68q0 -32 8 -56.5t33 -70.5h133v-85h-105q5 -14 6.5 -27t1.5 -34q0 -41 -20.5 -74.5t-61.5 -66.5l2 -2q21 13 35 18
t33 5q30 0 78 -11q4 -1 18.5 -4.5t30.5 -5.5t31 -2q27 0 46 10t41 33l60 -101q-32 -31 -71.5 -47.5t-85.5 -16.5q-36 0 -61 4.5t-50 14.5t-46.5 14.5t-49.5 4.5q-38 0 -65.5 -10.5t-49.5 -27.5l-62 93q55 35 84 78.5t29 87.5q0 14 -4 29t-15 38h-99z" />
    <glyph glyph-name="currency" unicode="&#xa4;" horiz-adv-x="556" 
d="M20 149l57 58q-24 28 -36 64t-12 78q0 44 12 82t36 62l-57 58l57 57l57 -56q25 21 65 33.5t81 12.5q36 0 73.5 -11.5t63.5 -33.5l58 57l61 -61l-56 -55q22 -24 33.5 -63t11.5 -80q0 -46 -12.5 -83.5t-33.5 -62.5l55 -56l-55 -55l-57 58q-24 -23 -61.5 -36.5t-81.5 -13.5
t-82.5 12.5t-64.5 36.5l-56 -58zM153 349q0 -38 15 -70t43.5 -51t67.5 -19q38 0 65.5 19t42 51t14.5 72q0 35 -13.5 67.5t-41 52.5t-67.5 20q-38 0 -66.5 -18.5t-44 -51t-15.5 -72.5z" />
    <glyph glyph-name="yen" unicode="&#xa5;" horiz-adv-x="556" 
d="M-9 714h163l132 -311l129 311h162l-155 -311h95v-95h-143l-15 -29v-46h158v-95h-158v-138h-152v138h-157v95h157v46l-14 29h-143v95h95z" />
    <glyph glyph-name="brokenbar" unicode="&#xa6;" horiz-adv-x="223" 
d="M165 661v-250h-107v250h107zM58 -89v250h107v-250h-107z" />
    <glyph glyph-name="section" unicode="&#xa7;" horiz-adv-x="556" 
d="M10 312q0 52 27 89t80 56q-23 26 -33 49t-10 52q0 54 30.5 93.5t78.5 59.5t100 20q60 0 108 -23t75.5 -66.5t27.5 -103.5h-124q0 38 -23.5 62t-61.5 24q-19 0 -36.5 -8t-28.5 -22.5t-11 -32.5q0 -17 11 -33t38 -33.5t75 -39.5q75 -33 112 -56t57 -44q23 -24 33.5 -49.5
t10.5 -55.5q0 -51 -28.5 -90t-75.5 -56q55 -41 55 -118q0 -53 -31 -91t-80 -57.5t-102 -19.5q-106 0 -165.5 50t-59.5 144h124q2 -44 27 -65.5t71 -21.5q28 0 51 15t23 53q0 29 -28 53q-18 15 -44.5 29t-88.5 42q-69 31 -109.5 61.5t-57.5 63t-17 70.5zM144 293
q9 -12 24 -20l165 -90q14 -8 23.5 -11t19.5 -3q13 0 23.5 9t16.5 22t6 24q0 17 -9 32.5t-36 30.5l-174 98q-8 5 -16 5q-13 0 -25 -10t-20 -25.5t-8 -31.5q0 -19 10 -30z" />
    <glyph glyph-name="dieresis" unicode="&#xa8;" 
d="M165 715h135v-117h-135v117zM-41 715h135v-117h-135v117z" />
    <glyph glyph-name="copyright" unicode="&#xa9;" horiz-adv-x="800" 
d="M16 357q0 110 53 195.5t141 132t190 46.5t190 -46.5t141 -131.5t53 -196q0 -110 -52.5 -195t-141 -132t-190.5 -47t-190 46.5t-141 132t-53 195.5zM155 207q37 -67 101.5 -105.5t143.5 -38.5q76 0 141 37.5t103 105t38 151.5t-38 151t-102.5 105t-142.5 38
q-77 0 -141.5 -38t-102 -105t-37.5 -151q0 -83 37 -150zM226 476q26 50 74 78.5t112 28.5q48 0 87 -19t63.5 -54t30.5 -82h-78q-8 35 -36 55t-67 20q-55 0 -86 -39t-31 -103q0 -39 15 -72t42 -52.5t62 -19.5q41 0 68 20.5t33 57.5h81q-8 -48 -34 -84t-64.5 -55t-83.5 -19
q-63 0 -112 29t-76 79.5t-27 113.5q0 66 27 117z" />
    <glyph glyph-name="ordfeminine" unicode="&#xaa;" horiz-adv-x="344" 
d="M10 475q0 42 23 63t51 27t85 12q32 4 47 10t15 23q0 23 -15 31t-44 8q-21 0 -34.5 -12t-15.5 -32h-102q9 57 48 83t108 26q76 0 113 -22.5t37 -67.5v-168q0 -21 3 -40.5t9 -31.5h-101q-6 20 -7 31q-18 -19 -46 -29.5t-62 -10.5q-53 0 -82.5 26t-29.5 74zM112 477
q0 -17 12 -27t34 -10q72 0 72 72v23q-6 -5 -16.5 -8.5t-31.5 -6.5q-37 -5 -53.5 -15t-16.5 -28z" />
    <glyph glyph-name="guillemotleft" unicode="&#xab;" horiz-adv-x="444" 
d="M245 340l157 123v-120l-90 -71l90 -72v-120l-157 125v135zM42 205v135l157 123v-120l-90 -71l90 -72v-120z" />
    <glyph glyph-name="logicalnot" unicode="&#xac;" horiz-adv-x="600" 
d="M544 99h-107v200h-397v107h504v-307z" />
    <glyph glyph-name="uni00AD" unicode="&#xad;" horiz-adv-x="407" 
d="M354 212h-301v122h301v-122z" />
    <glyph glyph-name="registered" unicode="&#xae;" horiz-adv-x="800" 
d="M69 553q53 85 141 131.5t190 46.5q103 0 191 -46.5t140.5 -131.5t52.5 -195t-52.5 -195.5t-140.5 -132.5t-191 -47q-102 0 -190.5 47t-141 132.5t-52.5 195.5t53 195zM118 358q0 -82 37 -149.5t101.5 -106.5t143.5 -39q77 0 141.5 38t102.5 105.5t38 151.5q0 81 -37 148
t-101.5 106t-144.5 39q-77 0 -141.5 -37.5t-102 -104.5t-37.5 -151zM251 568h160q82 0 122 -30t40 -94q0 -50 -28 -79t-82 -33l112 -183h-87l-102 179h-52v-179h-83v419zM334 503v-110h79q43 0 60 13.5t17 44.5q0 25 -21.5 38.5t-63.5 13.5h-71z" />
    <glyph glyph-name="macron" unicode="&#xaf;" 
d="M306 619h-353v75h353v-75z" />
    <glyph glyph-name="degree" unicode="&#xb0;" horiz-adv-x="400" 
d="M52 566q0 41 19.5 74.5t53.5 53.5t75 20t75 -20t53.5 -53.5t19.5 -74.5t-20 -75t-53.5 -53.5t-74.5 -19.5t-75 20t-53.5 53.5t-19.5 74.5zM129 523q11 -21 30.5 -33t40.5 -12q22 0 41 12t30.5 32.5t11.5 43.5t-11.5 43.5t-30.5 32.5t-41 12q-21 0 -40 -12t-31 -32
t-12 -44q0 -23 12 -43z" />
    <glyph glyph-name="plusminus" unicode="&#xb1;" horiz-adv-x="600" 
d="M48 268v107h199v131h107v-131h199v-107h-199v-131h-107v131h-199zM48 0v107h505v-107h-505z" />
    <glyph glyph-name="twosuperior" unicode="&#xb2;" horiz-adv-x="390" 
d="M33 397v1q0 47 9.5 79.5t30.5 57.5t58 48l75 47q27 17 38.5 33t11.5 39q0 22 -14 36t-38 14q-61 0 -64 -76h-100q0 47 20 81.5t57.5 53t87.5 18.5q72 0 112 -34t40 -93q0 -41 -22 -71q-13 -20 -35 -35.5t-69 -45.5q-21 -11 -37 -22q-20 -13 -32 -26.5t-14 -24.5h206v-80
h-321z" />
    <glyph glyph-name="threesuperior" unicode="&#xb3;" horiz-adv-x="390" 
d="M123 527q4 -29 21 -44.5t50 -15.5t53 16t20 43q0 32 -18.5 46t-58.5 14h-28v69h26q29 0 46.5 13t17.5 36t-15.5 36t-42.5 13q-62 0 -62 -66h-95q3 68 45.5 105t115.5 37q43 0 76.5 -13.5t51.5 -39t18 -60.5q0 -31 -17.5 -54t-48.5 -34q40 -8 61.5 -35t21.5 -71
q0 -40 -22.5 -70.5t-61.5 -47t-86 -16.5q-52 0 -89 17.5t-56 49t-19 72.5h96z" />
    <glyph glyph-name="acute" unicode="&#xb4;" 
d="M153 589h-99l96 142h157z" />
    <glyph glyph-name="uni00B5" unicode="&#xb5;" horiz-adv-x="593" 
d="M54 517h142v-292q0 -65 21 -96t70 -31q58 0 84 35t26 112v272h142v-517h-135v72h-3q-30 -45 -61.5 -65.5t-68.5 -20.5q-44 0 -75 24v-192h-142v699z" />
    <glyph glyph-name="paragraph" unicode="&#xb6;" horiz-adv-x="620" 
d="M2 532q0 92 59.5 137t178.5 45h295v-880h-102v800h-110v-800h-102v523q-70 0 -119.5 21.5t-74.5 61t-25 92.5z" />
    <glyph glyph-name="periodcentered" unicode="&#xb7;" horiz-adv-x="278" 
d="M55 287q0 23 12 42.5t31.5 31t41.5 11.5q23 0 42 -11.5t30.5 -31t11.5 -42.5q0 -21 -11.5 -40.5t-31 -31.5t-40.5 -12q-23 0 -42.5 11t-31.5 30.5t-12 42.5z" />
    <glyph glyph-name="cedilla" unicode="&#xb8;" 
d="M33 -147q18 -8 39.5 -13t39.5 -5q22 0 33.5 9t11.5 25q0 15 -11.5 24t-30.5 9q-18 0 -38 -8l-21 24l59 82h49l-39 -52l2 -2q8 3 19.5 5t20.5 2q39 0 62.5 -20t23.5 -57q0 -44 -32.5 -68.5t-93.5 -24.5q-35 0 -61.5 6t-53.5 16z" />
    <glyph glyph-name="onesuperior" unicode="&#xb9;" horiz-adv-x="390" 
d="M57 665v72h21q51 0 76 21.5t31 61.5h84v-423h-102v268h-110z" />
    <glyph glyph-name="ordmasculine" unicode="&#xba;" horiz-adv-x="367" 
d="M33 635q21 38 59.5 58.5t90.5 20.5t91 -20.5t60 -59t21 -90.5t-21 -90t-60 -58.5t-91 -20.5t-90.5 20.5t-59.5 58.5t-21 90t21 91zM136 478q16 -28 47 -28q22 0 36.5 14t21.5 35.5t7 44.5q0 38 -16.5 66.5t-48.5 28.5q-31 0 -47.5 -28.5t-16.5 -66.5t17 -66z" />
    <glyph glyph-name="guillemotright" unicode="&#xbb;" horiz-adv-x="444" 
d="M335 272l-90 71v120l157 -123v-135l-157 -125v120zM42 343v120l157 -123v-135l-157 -125v120l90 72z" />
    <glyph glyph-name="onequarter" unicode="&#xbc;" horiz-adv-x="834" 
d="M642 423h91v-264h57v-76h-57v-83h-96v83h-188v84zM564 722h85l-412 -744h-87zM35 620h21q51 0 76 21.5t31 61.5h84v-423h-102v268h-110v72zM637 159v154l-113 -154h113z" />
    <glyph glyph-name="onehalf" unicode="&#xbd;" horiz-adv-x="834" 
d="M470 1q0 47 9.5 79.5t30.5 57.5t58 48l75 47q27 17 38.5 33t11.5 39q0 22 -14 36t-38 14q-61 0 -64 -76h-100q0 47 20 81.5t57.5 53t87.5 18.5q72 0 112 -34t40 -93q0 -41 -22 -71q-13 -20 -35 -35.5t-69 -45.5q-21 -11 -37 -22q-20 -13 -32 -26.5t-14 -24.5h206v-80
h-321v1zM544 722h85l-412 -744h-87zM35 620h21q51 0 76 21.5t31 61.5h84v-423h-102v268h-110v72z" />
    <glyph glyph-name="threequarters" unicode="&#xbe;" horiz-adv-x="834" 
d="M672 423h91v-264h57v-76h-57v-83h-96v83h-188v84zM37 410h96q4 -29 21 -44.5t50 -15.5t53 16t20 43q0 32 -18.5 46t-58.5 14h-28v69h26q29 0 46.5 13t17.5 36t-15.5 36t-42.5 13q-62 0 -62 -66h-95q3 68 45.5 105t115.5 37q43 0 76.5 -13.5t51.5 -39t18 -60.5
q0 -31 -17 -54t-49 -34q40 -8 61.5 -35t21.5 -71q0 -40 -22.5 -70.5t-61.5 -47t-86 -16.5q-52 0 -89 17.5t-56 49t-19 72.5zM221 -22l414 744h85l-412 -744h-87zM554 159h113v154z" />
    <glyph glyph-name="questiondown" unicode="&#xbf;" horiz-adv-x="556" 
d="M52 95q20 40 67 73q39 28 53.5 40.5t25.5 29.5q16 26 16 54v29h135v-25q0 -62 -22.5 -104t-71.5 -79q-26 -20 -40 -34.5t-20 -30t-6 -36.5q0 -48 23 -69.5t62 -21.5q49 0 75 36t26 94h147q-2 -74 -33 -130t-85 -86.5t-124 -30.5q-86 0 -141.5 30t-81 74.5t-25.5 89.5
q0 57 20 97zM206 531h157v-154h-157v154z" />
    <glyph glyph-name="Agrave" unicode="&#xc0;" horiz-adv-x="685" 
d="M264 714h161l267 -714h-163l-54 159h-267l-56 -159h-159zM434 276l-90 262h-2l-93 -262h185zM158 921h157l96 -142h-99z" />
    <glyph glyph-name="Aacute" unicode="&#xc1;" horiz-adv-x="685" 
d="M264 714h161l267 -714h-163l-54 159h-267l-56 -159h-159zM249 276h185l-90 262h-2zM275 779l96 142h157l-154 -142h-99z" />
    <glyph glyph-name="Acircumflex" unicode="&#xc2;" horiz-adv-x="685" 
d="M264 714h161l267 -714h-163l-54 159h-267l-56 -159h-159zM169 779l111 142h130l110 -142h-115l-62 81l-64 -81h-110zM434 276l-90 262h-2l-93 -262h185z" />
    <glyph glyph-name="Atilde" unicode="&#xc3;" horiz-adv-x="685" 
d="M-7 0l271 714h161l267 -714h-163l-54 159h-267l-56 -159h-159zM180 850q15 28 40.5 44.5t56.5 16.5q18 0 35.5 -4.5t44.5 -14.5q24 -9 38 -12.5t25 -3.5q18 0 28 8t15 27h64q-12 -59 -39.5 -86.5t-72.5 -27.5q-18 0 -36 4t-41 12q-27 10 -41.5 14t-28.5 4q-34 0 -45 -42
h-63q4 33 20 61zM434 276l-90 262h-2l-93 -262h185z" />
    <glyph glyph-name="Adieresis" unicode="&#xc4;" horiz-adv-x="685" 
d="M264 714h161l267 -714h-163l-54 159h-267l-56 -159h-159zM434 276l-90 262h-2l-93 -262h185zM514 905v-117h-135v117h135zM173 905h135v-117h-135v117z" />
    <glyph glyph-name="Aring" unicode="&#xc5;" horiz-adv-x="685" 
d="M264 714h161l267 -714h-163l-54 159h-267l-56 -159h-159zM227 859q0 31 15.5 57.5t42.5 41.5t59 15q33 0 60 -15.5t42 -41.5t15 -57t-15.5 -57t-42.5 -41.5t-59 -15.5t-59 15t-42.5 41t-15.5 58zM249 276h185l-90 262h-2zM283 859q0 -28 17 -45.5t44 -17.5
q28 0 44.5 17.5t16.5 45.5q0 26 -16 44.5t-46 18.5q-26 0 -43 -17t-17 -46z" />
    <glyph glyph-name="AE" unicode="&#xc6;" horiz-adv-x="981" 
d="M330 714h606v-132h-332v-153h312v-122h-312v-175h340v-132h-492v159h-224l-72 -159h-167zM452 276v306h-34l-138 -306h172z" />
    <glyph glyph-name="Ccedilla" unicode="&#xc7;" horiz-adv-x="741" 
d="M38 354q0 106 42 192t121.5 135.5t187.5 49.5q80 0 147 -31t109.5 -89t51.5 -137h-152q-6 36 -29 64.5t-56.5 44.5t-70.5 16q-65 0 -108.5 -32.5t-64.5 -87.5t-21 -125q0 -68 21.5 -122t65 -85.5t107.5 -31.5q68 0 110 42t52 118h152q-8 -89 -49 -154.5t-109 -101.5
t-155 -36l-26 -35l2 -2q8 3 19.5 5t20.5 2q40 0 63 -20.5t23 -56.5q0 -44 -33 -68.5t-92 -24.5q-31 0 -57.5 5t-58.5 17l21 48q18 -8 39.5 -13t39.5 -5q22 0 33.5 9t11.5 25q0 15 -11.5 24t-30.5 9q-17 0 -38 -8l-21 24l48 68q-93 10 -162 60t-106 130t-37 178z" />
    <glyph glyph-name="Egrave" unicode="&#xc8;" horiz-adv-x="648" 
d="M69 714h534v-132h-377v-153h346v-122h-346v-175h385v-132h-542v714zM294 921l96 -142h-99l-154 142h157z" />
    <glyph glyph-name="Eacute" unicode="&#xc9;" horiz-adv-x="648" 
d="M603 714v-132h-377v-153h346v-122h-346v-175h385v-132h-542v714h534zM273 779l96 142h157l-154 -142h-99z" />
    <glyph glyph-name="Ecircumflex" unicode="&#xca;" horiz-adv-x="648" 
d="M69 0v714h534v-132h-377v-153h346v-122h-346v-175h385v-132h-542zM268 921h130l110 -142h-115l-62 81l-64 -81h-110z" />
    <glyph glyph-name="Edieresis" unicode="&#xcb;" horiz-adv-x="648" 
d="M69 714h534v-132h-377v-153h346v-122h-346v-175h385v-132h-542v714zM502 905v-117h-135v117h135zM296 905v-117h-135v117h135z" />
    <glyph glyph-name="Igrave" unicode="&#xcc;" horiz-adv-x="295" 
d="M226 0h-157v714h157v-714zM217 779h-99l-154 142h157z" />
    <glyph glyph-name="Iacute" unicode="&#xcd;" horiz-adv-x="295" 
d="M226 0h-157v714h157v-714zM174 779h-99l96 142h157z" />
    <glyph glyph-name="Icircumflex" unicode="&#xce;" horiz-adv-x="295" 
d="M69 0v714h157v-714h-157zM-28 779l111 142h130l110 -142h-115l-62 81l-64 -81h-110z" />
    <glyph glyph-name="Idieresis" unicode="&#xcf;" horiz-adv-x="295" 
d="M69 0v714h157v-714h-157zM182 905h135v-117h-135v117zM-24 905h135v-117h-135v117z" />
    <glyph glyph-name="Eth" unicode="&#xd0;" horiz-adv-x="741" 
d="M-4 418h73v296h306q101 0 174.5 -42.5t112.5 -122t39 -188.5q0 -110 -38.5 -191.5t-111 -125.5t-172.5 -44h-310v320h-73v98zM386 418v-98h-160v-188h140q50 0 90 22t64 70t24 123q0 126 -53 180.5t-154 54.5h-111v-164h160z" />
    <glyph glyph-name="Ntilde" unicode="&#xd1;" horiz-adv-x="741" 
d="M225 714l298 -479h2v479h147v-714h-157l-297 478h-2v-478h-147v714h156zM202 850q15 28 40.5 44.5t56.5 16.5q18 0 35.5 -4.5t44.5 -14.5q24 -9 38 -12.5t25 -3.5q18 0 28 8t15 27h64q-12 -59 -39.5 -86.5t-72.5 -27.5q-18 0 -36 4t-41 12q-27 10 -41.5 14t-28.5 4
q-34 0 -45 -42h-63q4 33 20 61z" />
    <glyph glyph-name="Ograve" unicode="&#xd2;" horiz-adv-x="778" 
d="M81 547q42 85 121.5 134.5t186.5 49.5q106 0 185.5 -49t122.5 -134.5t43 -193.5q0 -104 -42.5 -188.5t-122.5 -133.5t-186 -49t-186 49t-122.5 133.5t-42.5 188.5q0 107 43 193zM195 354q0 -68 21.5 -122t65.5 -85.5t107 -31.5q64 0 107.5 32t65 86t21.5 121
q0 71 -21.5 126t-65 87t-108.5 32q-63 0 -106.5 -32t-65 -87t-21.5 -126zM351 921l96 -142h-99l-154 142h157z" />
    <glyph glyph-name="Oacute" unicode="&#xd3;" horiz-adv-x="778" 
d="M81 547q42 85 121.5 134.5t186.5 49.5q106 0 185.5 -49t122.5 -134.5t43 -193.5q0 -104 -42.5 -188.5t-122.5 -133.5t-186 -49t-186 49t-122.5 133.5t-42.5 188.5q0 107 43 193zM217 232q21 -54 65 -85.5t107 -31.5q64 0 107.5 32t65 86t21.5 121q0 71 -21.5 126t-65 87
t-108.5 32q-63 0 -106.5 -32t-65 -87t-21.5 -126q0 -68 22 -122zM331 779l96 142h157l-154 -142h-99z" />
    <glyph glyph-name="Ocircumflex" unicode="&#xd4;" horiz-adv-x="778" 
d="M81 547q42 85 121.5 134.5t186.5 49.5q106 0 185.5 -49t122.5 -134.5t43 -193.5q0 -104 -42.5 -188.5t-122.5 -133.5t-186 -49t-186 49t-122.5 133.5t-42.5 188.5q0 107 43 193zM217 232q21 -54 65 -85.5t107 -31.5q64 0 107.5 32t65 86t21.5 121q0 71 -21.5 126t-65 87
t-108.5 32q-63 0 -106.5 -32t-65 -87t-21.5 -126q0 -68 22 -122zM326 921h130l110 -142h-115l-62 81l-64 -81h-110z" />
    <glyph glyph-name="Otilde" unicode="&#xd5;" horiz-adv-x="778" 
d="M81 547q42 85 121.5 134.5t186.5 49.5q106 0 185.5 -49t122.5 -134.5t43 -193.5q0 -104 -42.5 -188.5t-122.5 -133.5t-186 -49t-186 49t-122.5 133.5t-42.5 188.5q0 107 43 193zM217 232q21 -54 65 -85.5t107 -31.5q64 0 107.5 32t65 86t21.5 121q0 71 -21.5 126t-65 87
t-108.5 32q-63 0 -106.5 -32t-65 -87t-21.5 -126q0 -68 22 -122zM206 789q4 33 19.5 61t41 44.5t56.5 16.5q18 0 35.5 -4.5t44.5 -14.5q24 -9 38 -12.5t25 -3.5q18 0 28 8t15 27h64q-12 -59 -39.5 -86.5t-72.5 -27.5q-18 0 -36 4t-41 12q-27 10 -41.5 14t-28.5 4
q-34 0 -45 -42h-63z" />
    <glyph glyph-name="Odieresis" unicode="&#xd6;" horiz-adv-x="778" 
d="M38 354q0 107 42.5 192.5t122 135t186.5 49.5q106 0 185.5 -49t122.5 -134.5t43 -193.5q0 -104 -42.5 -188.5t-122.5 -133.5t-186 -49t-186 49t-122.5 133.5t-42.5 188.5zM217 232q21 -54 65 -85.5t107 -31.5q64 0 107.5 32t65 86t21.5 121q0 71 -21.5 126t-65 87
t-108.5 32q-63 0 -106.5 -32t-65 -87t-21.5 -126q0 -68 22 -122zM425 788v117h135v-117h-135zM219 788v117h135v-117h-135z" />
    <glyph glyph-name="multiply" unicode="&#xd7;" horiz-adv-x="600" 
d="M301 329l160 160l76 -76l-161 -160l161 -160l-76 -76l-160 161l-161 -161l-76 76l161 160l-159 160l76 76z" />
    <glyph glyph-name="Oslash" unicode="&#xd8;" horiz-adv-x="778" 
d="M120 105q-41 50 -61.5 113t-20.5 136q0 106 42 192t121.5 135.5t187.5 49.5q66 0 123.5 -19.5t101.5 -57.5l80 89l50 -44l-84 -93q40 -50 60 -115t20 -137q0 -105 -43 -189.5t-123 -133t-185 -48.5q-64 0 -120.5 19t-102.5 57l-83 -92l-49 43zM223 219l296 329
q-51 51 -131 51q-63 0 -106.5 -32t-65 -87t-21.5 -126q0 -77 28 -135zM261 164q49 -49 128 -49q67 0 110.5 33.5t63.5 87.5t20 118q0 76 -27 136z" />
    <glyph glyph-name="Ugrave" unicode="&#xd9;" horiz-adv-x="741" 
d="M66 714h157v-447q0 -79 35.5 -115.5t111.5 -36.5q55 0 87 16t46.5 49t14.5 87v447h157v-447q0 -89 -34.5 -153t-102.5 -97.5t-168 -33.5q-152 0 -228 74t-76 210v447zM332 921l96 -142h-99l-154 142h157z" />
    <glyph glyph-name="Uacute" unicode="&#xda;" horiz-adv-x="741" 
d="M66 267v447h157v-447q0 -79 35.5 -115.5t111.5 -36.5q55 0 87 16t46.5 49t14.5 87v447h157v-447q0 -89 -34.5 -153t-102.5 -97.5t-168 -33.5q-152 0 -228 74t-76 210zM312 779l96 142h157l-154 -142h-99z" />
    <glyph glyph-name="Ucircumflex" unicode="&#xdb;" horiz-adv-x="741" 
d="M66 714h157v-447q0 -79 35.5 -115.5t111.5 -36.5q55 0 87 16t46.5 49t14.5 87v447h157v-447q0 -89 -34.5 -153t-102.5 -97.5t-168 -33.5q-152 0 -228 74t-76 210v447zM196 779l111 142h130l110 -142h-115l-62 81l-64 -81h-110z" />
    <glyph glyph-name="Udieresis" unicode="&#xdc;" horiz-adv-x="741" 
d="M66 267v447h157v-447q0 -79 35.5 -115.5t111.5 -36.5q55 0 87 16t46.5 49t14.5 87v447h157v-447q0 -89 -34.5 -153t-102.5 -97.5t-168 -33.5q-152 0 -228 74t-76 210zM406 905h135v-117h-135v117zM200 905h135v-117h-135v117z" />
    <glyph glyph-name="Yacute" unicode="&#xdd;" horiz-adv-x="667" 
d="M-9 714h177l167 -282l166 282h175l-265 -440v-274h-157v278zM374 921h157l-154 -142h-99z" />
    <glyph glyph-name="Thorn" unicode="&#xde;" horiz-adv-x="667" 
d="M69 714h157v-97h167q78 0 133.5 -29.5t83.5 -81t28 -118.5q0 -64 -27 -116t-82.5 -82.5t-137.5 -30.5h-165v-159h-157v714zM226 281h125q69 0 102 25.5t33 81.5t-33 81.5t-104 25.5h-123v-214z" />
    <glyph glyph-name="germandbls" unicode="&#xdf;" horiz-adv-x="611" 
d="M56 0v494q0 237 235 237q65 0 116.5 -22t81 -65.5t29.5 -103.5q0 -33 -12 -61.5t-33 -49.5t-48 -29v-2q40 -8 69.5 -33t45 -62.5t15.5 -83.5q0 -62 -28 -115.5t-78 -85.5t-112 -32q-37 0 -81 6v116q16 -5 40 -5q33 0 60 16t42 43.5t15 62.5q0 58 -32 89.5t-90 31.5
q-15 0 -35 -2v94q16 -2 22 -2q28 0 52 10t38.5 30t14.5 49q0 44 -24 66.5t-71 22.5q-45 0 -67.5 -27t-22.5 -71v-516h-142z" />
    <glyph glyph-name="agrave" unicode="&#xe0;" horiz-adv-x="574" 
d="M77 251q25 21 64 33t103 19q52 6 78.5 12t40 18t13.5 34q0 40 -24 54.5t-67 14.5q-45 0 -68 -19t-27 -59h-142q3 56 33.5 94.5t84 58.5t126.5 20q113 0 169.5 -37.5t56.5 -109.5v-274q0 -34 4.5 -64.5t13.5 -45.5h-144q-9 28 -10 50q-30 -31 -74.5 -47.5t-99.5 -16.5
q-53 0 -93 18t-61.5 53t-21.5 84q0 71 45 110zM261 81q57 0 86 30t29 87v55q-10 -9 -30 -14.5t-56 -10.5q-40 -5 -64.5 -13.5t-38 -24.5t-13.5 -43q0 -66 87 -66zM260 731l96 -142h-99l-154 142h157z" />
    <glyph glyph-name="aacute" unicode="&#xe1;" horiz-adv-x="574" 
d="M77 251q25 21 64 33t103 19q52 6 78.5 12t40 18t13.5 34q0 40 -24 54.5t-67 14.5q-45 0 -68 -19t-27 -59h-142q3 56 33.5 94.5t84 58.5t126.5 20q113 0 169.5 -37.5t56.5 -109.5v-274q0 -34 4.5 -64.5t13.5 -45.5h-144q-9 28 -10 50q-30 -31 -74.5 -47.5t-99.5 -16.5
q-53 0 -93 18t-61.5 53t-21.5 84q0 71 45 110zM174 147q0 -66 87 -66q57 0 86 30t29 87v55q-10 -9 -30 -14.5t-56 -10.5q-40 -5 -64.5 -13.5t-38 -24.5t-13.5 -43zM232 589l96 142h157l-154 -142h-99z" />
    <glyph glyph-name="acircumflex" unicode="&#xe2;" horiz-adv-x="574" 
d="M32 141q0 71 45 110q25 21 64 33t103 19q52 6 78.5 12t40 18t13.5 34q0 40 -24 54.5t-67 14.5q-45 0 -68 -19t-27 -59h-142q3 56 33.5 94.5t84 58.5t126.5 20q113 0 169.5 -37.5t56.5 -109.5v-274q0 -34 4.5 -64.5t13.5 -45.5h-144q-9 28 -10 50q-30 -31 -74.5 -47.5
t-99.5 -16.5q-53 0 -93 18t-61.5 53t-21.5 84zM120 589l111 142h130l110 -142h-115l-62 81l-64 -81h-110zM174 147q0 -66 87 -66q57 0 86 30t29 87v55q-10 -9 -30 -14.5t-56 -10.5q-40 -5 -64.5 -13.5t-38 -24.5t-13.5 -43z" />
    <glyph glyph-name="atilde" unicode="&#xe3;" horiz-adv-x="574" 
d="M32 141q0 71 45 110q25 21 64 33t103 19q52 6 78.5 12t40 18t13.5 34q0 40 -24 54.5t-67 14.5q-45 0 -68 -19t-27 -59h-142q3 56 33.5 94.5t84 58.5t126.5 20q113 0 169.5 -37.5t56.5 -109.5v-274q0 -34 4.5 -64.5t13.5 -45.5h-144q-9 28 -10 50q-30 -31 -74.5 -47.5
t-99.5 -16.5q-53 0 -93 18t-61.5 53t-21.5 84zM111 599q4 32 19.5 60t40.5 45t57 17q15 0 32.5 -4t42.5 -13q25 -10 40 -14t28 -4q18 0 28 8t15 27h64q-12 -60 -40 -87t-72 -27q-18 0 -35.5 4t-41.5 12q-27 10 -41.5 14t-28.5 4q-33 0 -45 -42h-63zM261 81q57 0 86 30t29 87
v55q-10 -9 -30 -14.5t-56 -10.5q-40 -5 -64.5 -13.5t-38 -24.5t-13.5 -43q0 -66 87 -66z" />
    <glyph glyph-name="adieresis" unicode="&#xe4;" horiz-adv-x="574" 
d="M77 251q25 21 64 33t103 19q52 6 78.5 12t40 18t13.5 34q0 40 -24 54.5t-67 14.5q-45 0 -68 -19t-27 -59h-142q3 56 33.5 94.5t84 58.5t126.5 20q113 0 169.5 -37.5t56.5 -109.5v-274q0 -34 4.5 -64.5t13.5 -45.5h-144q-9 28 -10 50q-30 -31 -74.5 -47.5t-99.5 -16.5
q-53 0 -93 18t-61.5 53t-21.5 84q0 71 45 110zM174 147q0 -66 87 -66q57 0 86 30t29 87v55q-10 -9 -30 -14.5t-56 -10.5q-40 -5 -64.5 -13.5t-38 -24.5t-13.5 -43zM330 598v117h135v-117h-135zM124 715h135v-117h-135v117z" />
    <glyph glyph-name="aring" unicode="&#xe5;" horiz-adv-x="574" 
d="M77 251q25 21 64 33t103 19q52 6 78.5 12t40 18t13.5 34q0 40 -24 54.5t-67 14.5q-45 0 -68 -19t-27 -59h-142q3 56 33.5 94.5t84 58.5t126.5 20q113 0 169.5 -37.5t56.5 -109.5v-274q0 -34 4.5 -64.5t13.5 -45.5h-144q-9 28 -10 50q-30 -31 -74.5 -47.5t-99.5 -16.5
q-53 0 -93 18t-61.5 53t-21.5 84q0 71 45 110zM189 745q16 27 44.5 43t62.5 16q35 0 63 -15.5t43.5 -43t15.5 -61.5t-16.5 -61.5t-44.5 -43t-62 -15.5q-36 0 -63.5 16t-43 43.5t-15.5 60.5q0 34 16 61zM174 147q0 -66 87 -66q57 0 86 30t29 87v55q-10 -9 -30 -14.5
t-56 -10.5q-40 -5 -64.5 -13.5t-38 -24.5t-13.5 -43zM232 684q0 -29 16.5 -48t46.5 -19q29 0 46.5 18.5t17.5 48.5q0 29 -16.5 48t-47.5 19q-27 0 -45 -18t-18 -49z" />
    <glyph glyph-name="ae" unicode="&#xe6;" horiz-adv-x="907" 
d="M38 140q0 52 22 84q15 22 36 36.5t55.5 25t90.5 17.5q59 7 88.5 14.5t42 19.5t12.5 33q0 66 -92 66q-94 0 -99 -80h-142q2 58 33.5 97.5t85.5 58.5t124 19q58 0 103.5 -18.5t68.5 -51.5q32 37 72 53.5t101 16.5q74 0 127.5 -36.5t82 -105.5t28.5 -165h-369v-6
q0 -36 15.5 -67.5t44 -50.5t63.5 -19q44 0 70 20t33 61h138q-15 -56 -50.5 -95.5t-84 -60t-103.5 -20.5q-62 0 -112.5 22.5t-80.5 65.5q-32 -43 -88.5 -65.5t-122.5 -22.5q-88 0 -140.5 39t-52.5 115zM180 148q0 -32 22.5 -49.5t65.5 -17.5q29 0 56 12t44 36t17 58v65
q-13 -10 -32 -15.5t-70 -12.5q-59 -8 -81 -26.5t-22 -49.5zM509 314h227q0 32 -13 60t-38 45t-61 17q-31 0 -57 -15t-42 -43t-16 -64z" />
    <glyph glyph-name="ccedilla" unicode="&#xe7;" horiz-adv-x="574" 
d="M70 398q32 63 92 98t140 35q66 0 120 -23t87 -67.5t36 -105.5h-139q-14 89 -105 89q-42 0 -69 -24.5t-39.5 -62.5t-12.5 -81t12 -80t38.5 -60t67.5 -23q48 0 77 27.5t36 77.5h137q-9 -63 -38.5 -109.5t-79.5 -73.5t-118 -29l-28 -38l2 -2q17 7 40 7q40 0 63 -20.5
t23 -56.5q0 -44 -33 -68.5t-92 -24.5q-31 0 -58 5t-58 17l21 48q18 -8 39.5 -13t39.5 -5q20 0 32.5 8.5t12.5 25.5q0 15 -11.5 24t-30.5 9q-18 0 -38 -8l-21 24l50 70q-71 7 -122 43.5t-78 94t-27 125.5q0 83 32 147z" />
    <glyph glyph-name="egrave" unicode="&#xe8;" horiz-adv-x="574" 
d="M63 398q33 62 93 97.5t137 35.5q79 0 136 -37.5t86.5 -101.5t29.5 -142l-1 -26h-373q3 -67 34 -99t92 -32q26 0 50 9t41 24.5t22 33.5h125q-28 -88 -88.5 -131t-153.5 -43q-81 0 -140.5 34.5t-91.5 96.5t-32 141q0 77 34 140zM402 314q-10 58 -37 84t-77 26
q-51 0 -81.5 -29t-35.5 -81h231zM102 731h157l96 -142h-99z" />
    <glyph glyph-name="eacute" unicode="&#xe9;" horiz-adv-x="574" 
d="M29 258q0 77 33.5 139.5t93.5 98t137 35.5q79 0 136 -37.5t86.5 -101.5t29.5 -142l-1 -26h-373q3 -67 34 -99t92 -32q26 0 50 9t41 24.5t22 33.5h125q-28 -88 -88.5 -131t-153.5 -43q-81 0 -140.5 34.5t-91.5 96.5t-32 141zM402 314q-10 58 -37 84t-77 26
q-51 0 -81.5 -29t-35.5 -81h231zM327 731h157l-154 -142h-99z" />
    <glyph glyph-name="ecircumflex" unicode="&#xea;" horiz-adv-x="574" 
d="M29 258q0 77 33.5 139.5t93.5 98t137 35.5q79 0 136 -37.5t86.5 -101.5t29.5 -142l-1 -26h-373q3 -67 34 -99t92 -32q26 0 50 9t41 24.5t22 33.5h125q-28 -88 -88.5 -131t-153.5 -43q-81 0 -140.5 34.5t-91.5 96.5t-32 141zM230 731h130l110 -142h-115l-62 81l-64 -81
h-110zM171 314h231q-10 58 -37 84t-77 26q-51 0 -81.5 -29t-35.5 -81z" />
    <glyph glyph-name="edieresis" unicode="&#xeb;" horiz-adv-x="574" 
d="M29 258q0 77 33.5 139.5t93.5 98t137 35.5q79 0 136 -37.5t86.5 -101.5t29.5 -142l-1 -26h-373q3 -67 34 -99t92 -32q26 0 50 9t41 24.5t22 33.5h125q-28 -88 -88.5 -131t-153.5 -43q-81 0 -140.5 34.5t-91.5 96.5t-32 141zM171 314h231q-10 58 -37 84t-77 26
q-51 0 -81.5 -29t-35.5 -81zM329 598v117h135v-117h-135zM123 715h135v-117h-135v117z" />
    <glyph glyph-name="igrave" unicode="&#xec;" horiz-adv-x="258" 
d="M200 0h-142v517h142v-517zM201 589h-99l-154 142h157z" />
    <glyph glyph-name="iacute" unicode="&#xed;" horiz-adv-x="258" 
d="M200 0h-142v517h142v-517zM156 589h-99l96 142h157z" />
    <glyph glyph-name="icircumflex" unicode="&#xee;" horiz-adv-x="258" 
d="M58 0v517h142v-517h-142zM-45 589l111 142h130l110 -142h-115l-62 81l-64 -81h-110z" />
    <glyph glyph-name="idieresis" unicode="&#xef;" horiz-adv-x="258" 
d="M58 0v517h142v-517h-142zM165 715h135v-117h-135v117zM-41 715h135v-117h-135v117z" />
    <glyph glyph-name="eth" unicode="&#xf0;" horiz-adv-x="611" 
d="M38 250q0 69 26.5 127.5t79.5 93.5t129 35q42 0 77.5 -13t62.5 -37h2q-17 44 -43 80.5t-54 56.5l-117 -56l-46 59l92 43q-20 11 -45 21.5t-29 12.5l74 70q36 -12 61.5 -24t48.5 -26l106 50l46 -59l-89 -41q79 -71 116 -161.5t37 -209.5q0 -83 -33 -148t-94 -101.5
t-141 -36.5t-140.5 34t-93.5 94.5t-33 135.5zM209 141q29 -48 96 -48q64 0 95 45t31 119q0 39 -12.5 74t-41.5 57.5t-74 22.5q-39 0 -67 -20t-42 -54.5t-14 -79.5q0 -69 29 -116z" />
    <glyph glyph-name="ntilde" unicode="&#xf1;" horiz-adv-x="593" 
d="M54 0v517h135v-72h3q25 41 67 63.5t92 22.5q98 0 143 -50t45 -159v-322h-142v293q0 65 -21 95.5t-70 30.5q-43 0 -67 -18t-33.5 -50.5t-9.5 -81.5v-269h-142zM132 659q15 28 40 45t57 17q15 0 32.5 -4t42.5 -13q25 -10 40 -14t28 -4q18 0 28 8t15 27h64q-12 -60 -40 -87
t-72 -27q-18 0 -35.5 4t-41.5 12q-27 10 -41.5 14t-28.5 4q-33 0 -45 -42h-63q4 32 20 60z" />
    <glyph glyph-name="ograve" unicode="&#xf2;" horiz-adv-x="611" 
d="M38 258q0 82 33 143.5t93.5 95.5t140.5 34q81 0 141.5 -34t93.5 -96t33 -143q0 -82 -33.5 -143.5t-94.5 -95t-140 -33.5q-81 0 -141 34t-93 95.5t-33 142.5zM213 136q32 -43 92 -43q62 0 94 43.5t32 121.5q0 72 -29.5 119t-97.5 47q-59 0 -91.5 -43.5t-32.5 -122.5
t33 -122zM272 731l96 -142h-99l-154 142h157z" />
    <glyph glyph-name="oacute" unicode="&#xf3;" horiz-adv-x="611" 
d="M71 402q33 61 93.5 95t140.5 34q81 0 141.5 -34t93.5 -96t33 -143q0 -82 -33.5 -143.5t-94.5 -95t-140 -33.5q-81 0 -141 34t-93 95.5t-33 142.5q0 82 33 144zM213 136q32 -43 92 -43q62 0 94 43.5t32 121.5q0 72 -29.5 119t-97.5 47q-59 0 -91.5 -43.5t-32.5 -122.5
t33 -122zM340 731h157l-154 -142h-99z" />
    <glyph glyph-name="ocircumflex" unicode="&#xf4;" horiz-adv-x="611" 
d="M71 402q33 61 93.5 95t140.5 34q81 0 141.5 -34t93.5 -96t33 -143q0 -82 -33.5 -143.5t-94.5 -95t-140 -33.5q-81 0 -141 34t-93 95.5t-33 142.5q0 82 33 144zM213 136q32 -43 92 -43q62 0 94 43.5t32 121.5q0 72 -29.5 119t-97.5 47q-59 0 -91.5 -43.5t-32.5 -122.5
t33 -122zM243 731h130l110 -142h-115l-62 81l-64 -81h-110z" />
    <glyph glyph-name="otilde" unicode="&#xf5;" horiz-adv-x="611" 
d="M71 402q33 61 93.5 95t140.5 34q81 0 141.5 -34t93.5 -96t33 -143q0 -82 -33.5 -143.5t-94.5 -95t-140 -33.5q-81 0 -141 34t-93 95.5t-33 142.5q0 82 33 144zM213 136q32 -43 92 -43q62 0 94 43.5t32 121.5q0 72 -29.5 119t-97.5 47q-59 0 -91.5 -43.5t-32.5 -122.5
t33 -122zM143 659q15 28 40 45t57 17q15 0 32.5 -4t42.5 -13q25 -10 40 -14t28 -4q18 0 28 8t15 27h64q-12 -60 -40 -87t-72 -27q-18 0 -35.5 4t-41.5 12q-27 10 -41.5 14t-28.5 4q-33 0 -45 -42h-63q4 32 20 60z" />
    <glyph glyph-name="odieresis" unicode="&#xf6;" horiz-adv-x="611" 
d="M38 258q0 82 33 143.5t93.5 95.5t140.5 34q81 0 141.5 -34t93.5 -96t33 -143q0 -82 -33.5 -143.5t-94.5 -95t-140 -33.5q-81 0 -141 34t-93 95.5t-33 142.5zM180 258q0 -79 32.5 -122t92.5 -43q62 0 94 43.5t32 121.5q0 72 -29.5 119t-97.5 47q-59 0 -91.5 -43.5
t-32.5 -122.5zM342 598v117h135v-117h-135zM136 715h135v-117h-135v117z" />
    <glyph glyph-name="divide" unicode="&#xf7;" horiz-adv-x="600" 
d="M48 306h505v-107h-505v107zM228 503q12 19 31.5 30.5t41.5 11.5t41.5 -11.5t31 -31t11.5 -42.5q0 -21 -11.5 -40.5t-31 -31.5t-40.5 -12q-23 0 -43 11.5t-31.5 30.5t-11.5 42t12 43zM216 45q0 23 11.5 42t31 30.5t42.5 11.5t42 -11.5t30.5 -30.5t11.5 -42q0 -21 -12 -41
t-31 -32t-40 -12q-23 0 -43 12t-31.5 31.5t-11.5 41.5z" />
    <glyph glyph-name="oslash" unicode="&#xf8;" horiz-adv-x="611" 
d="M38 258q0 82 33 143.5t93.5 95.5t140.5 34q95 0 163 -48l53 61l37 -32l-54 -61q34 -36 51.5 -85.5t17.5 -107.5q0 -82 -33 -143.5t-94 -95t-141 -33.5q-97 0 -165 50l-59 -67l-37 32l60 68q-66 72 -66 189zM305 93q62 0 94 43.5t32 121.5q0 51 -16 91l-195 -222
q31 -34 85 -34zM195 172l193 220q-30 32 -84 32q-60 0 -92 -43.5t-32 -122.5q0 -51 15 -86z" />
    <glyph glyph-name="ugrave" unicode="&#xf9;" horiz-adv-x="593" 
d="M54 517h142v-293q0 -63 20.5 -94.5t70.5 -31.5q58 0 84 35t26 112v272h142v-517h-135v72h-3q-26 -42 -68 -64t-91 -22q-67 0 -108.5 23t-60.5 69t-19 118v321zM264 731l96 -142h-99l-154 142h157z" />
    <glyph glyph-name="uacute" unicode="&#xfa;" horiz-adv-x="593" 
d="M54 517h142v-293q0 -63 20.5 -94.5t70.5 -31.5q58 0 84 35t26 112v272h142v-517h-135v72h-3q-26 -42 -68 -64t-91 -22q-67 0 -108.5 23t-60.5 69t-19 118v321zM236 589l96 142h157l-154 -142h-99z" />
    <glyph glyph-name="ucircumflex" unicode="&#xfb;" horiz-adv-x="593" 
d="M196 517v-293q0 -63 20.5 -94.5t70.5 -31.5q58 0 84 35t26 112v272h142v-517h-135v72h-3q-26 -42 -68 -64t-91 -22q-67 0 -108.5 23t-60.5 69t-19 118v321h142zM235 731h130l110 -142h-115l-62 81l-64 -81h-110z" />
    <glyph glyph-name="udieresis" unicode="&#xfc;" horiz-adv-x="593" 
d="M196 517v-293q0 -63 20.5 -94.5t70.5 -31.5q58 0 84 35t26 112v272h142v-517h-135v72h-3q-26 -42 -68 -64t-91 -22q-67 0 -108.5 23t-60.5 69t-19 118v321h142zM334 715h135v-117h-135v117zM128 715h135v-117h-135v117z" />
    <glyph glyph-name="yacute" unicode="&#xfd;" horiz-adv-x="519" 
d="M-6 517h152l117 -354h2l113 354h147l-216 -582q-23 -61 -64 -89t-112 -28q-39 0 -89 5v117q38 -5 75 -5q29 0 46 18t17 47q0 15 -6 32zM298 731h157l-154 -142h-99z" />
    <glyph glyph-name="thorn" unicode="&#xfe;" horiz-adv-x="611" 
d="M54 714h142v-263h2q24 39 62.5 59.5t85.5 20.5q75 0 128 -36.5t79.5 -99.5t26.5 -142q0 -72 -26 -132.5t-77.5 -97.5t-123.5 -37q-49 0 -89 20.5t-66 57.5h-2v-246h-142v896zM191 257q0 -71 30 -117.5t94 -46.5q61 0 92 44.5t31 119.5q0 40 -11 78t-39 63.5t-75 25.5
q-62 0 -92 -46.5t-30 -120.5z" />
    <glyph glyph-name="ydieresis" unicode="&#xff;" horiz-adv-x="519" 
d="M-6 517h152l117 -354h2l113 354h147l-216 -582q-23 -61 -64 -89t-112 -28q-39 0 -89 5v117q38 -5 75 -5q29 0 46 18t17 47q0 15 -6 32zM300 715h135v-117h-135v117zM94 598v117h135v-117h-135z" />
    <glyph glyph-name="Gbreve" unicode="&#x11e;" horiz-adv-x="759" 
d="M80 547q42 85 121.5 134.5t187.5 49.5q77 0 143.5 -31t108.5 -88t49 -133h-150q-14 59 -53.5 89.5t-97.5 30.5q-63 0 -106.5 -31.5t-65.5 -87t-22 -126.5q0 -66 20.5 -120t64 -86.5t109.5 -32.5q76 0 119.5 38.5t50.5 115.5h-158v117h300v-386h-100l-16 81
q-38 -49 -88 -73.5t-108 -24.5q-106 0 -186 49t-122.5 133.5t-42.5 188.5q0 107 42 193zM283 921q5 -33 33.5 -50t65.5 -17q94 0 110 67h63q-9 -70 -53.5 -106t-124.5 -36q-72 0 -112.5 36.5t-46.5 105.5h65z" />
    <glyph glyph-name="gbreve" unicode="&#x11f;" horiz-adv-x="611" 
d="M64 402q26 58 76 93.5t120 35.5q55 0 92.5 -20.5t61.5 -62.5h2v69h135v-485q0 -106 -65.5 -167t-201.5 -61q-61 0 -112 20t-82.5 57.5t-34.5 88.5h141q17 -71 106 -71q55 0 84.5 33t29.5 92v71h-2q-21 -38 -62 -59t-93 -21q-73 0 -122.5 33t-74 91.5t-24.5 135.5
q0 68 26 127zM209 166q28 -44 86 -44q37 0 64.5 19t42 51.5t14.5 73.5q0 66 -27 112t-95 46q-36 0 -61.5 -19t-39 -52t-13.5 -76q0 -68 29 -111zM143 731h65q4 -31 32 -49t67 -18q47 0 74 16.5t36 50.5h63q-9 -70 -54 -106t-124 -36q-72 0 -112.5 36.5t-46.5 105.5z" />
    <glyph glyph-name="Idotaccent" unicode="&#x130;" horiz-adv-x="295" 
d="M226 0h-157v714h157v-714zM215 788h-135v117h135v-117z" />
    <glyph glyph-name="dotlessi" unicode="&#x131;" horiz-adv-x="258" 
d="M200 0h-142v517h142v-517z" />
    <glyph glyph-name="Lslash" unicode="&#x141;" horiz-adv-x="593" 
d="M-11 270l80 56v388h157v-278l211 148v-112l-211 -148v-192h348v-132h-505v214l-80 -56v112z" />
    <glyph glyph-name="lslash" unicode="&#x142;" horiz-adv-x="258" 
d="M-9 335l67 53v326h142v-214l67 53v-102l-67 -53v-398h-142v286l-67 -53v102z" />
    <glyph glyph-name="OE" unicode="&#x152;" horiz-adv-x="1093" 
d="M38 353q0 99 39.5 185.5t115.5 139.5t180 53q55 0 99 -17.5t70 -50.5h2v51h500v-132h-354v-153h324v-122h-324v-175h361v-132h-507v54h-2q-31 -34 -76.5 -52.5t-95.5 -18.5q-100 0 -175.5 49.5t-116 133.5t-40.5 187zM215 237q20 -55 62 -88.5t104 -33.5q48 0 83.5 21
t54.5 57.5t19 83.5v172q0 42 -19.5 76.5t-54.5 54t-81 19.5q-63 0 -105.5 -33.5t-62.5 -88.5t-20 -122q0 -64 20 -118z" />
    <glyph glyph-name="oe" unicode="&#x153;" horiz-adv-x="926" 
d="M69 398q31 61 89 97t134 36q61 0 106.5 -21.5t71.5 -60.5q24 37 73.5 59.5t100.5 22.5q79 0 135.5 -36t87 -105t30.5 -166h-369q0 -62 33 -96.5t90 -34.5q39 0 64.5 17.5t39.5 53.5h138q-16 -56 -50.5 -96t-83.5 -61t-108 -21q-62 0 -111 22.5t-76 65.5q-25 -42 -74 -65
t-109 -23q-77 0 -132 37t-83 99.5t-28 138.5q0 75 31 137zM192 176q11 -37 35.5 -60t62.5 -23q56 0 85 42.5t29 124.5q0 81 -28.5 122.5t-83.5 41.5q-54 0 -83 -46t-29 -122q0 -43 12 -80zM755 314q-2 53 -31 81.5t-84 28.5q-48 0 -78.5 -29t-33.5 -81h227z" />
    <glyph glyph-name="Scedilla" unicode="&#x15e;" horiz-adv-x="649" 
d="M24 237h152q0 -48 22.5 -77.5t58 -42t76.5 -12.5q61 0 100.5 22t39.5 67q0 35 -29 57t-97 39q-12 3 -21.5 5.5t-16.5 4.5q-57 14 -95 25q-81 25 -123.5 71t-42.5 119q0 69 38 118t99 73.5t130 24.5q81 0 145.5 -25t102.5 -76.5t38 -128.5h-152q-3 54 -37 81t-103 27
q-46 0 -77.5 -20.5t-31.5 -60.5q0 -18 5.5 -29.5t19.5 -20.5t41 -18q20 -7 64.5 -18.5t103.5 -26.5q93 -23 142 -74t49 -129q0 -68 -34.5 -119t-100.5 -80t-157 -30l-26 -35l2 -2q8 3 19.5 5t20.5 2q39 0 62.5 -20t23.5 -57q0 -44 -33 -68.5t-93 -24.5q-31 0 -57.5 5
t-57.5 17l21 48q18 -8 39.5 -13t38.5 -5q22 0 34 9t12 25q0 15 -11.5 24t-31.5 9q-16 0 -37 -8l-21 24l48 67q-79 8 -138 39t-91.5 83.5t-32.5 122.5v7z" />
    <glyph glyph-name="scedilla" unicode="&#x15f;" horiz-adv-x="537" 
d="M29 168h135q0 -42 31 -64.5t78 -22.5q39 0 66 17t27 48q0 19 -14 32t-47 24t-95 24q-61 13 -98 31t-54 44.5t-17 63.5q0 82 57.5 124t167.5 42q104 0 162.5 -42t65.5 -123h-135q-3 37 -27.5 53.5t-69.5 16.5q-79 0 -79 -48q0 -19 14 -31t40 -20.5t71 -17.5
q70 -14 104 -28t57 -33q39 -34 39 -92q0 -84 -59.5 -131t-169.5 -49l-28 -38l2 -2q8 3 19.5 5t20.5 2q40 0 63 -20.5t23 -56.5q0 -44 -33 -68.5t-93 -24.5q-29 0 -56 5t-59 17l21 48q18 -8 39.5 -13t39.5 -5q22 0 33.5 9t11.5 25t-12.5 24.5t-29.5 8.5q-18 0 -38 -8l-21 24
l50 70q-97 9 -148.5 55t-54.5 125z" />
    <glyph glyph-name="Scaron" unicode="&#x160;" horiz-adv-x="649" 
d="M24 237h152q0 -48 22.5 -77.5t58 -42t76.5 -12.5q60 0 100 21.5t40 67.5q0 34 -28.5 56.5t-94.5 38.5l-47 12q-10 3 -41 11t-57 16q-80 27 -118.5 73t-38.5 115t38 117.5t99.5 73t129.5 24.5q80 0 144.5 -24.5t103 -76t38.5 -129.5h-152q-4 55 -37.5 81.5t-102.5 26.5
q-47 0 -78 -20.5t-31 -60.5q0 -27 14 -41.5t50.5 -26.5t125.5 -34q71 -18 119 -38.5t82 -63t34 -112.5q0 -68 -35 -119.5t-102 -80.5t-160 -29q-80 0 -149 26.5t-112 82.5t-43 140v5zM268 921l62 -81l64 81h110l-111 -142h-130l-110 142h115z" />
    <glyph glyph-name="scaron" unicode="&#x161;" horiz-adv-x="537" 
d="M164 168q0 -42 31 -64.5t78 -22.5q39 0 66 17t27 49q0 19 -15.5 32t-48.5 24t-92 23q-61 13 -97.5 31t-54 44.5t-17.5 63.5q0 82 57.5 124t167.5 42q105 0 163 -42.5t65 -122.5h-135q-3 37 -27.5 53.5t-69.5 16.5q-79 0 -79 -48q0 -17 11 -28.5t35 -20.5t65 -17
q76 -15 113 -29t61 -34q40 -36 40 -93q0 -63 -32.5 -103.5t-85.5 -58.5t-118 -18q-72 0 -125.5 20.5t-84.5 61t-33 100.5h135zM211 731l62 -81l64 81h110l-111 -142h-130l-110 142h115z" />
    <glyph glyph-name="Ydieresis" unicode="&#x178;" horiz-adv-x="667" 
d="M-9 714h177l167 -282l166 282h175l-265 -440v-274h-157v278zM372 905h135v-117h-135v117zM301 905v-117h-135v117h135z" />
    <glyph glyph-name="Zcaron" unicode="&#x17d;" horiz-adv-x="648" 
d="M23 0v124l383 458h-353v132h562v-124l-383 -458h393v-132h-602zM158 921h115l62 -81l64 81h110l-111 -142h-130z" />
    <glyph glyph-name="zcaron" unicode="&#x17e;" horiz-adv-x="519" 
d="M22 0v107l269 303h-249v107h436v-107l-269 -303h288v-107h-475zM201 731l62 -81l64 81h110l-111 -142h-130l-110 142h115z" />
    <glyph glyph-name="uni018F" unicode="&#x18f;" horiz-adv-x="752" 
d="M39 399h508q-1 61 -24 107.5t-63.5 72t-93.5 25.5q-44 0 -79 -18t-57 -48.5t-29 -67.5h-153q14 78 59.5 137t114 91.5t148.5 32.5q101 0 179 -47.5t121.5 -132.5t43.5 -195q0 -109 -42.5 -194t-120 -132t-178.5 -47q-97 0 -173.5 48.5t-119 135t-42.5 196.5zM234 197
q23 -41 60 -64.5t81 -23.5q48 0 86.5 23.5t61 64t24.5 88.5h-341q5 -48 28 -88z" />
    <glyph glyph-name="florin" unicode="&#x192;" horiz-adv-x="556" 
d="M14 -60q19 -3 45 -3q25 0 39 10.5t19 24t9 36.5l63 329h-92l18 95h91l24 127q13 66 37 103.5t64.5 53t104.5 15.5q43 0 75 -7l-18 -107q-15 7 -38 7q-26 0 -41 -5.5t-23.5 -19t-13.5 -37.5l-25 -130h98l-16 -95h-100l-56 -310q-13 -74 -34.5 -115t-62.5 -61.5t-114 -20.5
q-45 0 -72 3z" />
    <glyph glyph-name="uni0259" unicode="&#x259;" horiz-adv-x="574" 
d="M30 290h373q-3 67 -34 99t-92 32q-39 0 -67.5 -19.5t-37.5 -47.5h-133q28 88 88.5 131t153.5 43q81 0 140.5 -34.5t91.5 -96.5t32 -141q0 -78 -31.5 -140t-89.5 -97.5t-134 -35.5q-79 0 -138.5 37.5t-91 102t-31.5 141.5zM209 116q27 -26 77 -26q51 0 81.5 29t35.5 81
h-231q10 -58 37 -84z" />
    <glyph glyph-name="circumflex" unicode="&#x2c6;" 
d="M65 731h130l110 -142h-115l-62 81l-64 -81h-110z" />
    <glyph glyph-name="caron" unicode="&#x2c7;" 
d="M-46 731h115l62 -81l64 81h110l-111 -142h-130z" />
    <glyph glyph-name="breve" unicode="&#x2d8;" 
d="M26 731q4 -31 32 -49t67 -18q47 0 74 16.5t36 50.5h63q-9 -70 -54 -106t-124 -36q-72 0 -112.5 36.5t-46.5 105.5h65z" />
    <glyph glyph-name="dotaccent" unicode="&#x2d9;" 
d="M197 598h-135v117h135v-117z" />
    <glyph glyph-name="ring" unicode="&#x2da;" 
d="M7 684q0 34 16 61t44.5 43t62.5 16q35 0 63 -15.5t43.5 -43t15.5 -61.5t-16.5 -61.5t-44.5 -43t-62 -15.5q-36 0 -63.5 16t-43 43.5t-15.5 60.5zM83 636q16 -19 46 -19q29 0 46.5 18.5t17.5 48.5q0 29 -16.5 48t-47.5 19q-27 0 -45 -18t-18 -49q0 -29 17 -48z" />
    <glyph glyph-name="ogonek" unicode="&#x2db;" 
d="M11 -134q0 34 24.5 65t80.5 69h64q-4 -5 -28 -30.5t-34.5 -47t-10.5 -40.5t11 -29t26 -10q14 0 27.5 7.5t27.5 24.5l45 -26q-23 -35 -52.5 -50.5t-71.5 -15.5q-49 0 -79 22.5t-30 60.5z" />
    <glyph glyph-name="tilde" unicode="&#x2dc;" 
d="M-35 659q16 28 41 45t57 17q15 0 32.5 -4t42.5 -13q25 -10 40 -14t28 -4q18 0 28 8t15 27h64q-12 -60 -40 -87t-72 -27q-18 0 -35.5 4t-41.5 12q-27 10 -41.5 14t-28.5 4q-33 0 -45 -42h-63q4 32 19 60z" />
    <glyph glyph-name="hungarumlaut" unicode="&#x2dd;" 
d="M242 731h157l-149 -142h-99zM35 731h157l-149 -142h-99z" />
    <glyph glyph-name="uni0394" unicode="&#x394;" horiz-adv-x="681" 
d="M688 0h-695l269 714h161zM198 132h282l-138 406h-2z" />
    <glyph glyph-name="uni03A9" unicode="&#x3a9;" horiz-adv-x="774" 
d="M172 128v5q-64 40 -99 107t-35 153q0 96 45.5 173t125.5 121t178 44q103 0 182 -42.5t123 -119t44 -176.5q0 -81 -36 -148t-104 -112v-5h141v-128h-305v118q53 36 85 75t47 85t15 106q0 68 -23.5 116.5t-67 73.5t-101.5 25q-59 0 -102 -25.5t-66.5 -73.5t-23.5 -116
q0 -55 13.5 -99.5t45.5 -85.5t87 -81v-118h-306v128h137z" />
    <glyph glyph-name="uni03BC" unicode="&#x3bc;" horiz-adv-x="593" 
d="M54 517h142v-292q0 -65 21 -96t70 -31q58 0 84 35t26 112v272h142v-517h-135v72h-3q-30 -45 -61.5 -65.5t-68.5 -20.5q-44 0 -75 24v-192h-142v699z" />
    <glyph glyph-name="pi" unicode="&#x3c0;" horiz-adv-x="692" 
d="M15 410v107h657v-107h-110v-271q0 -24 9 -34.5t32 -10.5q15 0 33 4v-92q-22 -11 -43.5 -15.5t-49.5 -4.5q-64 0 -93.5 28t-29.5 86v310h-159v-410h-142v410h-104z" />
    <glyph glyph-name="uni10D0" unicode="&#x10d0;" horiz-adv-x="604" 
d="M30 225q0 59 27 117h150q-21 -59 -21 -108q0 -38 13.5 -68t38.5 -47.5t60 -17.5q36 0 61 17t38 47t13 68q0 47 -14.5 84t-34.5 63t-56 65q-33 36 -54.5 68.5t-36 82t-14.5 118.5h156q0 -44 11 -79.5t28.5 -63.5t44.5 -60q42 -50 66 -84.5t42 -85.5t18 -116
q0 -69 -35 -124t-96.5 -86.5t-138.5 -31.5t-137.5 31t-94.5 86.5t-34 124.5z" />
    <glyph glyph-name="uni10D1" unicode="&#x10d1;" horiz-adv-x="622" 
d="M37 236q0 68 28.5 121t78 85.5t111.5 42.5v18q0 19 -7.5 33t-19.5 23.5t-32 21.5q-21 12 -34.5 26t-22.5 40t-9 67h144q0 -24 12 -41.5t35 -32.5q26 -17 42.5 -31t28.5 -37t12 -55v-40q52 -14 93 -48t64.5 -83.5t23.5 -109.5q0 -76 -36 -133.5t-99 -88.5t-140 -31
q-76 0 -138 31t-98.5 88.5t-36.5 133.5zM208 164q14 -31 40.5 -47t61.5 -16q36 0 63 16t42 46.5t15 72.5q0 41 -15 71t-42 46t-63 16q-34 0 -60.5 -16t-41.5 -46t-15 -71q0 -42 15 -72z" />
    <glyph glyph-name="uni10D2" unicode="&#x10d2;" horiz-adv-x="619" 
d="M96 385q59 59 145 84q64 18 94.5 40.5t30.5 51.5q0 16 -8.5 30t-24 22t-35.5 8q-31 0 -50.5 -20.5t-19.5 -52.5h-150q0 51 29 93t79 66t110 24q62 0 110.5 -21t75.5 -58t27 -82t-25.5 -76t-68.5 -49v-5q50 -11 88 -41t58.5 -74.5t20.5 -96.5q0 -78 -37 -133t-99 -83.5
t-137 -28.5q-74 0 -136 28.5t-99 83.5t-37 133q0 98 59 157zM192 230q0 -39 15 -68t41.5 -45t60.5 -16q35 0 62 16t42 45t15 68q0 41 -15 71.5t-42 46.5t-62 16q-34 0 -60.5 -16t-41.5 -46.5t-15 -71.5z" />
    <glyph glyph-name="uni10D3" unicode="&#x10d3;" horiz-adv-x="904" 
d="M66 602q28 61 78.5 95t114.5 34q55 0 100.5 -25.5t67.5 -73.5h5q28 48 76.5 73.5t111.5 25.5q69 0 125.5 -33.5t89.5 -91.5t33 -128t-32.5 -128t-91.5 -91.5t-133 -33.5q-73 0 -131 34t-90 92t-32 127v46q0 44 -21 67.5t-52 23.5q-43 0 -67.5 -41t-24.5 -115
q0 -73 33 -129.5t87.5 -92t119.5 -49.5q104 -23 163 -67t60 -121h-174q-1 27 -24 46.5t-63 30t-91 10.5h-183v101h97v4q-51 20 -92 59t-65 93.5t-24 117.5q0 79 29 140zM513 408q13 -32 38 -49.5t58 -17.5q34 0 60.5 18t41 49.5t14.5 70.5q0 40 -15 71t-41 48t-60 17
q-32 0 -57 -17t-39 -48t-14 -71t14 -71z" />
    <glyph glyph-name="uni10D4" unicode="&#x10d4;" horiz-adv-x="614" 
d="M35 201q0 57 18 101h150q-6 -24 -9 -42.5t-3 -44.5q0 -35 13.5 -61t37.5 -39.5t55 -13.5q50 0 77.5 31.5t27.5 86.5v280q0 50 -24 82t-71 32q-30 0 -51.5 -14t-33 -36.5t-11.5 -48.5q0 -27 5 -50h-153q-8 21 -8 57q0 57 31.5 105t89 76.5t130.5 28.5q77 0 134.5 -30
t88 -81t30.5 -114v-294q0 -68 -33 -120t-93 -80.5t-137 -28.5q-78 0 -137 27.5t-91.5 77t-32.5 113.5z" />
    <glyph glyph-name="uni10D5" unicode="&#x10d5;" horiz-adv-x="606" 
d="M35 194q0 23 4.5 46.5t11.5 40.5h148q-10 -29 -10 -64q0 -54 30.5 -85t81.5 -31q31 0 56.5 13t40.5 38t15 59q0 31 -12 56.5t-35 40.5t-55 15h-37v109h35q43 0 65.5 25.5t22.5 64.5q0 25 -11.5 45.5t-32.5 33t-50 12.5t-50.5 -12.5t-32.5 -34t-11 -47.5q0 -25 4 -38h-149
q-7 21 -7 54q0 53 31.5 97.5t88 71.5t127.5 27q68 0 124 -25.5t88 -70.5t32 -100q0 -56 -26.5 -97.5t-68.5 -57.5v-4q32 -11 58 -36t42 -62t16 -84q0 -61 -35.5 -109t-97 -75t-136.5 -27q-78 0 -138 27t-93.5 75t-33.5 109z" />
    <glyph glyph-name="uni10D6" unicode="&#x10d6;" horiz-adv-x="673" 
d="M43 646q28 41 76.5 63t108.5 22q61 0 110 -21t77 -58t28 -82q0 -33 -10 -60t-28 -42v-3q62 -3 115.5 -31t85.5 -79.5t32 -120.5q0 -74 -36.5 -131t-99.5 -88.5t-139 -31.5t-138.5 30.5t-98.5 85t-36 124.5q0 43 17.5 84.5t52.5 66.5v4q-40 5 -73 27.5t-52.5 60
t-19.5 83.5q0 55 28 97zM246 234q0 -40 14.5 -70t41 -46.5t61.5 -16.5t62.5 17t42.5 47t15 68q0 40 -14 69.5t-40.5 45.5t-62.5 16q-35 0 -62.5 -16t-42.5 -45.5t-15 -68.5zM170 484q21 -24 57 -24q24 0 43 11t30 30.5t11 43.5q0 23 -10 42t-28.5 30t-42.5 11
q-23 0 -42 -10.5t-29.5 -29.5t-10.5 -43q0 -37 22 -61z" />
    <glyph glyph-name="uni10D7" unicode="&#x10d7;" horiz-adv-x="957" 
d="M53 453q0 87 33.5 150t91 95.5t127.5 32.5q64 0 116 -28t78 -78h4q14 33 41.5 57t62.5 36.5t71 12.5q65 0 116.5 -31t81 -90t29.5 -140v-154q0 -95 -20 -180.5t-51 -135.5h-155q33 56 51 140.5t18 171.5v165q0 74 -22.5 108t-62.5 34q-38 0 -61 -31.5t-23 -97.5v-229
q0 -89 -34 -151.5t-93 -94.5t-133 -32t-134.5 32t-96 94.5t-35.5 151.5v192zM209 451v-188q0 -162 110 -162q55 0 81.5 41t26.5 121v187q0 80 -26 121.5t-82 41.5q-55 0 -82.5 -41.5t-27.5 -120.5z" />
    <glyph glyph-name="uni10D8" unicode="&#x10d8;" horiz-adv-x="635" 
d="M53 462q0 84 35 145t95 92.5t135 31.5q74 0 134.5 -31.5t95.5 -93t35 -145.5v-138q0 -91 -17 -180.5t-43 -142.5h-151q24 54 39 142t15 175v141q0 72 -27.5 113.5t-80.5 41.5q-54 0 -81.5 -41.5t-27.5 -113.5v-141q0 -86 15.5 -174t38.5 -143h-151q-26 52 -42.5 142
t-16.5 181v139z" />
    <glyph glyph-name="uni10D9" unicode="&#x10d9;" horiz-adv-x="594" 
d="M30 200q0 44 16 79h145q-6 -19 -8 -32.5t-2 -32.5q0 -32 14 -58t40 -40.5t59 -14.5t57.5 14.5t38.5 41.5t14 64q0 38 -13 68t-37 46.5t-57 16.5h-53v115h66q39 0 59 20t20 54q0 31 -19 50.5t-54 23.5v112q66 -3 115 -24.5t75 -59.5t26 -89q0 -52 -25.5 -88.5t-67.5 -51.5
v-4q57 -22 88.5 -73.5t31.5 -124.5q0 -64 -35 -116.5t-95.5 -82.5t-134.5 -30q-75 0 -135.5 29t-94.5 78.5t-34 109.5z" />
    <glyph glyph-name="uni10DA" unicode="&#x10da;" horiz-adv-x="1097" 
d="M65 604q27 61 76 94t112 33q52 0 95 -25t60 -69h4q9 29 30 50.5t48.5 32.5t56.5 11q31 0 59.5 -11t49.5 -32t29 -51h4q19 44 60 69t91 25q64 0 114 -31.5t78.5 -90.5t28.5 -138q0 -121 -36 -213h-154q35 90 35 209q0 74 -20 111t-58 37q-30 0 -49.5 -25t-19.5 -67v-180
h-141v181q0 43 -18.5 67t-50.5 24t-51 -25t-19 -66v-181h-141v178q0 45 -17.5 69.5t-49.5 24.5q-38 0 -58.5 -39.5t-20.5 -112.5q0 -78 35 -134t89.5 -86.5t114.5 -36.5l27 -3q37 -3 83 -8.5t81 -12.5q95 -20 141.5 -63.5t50.5 -118.5h-171q-8 48 -59 68t-133 20h-321v102
h98v4q-52 18 -95.5 55t-69.5 91t-26 121q0 82 28 143z" />
    <glyph glyph-name="uni10DB" unicode="&#x10db;" horiz-adv-x="635" 
d="M66 365q29 55 80 85t114 30q50 0 94.5 -19t67.5 -53h2v90q0 59 -30.5 87t-80.5 28q-38 0 -64.5 -20t-31.5 -52h-157q1 44 32 88t88 73t132 29q81 0 141.5 -27.5t93.5 -79t33 -122.5v-267q0 -72 -34 -129.5t-95.5 -90t-142.5 -32.5q-80 0 -141.5 33t-95.5 90.5t-34 129.5
q0 73 29 129zM193 231q0 -38 15 -67.5t41.5 -46t59.5 -16.5q34 0 61 16t42.5 45.5t15.5 68.5t-15 69t-42 46t-62 16q-34 0 -60.5 -16t-41 -46t-14.5 -69z" />
    <glyph glyph-name="uni10DC" unicode="&#x10dc;" horiz-adv-x="635" 
d="M116 662q60 52 176 52h235v-120h-226q-47 0 -68.5 -20.5t-21.5 -63.5v-99h2q23 34 65.5 53.5t91.5 19.5q63 0 115 -31t82.5 -87.5t30.5 -129.5q0 -72 -34 -129.5t-95.5 -90.5t-141.5 -33q-81 0 -142.5 32.5t-95.5 90t-34 129.5v282q0 93 61 145zM206 232
q0 -40 15.5 -69.5t42.5 -45.5t62 -16q33 0 59.5 16t41.5 45.5t15 69.5t-14.5 70.5t-41 46.5t-60.5 16q-35 0 -62 -16t-42.5 -46t-15.5 -71z" />
    <glyph glyph-name="uni10DD" unicode="&#x10dd;" horiz-adv-x="873" 
d="M82 610q28 58 78 89.5t111 31.5q56 0 99.5 -24t63.5 -71h4q20 47 64 71t98 24q64 0 114 -31t78 -89t28 -137v-148q0 -63 -10 -126t-27 -115t-38 -85h-155q33 57 54 148t21 176v148q0 71 -22 106t-62 35q-33 0 -53.5 -28.5t-20.5 -81.5v-300h-141v300q0 53 -20 81.5
t-55 28.5q-38 0 -60.5 -36t-22.5 -104v-149q0 -84 20.5 -176t52.5 -148h-154q-20 33 -37 85t-27 115t-10 126v148q0 77 29 136z" />
    <glyph glyph-name="uni10DE" unicode="&#x10de;" horiz-adv-x="596" 
d="M44 263h151q-5 -16 -6.5 -29t-1.5 -32q0 -28 14.5 -51t39.5 -36.5t56 -13.5q30 0 54.5 14t38 37.5t13.5 52.5q0 32 -11.5 57.5t-35 40.5t-55.5 15h-45v116h63q33 0 50 12.5t17 34.5q0 17 -10 29t-26.5 20.5t-44.5 19.5q-65 26 -101 63t-39 101h155q5 -26 25.5 -41.5
t41.5 -24.5t27 -12q37 -16 61.5 -32t41 -43t16.5 -68q0 -42 -23.5 -72t-67.5 -44v-4q30 -9 56.5 -32.5t43.5 -60.5t17 -84q0 -63 -34.5 -111.5t-94.5 -75t-133 -26.5t-134 26t-97 73t-36 108q0 39 14 73z" />
    <glyph glyph-name="uni10DF" unicode="&#x10df;" horiz-adv-x="627" 
d="M37 196q0 14 2.5 31.5t7.5 29.5h152q-6 -22 -6 -52q0 -27 14 -51t38.5 -38.5t55.5 -14.5q33 0 57.5 15.5t38 44t13.5 66.5v385l-154 -21v-4q30 -15 44.5 -44t14.5 -58q0 -41 -22.5 -73.5t-64 -50.5t-97.5 -18h-85v112h59q34 0 55.5 15.5t21.5 45.5q0 29 -22 45.5
t-54 16.5v99l299 41h162v-503q0 -75 -35 -127.5t-95.5 -78.5t-136.5 -26t-135.5 26.5t-93.5 74.5t-34 112z" />
    <glyph glyph-name="uni10E0" unicode="&#x10e0;" horiz-adv-x="806" 
d="M119 559q82 83 217 108l84 16q22 4 35.5 11t18.5 20h155q-6 -59 -43 -94.5t-118 -47.5l-86 -13q-92 -14 -153.5 -45t-75.5 -94h3q22 33 56.5 48.5t66.5 15.5q39 0 73 -22t52 -63h3q22 42 62.5 63.5t91.5 21.5q57 0 104.5 -28t75.5 -80t28 -123q0 -81 -19 -141.5
t-53 -111.5h-150q33 58 50 115.5t17 126.5q0 65 -21 97t-56 32q-30 0 -48 -26t-18 -71v-147h-136v146q0 46 -17.5 72t-47.5 26q-34 0 -56 -30t-22 -97q0 -131 67 -244h-150q-35 54 -53.5 124t-18.5 179q0 172 82 256z" />
    <glyph glyph-name="uni10E1" unicode="&#x10e1;" horiz-adv-x="626" 
d="M216 714v-483q0 -37 13 -67t37.5 -47t58.5 -17q33 0 57.5 14.5t37.5 39t13 54.5q0 26 -5.5 45.5t-14 34t-22.5 32.5q-16 23 -26 40t-17.5 44t-7.5 64h150q2 -32 12.5 -55t31.5 -55q17 -25 28.5 -46t19 -50.5t7.5 -68.5q0 -63 -35 -110.5t-95.5 -73.5t-134.5 -26
q-78 0 -138 28.5t-93 82t-33 126.5v494h156z" />
    <glyph glyph-name="uni10E2" unicode="&#x10e2;" horiz-adv-x="768" 
d="M36 344q0 99 37.5 175t101 122.5t141.5 61.5h9q-3 8 -4.5 18t-1.5 20h128q0 -15 -5 -38h9q78 -14 141.5 -60.5t101 -123t37.5 -175.5q0 -112 -46.5 -193.5t-125.5 -124.5t-175 -43q-97 0 -176.5 43t-125.5 125t-46 193zM213 214q24 -56 68 -85t103 -29t102.5 29t67.5 84
t24 131q0 62 -18.5 112t-49 83t-67.5 48l-4 -2q7 -31 11 -70.5t4 -75.5v-131h-142v133q0 81 16 144l-4 2q-63 -21 -99.5 -81.5t-36.5 -161.5q0 -75 25 -130z" />
    <glyph glyph-name="uni10E3" unicode="&#x10e3;" horiz-adv-x="642" 
d="M32 724h52q55 0 89 -18t52 -60h4q20 42 61 63.5t94 21.5q62 0 109 -24t72 -67.5t25 -101.5v-317q0 -70 -35 -124t-97 -84t-140 -30q-75 0 -137.5 28t-98.5 79t-36 116q0 43 17 91h151q-5 -17 -8.5 -38.5t-3.5 -40.5q0 -33 14 -59.5t40.5 -42t62.5 -15.5q33 0 59 14.5
t41 42.5t15 68v295q0 43 -17 67.5t-51 24.5q-32 0 -49 -24t-17 -66v-95h-145v94q0 37 -19 57t-57 20h-47v125z" />
    <glyph glyph-name="uni10E4" unicode="&#x10e4;" horiz-adv-x="846" 
d="M30 495q0 68 28 121.5t80 84t121 30.5q122 0 174 -96h4q23 45 67.5 70.5t101.5 25.5q55 0 102 -25.5t74.5 -71.5t27.5 -104q0 -68 -28.5 -111.5t-81.5 -62.5v-4q43 -18 67.5 -61t24.5 -103q0 -62 -39 -108.5t-107.5 -71.5t-156.5 -25q-134 0 -217.5 49t-89.5 151h154
q19 -84 152 -84q37 0 71.5 11t57 35t22.5 60q0 27 -10 49t-28.5 35t-44.5 13h-20v109h41q40 0 61 26.5t21 73.5q0 52 -23.5 79t-62.5 27q-35 0 -57.5 -24t-22.5 -67v-31q0 -67 -28 -119t-80 -81t-120 -29q-71 0 -124 29t-82 81t-29 119zM167 497q0 -55 25.5 -88t71.5 -33
q47 0 72.5 33t25.5 88q0 56 -26 89.5t-71 33.5q-46 0 -72 -34t-26 -89z" />
    <glyph glyph-name="uni10E5" unicode="&#x10e5;" horiz-adv-x="619" 
d="M35 199q0 30 11 57h147q-5 -27 -5 -45q0 -32 13 -57t37 -39t56 -14q53 0 81.5 33t28.5 90v156q0 35 -13 61.5t-36 40.5t-53 14q-27 0 -47.5 -12t-31 -32t-10.5 -42q0 -15 4 -33h-150q-7 23 -7 51q0 52 21.5 93.5t63.5 65.5t100 24q51 0 92.5 -19.5t63.5 -52.5h2v175h156
v-501q0 -74 -33.5 -125.5t-93.5 -78t-138 -26.5q-77 0 -136 26.5t-91 75.5t-32 114z" />
    <glyph glyph-name="uni10E6" unicode="&#x10e6;" horiz-adv-x="833" 
d="M37 463q0 81 27.5 142t77 93.5t112.5 32.5q56 0 99.5 -24.5t60.5 -70.5h4q19 46 64 70.5t96 24.5q64 0 114 -32.5t77.5 -92.5t27.5 -140q0 -116 -37 -210h-156q37 90 37 205q0 78 -22 118.5t-63 40.5q-31 0 -51 -25t-20 -70v-184h-139v183q0 48 -18.5 72t-50.5 24
q-40 0 -62 -42t-22 -117q0 -77 30.5 -133t80.5 -89.5t109 -45.5q97 -20 153 -64.5t58 -128.5h-173q-2 39 -39.5 63t-113.5 24h-177v101h96v4q-52 20 -93 59t-64 93.5t-23 118.5z" />
    <glyph glyph-name="uni10E7" unicode="&#x10e7;" horiz-adv-x="630" 
d="M37 537q0 54 11.5 96.5t29.5 80.5h148q-14 -33 -23.5 -80t-9.5 -89q0 -40 13.5 -69t39 -44.5t58.5 -15.5q34 0 60 16.5t40.5 48t14.5 74.5v159h151v-496q0 -74 -35.5 -127t-96 -80.5t-133.5 -27.5q-69 0 -128 23t-95 67.5t-36 104.5q0 24 10 52h145q-5 -22 -5 -37
q0 -30 15 -50.5t39.5 -31t54.5 -10.5q51 0 79.5 34t28.5 89v145h-2q-18 -32 -59.5 -50t-93.5 -18q-64 0 -114 29t-78.5 82.5t-28.5 124.5z" />
    <glyph glyph-name="uni10E8" unicode="&#x10e8;" horiz-adv-x="636" 
d="M37 232q0 72 30.5 126.5t82.5 83.5t116 29q49 0 91.5 -19.5t64.5 -53.5h2v127q0 43 -15.5 67t-47.5 24q-29 0 -45 -19t-16 -47v-23h-135v21q0 58 -66 58h-51v120h66q44 0 76.5 -19t44.5 -56h5q20 41 58.5 60.5t91.5 19.5q57 0 100 -22t67 -64.5t24 -103.5v-309
q0 -71 -33.5 -127.5t-95 -89t-142.5 -32.5q-80 0 -142.5 32.5t-96.5 89t-34 127.5zM209 162q15 -29 41.5 -45t59.5 -16q34 0 61 16t42.5 45t15.5 65q0 37 -15 66t-42 45t-62 16q-34 0 -60 -16t-41 -45t-15 -66q0 -36 15 -65z" />
    <glyph glyph-name="uni10E9" unicode="&#x10e9;" horiz-adv-x="627" 
d="M55 0v525q0 65 30 111.5t82 70.5t116 24q69 0 123 -25.5t83.5 -70.5t29.5 -103h-147q0 22 -10.5 41.5t-29 30.5t-42.5 11q-20 0 -38.5 -10.5t-29.5 -30.5t-11 -46v-118h2q24 33 65.5 53t92.5 20q60 0 110.5 -31t79.5 -87t29 -128q0 -75 -14.5 -133t-41.5 -104h-150
q26 58 38 106.5t12 116.5q0 71 -32 105.5t-82 34.5q-31 0 -57 -16.5t-41 -48.5t-15 -76v-222h-152z" />
    <glyph glyph-name="uni10EA" unicode="&#x10ea;" horiz-adv-x="696" 
d="M37 376q0 96 27.5 184.5t69.5 153.5h145q-37 -65 -61.5 -152t-24.5 -179q0 -98 23.5 -161t63 -92t90.5 -29q37 0 67.5 14.5t48.5 40.5t18 58q0 37 -14 64.5t-39.5 42.5t-58.5 15h-58v114h67q38 0 59 16.5t21 44.5q0 27 -10.5 44t-32.5 37q-18 18 -29 32t-19 36t-9 54h146
q5 -23 17 -40.5t34 -40.5q19 -19 30.5 -33.5t19.5 -35.5t8 -48q0 -41 -24.5 -71.5t-70.5 -46.5v-4q53 -20 85.5 -68.5t32.5 -121.5q0 -64 -38.5 -114.5t-104.5 -78.5t-144 -28q-93 0 -168.5 40.5t-121 128.5t-45.5 224z" />
    <glyph glyph-name="uni10EB" unicode="&#x10eb;" horiz-adv-x="640" 
d="M37 236q0 73 30.5 129.5t82.5 87.5t115 31q49 0 91 -19.5t66 -53.5h2v303h156v-479q0 -72 -34 -129.5t-95.5 -90t-142.5 -32.5q-80 0 -141.5 33t-95.5 90.5t-34 129.5zM193 232q0 -39 15 -69t41.5 -46t59.5 -16q34 0 61.5 16t42.5 45.5t15 69.5t-15 70.5t-42 46.5t-62 16
q-34 0 -60.5 -16t-41 -46.5t-14.5 -70.5z" />
    <glyph glyph-name="uni10EC" unicode="&#x10ec;" horiz-adv-x="638" 
d="M58 232v309q0 61 23.5 103.5t67 64.5t100.5 22q52 0 91.5 -19.5t59.5 -60.5h3q12 37 44.5 56t76.5 19h67v-120h-51q-34 0 -50 -14.5t-16 -43.5v-21h-135v23q0 28 -16.5 47t-45.5 19q-31 0 -47 -24t-16 -67v-127h2q22 34 64.5 53.5t91.5 19.5q64 0 116.5 -29t83 -83.5
t30.5 -126.5q0 -71 -34 -127.5t-96.5 -89t-142.5 -32.5q-81 0 -142.5 32.5t-95 89t-33.5 127.5zM209 227q0 -36 15.5 -65t42.5 -45t61 -16q33 0 60 16t42 45t15 65q0 37 -15 66t-41 45t-60 16q-35 0 -62 -16t-42.5 -45t-15.5 -66z" />
    <glyph glyph-name="uni10ED" unicode="&#x10ed;" horiz-adv-x="668" 
d="M47 234h150q-2 -8 -3.5 -17t-1.5 -17q0 -29 13 -51.5t37.5 -35t56.5 -12.5q50 0 78.5 30.5t28.5 84.5v152h-2q-21 -30 -65.5 -49.5t-94.5 -19.5q-52 0 -97.5 18.5t-73.5 55.5t-28 90t29.5 91t80.5 58t117 20h134v82h155v-82h92v-106h-92v-298q0 -78 -34.5 -133.5
t-94 -83.5t-133.5 -28q-75 0 -134.5 26t-93 73.5t-33.5 109.5q0 20 9 42zM212 420q28 -17 73 -17q33 0 61.5 11t46 32t17.5 49v31h-128q-46 0 -72 -15.5t-26 -43.5q0 -30 28 -47z" />
    <glyph glyph-name="uni10EE" unicode="&#x10ee;" horiz-adv-x="642" 
d="M60 714h156v-303h2q23 34 65.5 53.5t91.5 19.5q63 0 115 -31t82.5 -87.5t30.5 -129.5q0 -72 -34 -129.5t-96 -90.5t-142 -33q-81 0 -142.5 33t-95 90.5t-33.5 129.5v478zM211 232q0 -40 15.5 -69.5t42.5 -45.5t62 -16q33 0 59.5 16t41.5 46t15 69q0 40 -14.5 70.5
t-41 46.5t-60.5 16q-35 0 -62 -16t-42.5 -46.5t-15.5 -70.5z" />
    <glyph glyph-name="uni10EF" unicode="&#x10ef;" horiz-adv-x="606" 
d="M33 192q0 31 12 61h149q-6 -28 -6 -46q0 -30 14 -54.5t40 -38t61 -13.5q33 0 58.5 13.5t39.5 39t14 60.5q0 38 -14.5 65.5t-41 42t-60.5 14.5h-73v190h-181v106h181v89h140v-89h180v-106h-180v-82q59 -9 105.5 -39.5t73.5 -81.5t27 -117q0 -65 -36 -115.5t-97.5 -79
t-135.5 -28.5q-77 0 -138.5 25t-96.5 72.5t-35 111.5z" />
    <glyph glyph-name="uni10F0" unicode="&#x10f0;" horiz-adv-x="603" 
d="M28 163q0 25 8 46h141q-4 -13 -4 -30q0 -39 35.5 -59.5t88.5 -20.5q34 0 61 9t42.5 25t15.5 38q0 34 -24 52.5t-69 18.5h-74v104h100q30 0 46 8.5t16 27.5t-17 29t-45 10h-100v103h98q28 0 41 7.5t13 23.5q0 14 -16 20.5t-38 10.5t-30 6q-36 8 -63 20.5t-45.5 37
t-20.5 64.5h143q5 -12 19.5 -18.5t43.5 -13.5l34 -10q51 -17 82 -40.5t31 -64.5q0 -35 -19 -57.5t-63 -32.5v-4q42 -6 67.5 -29t25.5 -62q0 -34 -23 -55t-65 -29v-4q49 -11 76 -45.5t27 -86.5q0 -53 -37.5 -94t-99.5 -63t-134 -22t-133.5 21t-98 62t-36.5 97z" />
    <glyph glyph-name="uni10F1" unicode="&#x10f1;" horiz-adv-x="689" 
d="M37 374q0 104 23.5 184.5t66.5 155.5h144q-83 -159 -83 -333q0 -98 26.5 -160.5t70 -91t97.5 -28.5q53 0 87.5 19.5t34.5 55.5q0 34 -23 54t-66 20h-71v103h91q29 0 44 9.5t15 30.5t-15.5 31.5t-43.5 10.5h-91v103h90q29 0 40.5 8.5t11.5 24.5t-9.5 25.5t-30.5 22.5
q-19 12 -30.5 22t-21 28t-10.5 45h143q5 -16 16 -27.5t30 -26.5q20 -15 31 -25.5t19 -27t8 -40.5q0 -28 -20 -48.5t-63 -29.5v-4q42 -6 67 -29.5t25 -64.5q0 -35 -23 -57t-65 -30v-4q48 -13 76.5 -49.5t28.5 -85.5q0 -54 -36.5 -95.5t-99 -64t-137.5 -22.5q-101 0 -179 41.5
t-123 129t-45 220.5z" />
    <glyph glyph-name="uni10F2" unicode="&#x10f2;" horiz-adv-x="635" 
d="M74 596q39 65 104 100t140 35t139.5 -35t104 -100.5t39.5 -151.5q0 -73 -22.5 -134t-61.5 -105t-87 -68v-4q29 -11 67.5 -16.5t73.5 -5.5v-116q-72 0 -133 16t-120 47q-59 -31 -120.5 -47t-132.5 -16v116q35 0 73.5 5.5t66.5 16.5v4q-48 24 -87 69t-61.5 106t-22.5 132
q0 86 40 152zM190 438q0 -88 33.5 -152t94.5 -105q60 42 93.5 106t33.5 151q0 51 -15.5 90.5t-44 62t-67.5 22.5t-68 -22.5t-44.5 -62t-15.5 -90.5z" />
    <glyph glyph-name="uni10F3" unicode="&#x10f3;" horiz-adv-x="600" 
d="M48 279h148q-11 -33 -11 -68q0 -32 14 -57t40 -39t60 -14q33 0 58.5 16t39 43.5t13.5 60.5q0 37 -13 65.5t-37 45t-57 16.5h-45v114h48q38 0 58 23t20 62v54h-302v113h452v-153q0 -59 -24.5 -98.5t-66.5 -54.5v-3q57 -19 89 -70.5t32 -123.5q0 -67 -34.5 -119t-95 -80.5
t-135.5 -28.5q-76 0 -136.5 27.5t-95 76.5t-34.5 110q0 44 15 82z" />
    <glyph glyph-name="uni10F4" unicode="&#x10f4;" horiz-adv-x="600" 
d="M44 263h148q-8 -29 -8 -56q0 -29 14 -53.5t40.5 -38.5t61.5 -14q33 0 58 14t38 37t13 50q0 46 -28 74.5t-76 28.5h-44v115h42q39 0 58 20t19 58v27h-111q-56 0 -101 21t-72 63.5t-29 104.5h148q3 -41 26 -58.5t72 -17.5h221v-124q0 -56 -25 -94.5t-67 -53.5v-4
q54 -15 87.5 -58t33.5 -111q0 -60 -35 -108t-95 -75t-134 -27q-76 0 -136.5 27.5t-95 76t-34.5 110.5q0 36 11 66z" />
    <glyph glyph-name="uni10F5" unicode="&#x10f5;" horiz-adv-x="651" 
d="M98 286q60 42 168 42h132v79h-130q-108 0 -165 39.5t-57 116.5q0 57 34 94.5t89.5 55.5t121.5 18q67 0 124.5 -18t93.5 -57.5t36 -100.5v-46h91v-102h-91v-79h91v-102h-91v-47q0 -64 -35 -108t-94.5 -66t-131.5 -22q-64 0 -120.5 21t-91.5 62t-35 98q0 79 61 122z
M215 115q29 -18 73 -18q49 0 79.5 19t30.5 61v49h-121q-42 0 -67 -16.5t-25 -47.5q0 -30 30 -47zM214 521q23 -12 67 -12h117v35q0 40 -28.5 58t-76.5 18q-45 0 -73.5 -14t-28.5 -43q0 -30 23 -42z" />
    <glyph glyph-name="uni10F6" unicode="&#x10f6;" horiz-adv-x="787" 
d="M73 588q36 53 102 82.5t154 37.5l-5 30h139l-5 -30q87 -8 153 -39t102.5 -84t36.5 -124q0 -80 -36.5 -136t-101.5 -85t-150 -33v-43q0 -59 -16.5 -94.5t-53 -52.5t-97.5 -17h-57v111h25q22 0 35 4.5t19.5 16t6.5 33.5v41q-86 5 -150.5 34.5t-101 85.5t-36.5 135
q0 74 37 127zM462 314q66 3 104 36t38 111q0 71 -39.5 105.5t-102.5 37.5v-290zM220 352q38 -34 104 -38v289q-63 -3 -102.5 -38t-39.5 -104q0 -76 38 -109z" />
    <glyph glyph-name="uni10F7" unicode="&#x10f7;" horiz-adv-x="606" 
d="M30 208q0 70 31 116.5t73.5 72.5t108.5 54q43 18 67 30.5t39.5 30.5t15.5 41q0 27 -20 45.5t-49 18.5q-19 0 -35 -9.5t-25.5 -26t-9.5 -37.5h-148q0 53 30 95.5t80 67t107 24.5q54 0 104.5 -21t82 -60t31.5 -91q0 -51 -24 -86t-58 -56t-91 -46q-54 -25 -84.5 -43.5
t-52 -48t-21.5 -72.5q0 -31 15.5 -55.5t42.5 -38t62 -13.5q37 0 64.5 15.5t42.5 41t15 54.5q0 41 -13 83h149q6 -15 11 -39.5t5 -46.5q0 -69 -37.5 -120t-100 -78t-137.5 -27q-73 0 -134.5 25.5t-99 76.5t-37.5 123z" />
    <glyph glyph-name="uni10F8" unicode="&#x10f8;" horiz-adv-x="630" 
d="M210 714v-159q0 -43 14.5 -74.5t40.5 -48t60 -16.5q33 0 58.5 15.5t39 44.5t13.5 69q0 42 -9.5 89t-23.5 80h148q18 -38 29.5 -80.5t11.5 -96.5q0 -71 -28.5 -124.5t-78.5 -82.5t-114 -29q-52 0 -93.5 18t-59.5 50h-2v-145q0 -55 28.5 -89t79.5 -34q30 0 54.5 10.5
t39.5 31t15 50.5q0 15 -5 37h145q10 -28 10 -52q0 -60 -36 -104.5t-95 -67.5t-128 -23q-73 0 -133.5 27.5t-96 80.5t-35.5 127v496h151z" />
    <glyph glyph-name="uni10F9" unicode="&#x10f9;" horiz-adv-x="619" 
d="M74 618q37 55 99 83.5t137 28.5q74 0 136 -28.5t99 -83.5t37 -133q0 -98 -59 -157t-145 -84q-64 -18 -94.5 -40.5t-30.5 -51.5q0 -16 8.5 -30t24 -22t35.5 -8q31 0 50.5 20.5t19.5 52.5h150q0 -51 -29 -93t-79 -66t-110 -24q-62 0 -110.5 21t-75.5 58t-27 82t25.5 76
t68.5 49v5q-50 11 -88 41t-58.5 74.5t-20.5 96.5q0 78 37 133zM206 412q15 -31 42 -47t62 -16q34 0 60.5 16t41.5 46.5t15 71.5q0 39 -15 68t-41.5 45t-60.5 16q-35 0 -62 -16t-42 -45t-15 -68q0 -41 15 -71z" />
    <glyph glyph-name="uni10FA" unicode="&#x10fa;" horiz-adv-x="618" 
d="M72 603q36 61 98.5 94.5t140.5 33.5t139.5 -33.5t96 -94.5t34.5 -141q0 -34 -5.5 -68.5t-16.5 -65.5h-151q9 35 13 64.5t4 69.5q0 46 -14.5 79t-41 50.5t-62.5 17.5t-62 -19t-40 -52.5t-14 -75.5q0 -70 24 -118.5t57 -78t86 -63.5q7 -4 16 -10t19 -13q47 -33 71 -75.5
t25 -103.5h-155q-2 41 -27.5 63.5t-91.5 22.5h-109v102h100v4q-76 37 -123 103t-47 167q0 79 36 141z" />
    <glyph glyph-name="uni10FB" unicode="&#x10fb;" horiz-adv-x="590" 
d="M371 177v154h157v-154h-157zM220 508v-154h-157v154h157zM63 0v154h157v-154h-157z" />
    <glyph glyph-name="uni10FC" unicode="&#x10fc;" horiz-adv-x="390" 
d="M49 536v157q0 126 149 126h123v-77h-115q-60 0 -60 -53v-49h2q13 20 32.5 31t46.5 11q36 0 65 -17.5t46 -50.5t17 -78q0 -44 -18 -77.5t-52.5 -52t-82.5 -18.5q-47 0 -81.5 18t-53 51.5t-18.5 78.5zM161 486q15 -19 41 -19t40 18.5t14 49.5q0 33 -14 52t-40 19
q-27 0 -42 -18.5t-15 -52.5q0 -30 16 -49z" />
    <glyph glyph-name="uni10FD" unicode="&#x10fd;" horiz-adv-x="678" 
d="M189 237q0 -48 22.5 -77.5t58 -42t76.5 -12.5q60 0 100 21.5t40 67.5q0 34 -28.5 56.5t-94.5 38.5l-47 12q-10 3 -41 11t-57 16q-80 27 -118.5 73t-38.5 115t38 117.5t99.5 73t129.5 24.5q80 0 144.5 -24.5t103 -76t38.5 -129.5h-152q-4 55 -37.5 81.5t-102.5 26.5
q-47 0 -78 -20.5t-31 -60.5q0 -27 14 -41.5t50.5 -26.5t125.5 -34q71 -18 119 -38.5t82 -63t34 -112.5q0 -68 -35 -119.5t-102 -80.5t-160 -29q-80 0 -149 26.5t-112 82.5t-43 140v5h152z" />
    <glyph glyph-name="uni10FE" unicode="&#x10fe;" horiz-adv-x="635" 
d="M34 270q0 71 22.5 132t61.5 106t87 69v4q-28 11 -66.5 16.5t-73.5 5.5v116q71 0 132.5 -16t120.5 -47q59 31 120 47t133 16v-116q-35 0 -73.5 -5.5t-67.5 -16.5v-4q48 -24 87 -68t61.5 -105t22.5 -134q0 -86 -39.5 -151.5t-104 -100.5t-139.5 -35t-140 35t-104.5 100.5
t-39.5 151.5zM190 276q0 -51 15.5 -90.5t44.5 -62t68 -22.5t67.5 22.5t44 62t15.5 90.5q0 87 -33.5 151t-93.5 106q-61 -41 -94.5 -105t-33.5 -152z" />
    <glyph glyph-name="uni10FF" unicode="&#x10ff;" horiz-adv-x="731" 
d="M30 357q0 105 41.5 190.5t117.5 134.5t176 49t176.5 -48.5t118 -133.5t41.5 -192q0 -108 -42 -193t-118.5 -133t-175.5 -48t-175 48.5t-118 133.5t-42 192zM187 357q0 -73 19 -131t59 -92t100 -34t100.5 33.5t59.5 91.5t19 132t-19.5 132t-60 91.5t-100.5 33.5
q-59 0 -98.5 -33.5t-59 -91.5t-19.5 -132z" />
    <glyph glyph-name="endash" unicode="&#x2013;" horiz-adv-x="500" 
d="M500 212h-500v122h500v-122z" />
    <glyph glyph-name="emdash" unicode="&#x2014;" horiz-adv-x="1000" 
d="M870 212h-740v122h740v-122z" />
    <glyph glyph-name="quoteleft" unicode="&#x2018;" horiz-adv-x="278" 
d="M68 552q0 42 18.5 77t50.5 57.5t73 27.5v-66q-34 -11 -50 -35t-16 -64v-2h66v-154h-142v159z" />
    <glyph glyph-name="quoteright" unicode="&#x2019;" horiz-adv-x="278" 
d="M68 714h142v-159q0 -41 -18 -76t-50.5 -58t-73.5 -28v66q35 12 50.5 36t15.5 63v2h-66v154z" />
    <glyph glyph-name="quotesinglbase" unicode="&#x201a;" horiz-adv-x="278" 
d="M68 154h142v-160q0 -41 -18.5 -76t-50.5 -57.5t-73 -27.5v66q34 11 50 35t16 64v2h-66v154z" />
    <glyph glyph-name="quotedblleft" unicode="&#x201c;" horiz-adv-x="463" 
d="M267 393v160q0 40 18 75t50.5 58t73.5 28v-66q-35 -12 -50.5 -36t-15.5 -65h66v-154h-142zM54 393v160q0 40 18 75t50.5 58t73.5 28v-66q-35 -12 -50.5 -35.5t-15.5 -65.5h66v-154h-142z" />
    <glyph glyph-name="quotedblright" unicode="&#x201d;" horiz-adv-x="463" 
d="M54 560v154h142v-161q0 -40 -18 -74.5t-50.5 -57.5t-73.5 -28v66q34 12 50 35.5t16 65.5h-66zM267 459q34 11 50 35t16 66h-66v154h142v-159q0 -41 -18 -76t-50 -57.5t-74 -28.5v66z" />
    <glyph glyph-name="quotedblbase" unicode="&#x201e;" horiz-adv-x="463" 
d="M54 0v154h142v-161q0 -39 -17.5 -73.5t-50 -57.5t-74.5 -29v66q34 12 50 35t16 66h-66zM267 -101q33 11 49.5 34.5t16.5 66.5h-66v154h142v-160q0 -40 -17.5 -74.5t-50 -57.5t-74.5 -29v66z" />
    <glyph glyph-name="dagger" unicode="&#x2020;" horiz-adv-x="556" 
d="M24 400v117h186v197h135v-197h187v-117h-187v-566h-135v566h-186z" />
    <glyph glyph-name="daggerdbl" unicode="&#x2021;" horiz-adv-x="556" 
d="M24 400v117h186v197h135v-197h187v-117h-187v-256h187v-117h-187v-193h-135v193h-186v117h186v256h-186z" />
    <glyph glyph-name="bullet" unicode="&#x2022;" horiz-adv-x="501" 
d="M72 357q0 49 24 90t65 64.5t89 23.5t89 -23.5t65.5 -64.5t24.5 -90q0 -48 -24 -89.5t-65 -65.5t-90 -24q-48 0 -89 24t-65 65t-24 90z" />
    <glyph glyph-name="ellipsis" unicode="&#x2026;" horiz-adv-x="1000" 
d="M754 0v154h157v-154h-157zM421 0v154h157v-154h-157zM88 154h157v-154h-157v154z" />
    <glyph glyph-name="perthousand" unicode="&#x2030;" horiz-adv-x="1147" 
d="M803 247q16 39 49.5 61t80.5 22q72 0 108.5 -44.5t36.5 -130.5q0 -80 -37.5 -124.5t-108.5 -44.5q-45 0 -78 20.5t-50.5 59t-17.5 89.5q0 52 17 92zM85 628q15 39 48 62.5t83 23.5q72 0 108.5 -44.5t36.5 -130.5q0 -75 -36 -122t-110 -47q-45 0 -78 21t-50.5 59t-17.5 89
q0 49 16 89zM440 155q0 52 17 91.5t50 61.5t80 22q72 0 108.5 -44.5t36.5 -130.5q0 -80 -38 -124.5t-108 -44.5q-45 0 -78 20.5t-50.5 59t-17.5 89.5zM150 -22l414 744h85l-412 -744h-87zM876 164q0 -55 12.5 -84t43.5 -29q26 0 38 14.5t15 35.5t3 54q0 35 -2.5 57
t-14.5 37.5t-37 15.5q-26 0 -38.5 -13.5t-16 -34.5t-3.5 -53zM159 548q0 -60 14 -86.5t42 -26.5q26 0 38 15t15 36t3 54q0 35 -2.5 57t-14.5 37t-37 15q-26 0 -39 -14.5t-16 -35t-3 -51.5zM530 162q0 -52 12.5 -81.5t43.5 -29.5q25 0 37 14t15.5 35.5t3.5 54.5q0 36 -3 58.5
t-15 37t-36 14.5q-27 0 -39.5 -15t-15.5 -35.5t-3 -52.5z" />
    <glyph glyph-name="guilsinglleft" unicode="&#x2039;" horiz-adv-x="241" 
d="M199 463v-120l-90 -71l90 -72v-120l-157 125v135z" />
    <glyph glyph-name="guilsinglright" unicode="&#x203a;" horiz-adv-x="241" 
d="M199 340v-135l-157 -125v120l90 72l-90 71v120z" />
    <glyph glyph-name="fraction" unicode="&#x2044;" horiz-adv-x="167" 
d="M-79 -22h-87l414 744h85z" />
    <glyph glyph-name="Euro" unicode="&#x20ac;" horiz-adv-x="556" 
d="M15 383l31 72h51q14 72 51 132.5t99.5 97.5t146.5 37t182 -50l-61 -125q-71 45 -131 45q-105 0 -140 -137h244l-31 -72h-224l-1 -42h213l-31 -72h-174q16 -79 53 -118.5t95 -39.5q75 0 154 63l-1 -151q-66 -40 -155 -40q-84 0 -145 36t-98 100.5t-50 149.5h-77l31 72h40
v13q0 17 1 29h-73z" />
    <glyph glyph-name="uni20BE" unicode="&#x20be;" horiz-adv-x="753" 
d="M79 520q29 65 83 112t125 66v110h59v-99q11 1 34 1l31 -1v99h59v-110q74 -19 128.5 -68.5t83.5 -121t29 -156.5h-143q0 89 -23 143.5t-75 83.5v-227h-59v245q-16 3 -33 3t-32 -3v-245h-59v227q-51 -29 -73.5 -82.5t-22.5 -133.5q0 -74 25.5 -130.5t72 -87.5t108.5 -31
h242v-114h-553v110h93v4q-40 23 -69.5 65t-44.5 94.5t-15 108.5q0 72 29 138z" />
    <glyph glyph-name="uni2113" unicode="&#x2113;" horiz-adv-x="500" 
d="M14 201l105 86v236q0 58 24 103t65 70t91 25q45 0 79 -18.5t53 -52.5t19 -79q0 -74 -46 -148t-146 -158v-112q0 -30 16.5 -48t44.5 -18q38 0 88 38h2l47 -72q-41 -35 -83.5 -51t-88.5 -16q-53 0 -90 19.5t-55.5 53t-18.5 74.5v41l-55 -48h-2zM258 553v-171q79 85 79 181
q0 28 -11 47t-28 19t-28.5 -22.5t-11.5 -53.5z" />
    <glyph glyph-name="uni2116" unicode="&#x2116;" horiz-adv-x="1046" 
d="M223 700l256 -465v465h142v-700h-151l-258 466v-466h-143v700h154zM679 291q0 48 20.5 84.5t58 56.5t86.5 20q47 0 84 -19.5t57.5 -56t20.5 -85.5q0 -48 -20 -84.5t-56.5 -57t-86.5 -20.5q-49 0 -86.5 20t-57.5 57t-20 85zM698 98h301v-98h-301v98zM778 291q0 -42 17 -65
t48 -23t48 23t17 65q0 41 -17 64t-50 23q-28 0 -45.5 -22.5t-17.5 -64.5z" />
    <glyph glyph-name="trademark" unicode="&#x2122;" horiz-adv-x="1000" 
d="M451 714h136l103 -271l103 271h135v-412h-96v292h-2l-106 -292h-69l-106 292h-2v-292h-96v412zM398 714v-80h-117v-332h-102v332h-117v80h336z" />
    <glyph glyph-name="uni2126" unicode="&#x2126;" horiz-adv-x="774" 
d="M172 128v5q-64 40 -99 107t-35 153q0 96 45.5 173t125.5 121t178 44q103 0 182 -42.5t123 -119t44 -176.5q0 -81 -36 -148t-104 -112v-5h141v-128h-305v118q53 36 85 75t47 85t15 106q0 68 -23.5 116.5t-67 73.5t-101.5 25q-59 0 -102 -25.5t-66.5 -73.5t-23.5 -116
q0 -55 13.5 -99.5t45.5 -85.5t87 -81v-118h-306v128h137z" />
    <glyph glyph-name="partialdiff" unicode="&#x2202;" horiz-adv-x="572" 
d="M42 219q0 63 28 114t78 80.5t114 29.5q36 0 69 -12t65 -36v8q0 67 -16 115.5t-47 75t-74 26.5q-32 0 -60 -12.5t-61 -40.5l-70 80q49 42 93 58t92 16q93 0 155 -47t91.5 -129t29.5 -187q0 -183 -66.5 -277t-191.5 -94q-67 0 -119.5 29.5t-81 82.5t-28.5 120zM169 212
q0 -36 12.5 -65.5t36 -46t55.5 -16.5q38 0 65.5 25t42 65.5t14.5 87.5v29q-24 26 -52.5 40.5t-60.5 14.5q-33 0 -58.5 -17t-40 -47.5t-14.5 -69.5z" />
    <glyph glyph-name="uni2206" unicode="&#x2206;" horiz-adv-x="681" 
d="M688 0h-695l269 714h161zM198 132h282l-138 406h-2z" />
    <glyph glyph-name="product" unicode="&#x220f;" horiz-adv-x="749" 
d="M55 -214v1000h638v-1000h-132v874h-373v-874h-133z" />
    <glyph glyph-name="summation" unicode="&#x2211;" horiz-adv-x="673" 
d="M634 660h-418l263 -367l-281 -381h448v-126h-619v110l295 396l-283 384v110h595v-126z" />
    <glyph glyph-name="minus" unicode="&#x2212;" horiz-adv-x="600" 
d="M553 199h-505v107h505v-107z" />
    <glyph glyph-name="uni2215" unicode="&#x2215;" horiz-adv-x="167" 
d="M-79 -22h-87l414 744h85z" />
    <glyph glyph-name="uni2219" unicode="&#x2219;" horiz-adv-x="278" 
d="M55 287q0 23 12 42.5t31.5 31t41.5 11.5q23 0 42 -11.5t30.5 -31t11.5 -42.5q0 -21 -11.5 -40.5t-31 -31.5t-40.5 -12q-23 0 -42.5 11t-31.5 30.5t-12 42.5z" />
    <glyph glyph-name="radical" unicode="&#x221a;" horiz-adv-x="570" 
d="M362 -214h-122l-147 303l-53 -26l-49 105l171 78l117 -255l162 795h139z" />
    <glyph glyph-name="infinity" unicode="&#x221e;" horiz-adv-x="848" 
d="M68 369q22 44 63.5 69t96.5 25q37 0 68 -12t62 -38.5t66 -71.5q48 64 95 93t101 29q55 0 96.5 -25t64 -69t22.5 -100q0 -58 -22.5 -103.5t-64.5 -71t-97 -25.5q-50 0 -97 27t-98 89q-37 -44 -68.5 -69t-60.5 -35t-63 -10q-56 0 -98.5 25t-65.5 69.5t-23 102.5
q0 56 23 101zM491 264q34 -40 65 -60t63 -20q34 0 54.5 23t20.5 59q0 37 -21.5 60t-56.5 23q-27 0 -57 -20t-68 -65zM175 208q21 -23 56 -23q31 0 63 20.5t62 58.5q-72 84 -127 84q-22 0 -39 -11t-26.5 -29.5t-9.5 -41.5q0 -36 21 -58z" />
    <glyph glyph-name="integral" unicode="&#x222b;" horiz-adv-x="628" 
d="M77 -124q0 26 19 41.5t44 15.5q22 0 35 -13t20 -45q4 -16 8.5 -22.5t11.5 -6.5q19 0 19 30l-2 64q-4 76 -4 93v482q0 87 11.5 137.5t36.5 81.5q20 25 51.5 37.5t72.5 12.5q27 0 54.5 -9.5t46 -28t18.5 -44.5q0 -28 -17 -46t-44 -18q-24 0 -36 13.5t-21 41.5
q-6 19 -10.5 25.5t-11.5 6.5q-19 0 -19 -36l2 -60q4 -82 4 -114v-478q0 -128 -40.5 -189t-126.5 -61q-28 0 -56.5 10.5t-47 31t-18.5 47.5z" />
    <glyph glyph-name="approxequal" unicode="&#x2248;" horiz-adv-x="600" 
d="M89 394q38 41 106 41q21 0 45.5 -6.5t63.5 -23.5q42 -18 65.5 -25.5t42.5 -7.5q52 0 61 62h84q-7 -82 -46.5 -123t-106.5 -41q-24 0 -48.5 7.5t-63.5 24.5q-36 16 -59 23.5t-45 7.5q-53 0 -61 -60h-84q7 79 46 121zM89 180q38 41 106 41q24 0 50 -8t66 -25
q36 -16 59.5 -23t41.5 -7q52 0 61 62h84q-8 -81 -46.5 -122.5t-106.5 -41.5q-22 0 -47 7t-65 25q-38 17 -61.5 24t-42.5 7q-53 0 -61 -60h-84q7 79 46 121z" />
    <glyph glyph-name="notequal" unicode="&#x2260;" horiz-adv-x="600" 
d="M48 308v104h285l72 135l87 -43l-50 -92h111v-104h-172l-55 -111h227v-104h-285l-71 -134l-87 43l49 91h-111v104h173l54 111h-227z" />
    <glyph glyph-name="lessequal" unicode="&#x2264;" horiz-adv-x="600" 
d="M48 264v108l505 142v-113l-356 -83l356 -83v-113zM48 0v107h505v-107h-505z" />
    <glyph glyph-name="greaterequal" unicode="&#x2265;" horiz-adv-x="600" 
d="M404 317l-356 83v114l505 -142v-108l-505 -142v112zM48 0v107h505v-107h-505z" />
    <glyph glyph-name="fi" unicode="&#xfb01;" horiz-adv-x="591" 
d="M0 517h85v38q0 78 47 118.5t126 40.5q19 0 75 -4v-106q-27 3 -51 3q-31 0 -43 -13.5t-12 -46.5v-30h98v-95h-98v-422h-142v422h-85v95zM533 517v-517h-142v517h142zM533 714v-117h-142v117h142z" />
    <glyph glyph-name="fl" unicode="&#xfb02;" horiz-adv-x="591" 
d="M0 517h85v38q0 78 47 118.5t126 40.5q19 0 75 -4v-106q-27 3 -51 3q-31 0 -43 -13.5t-12 -46.5v-30h98v-95h-98v-422h-142v422h-85v95zM533 714v-714h-142v714h142z" />
    <glyph glyph-name="uniFEFF" unicode="&#xfeff;" horiz-adv-x="0" 
 />
    <glyph glyph-name="uni10D0.case" horiz-adv-x="551" 
d="M36 202q0 38 10 67h136q-6 -28 -6 -58q0 -31 10.5 -58t32.5 -43.5t55 -16.5q34 0 55.5 16t31.5 40.5t10 53.5q0 35 -10.5 60t-28.5 43t-46 38q-37 25 -57 43t-34.5 49t-14.5 78h141q3 -22 13.5 -39.5t24 -29.5t39.5 -32q35 -27 59.5 -53t40 -64.5t15.5 -90.5
q0 -58 -28.5 -108t-83 -80.5t-128.5 -30.5q-78 0 -131.5 28t-79.5 76.5t-26 111.5z" />
    <glyph glyph-name="uni10D1.case" horiz-adv-x="592" 
d="M38 249q0 69 25 124.5t72 90.5t113 44v37q0 22 -8.5 35.5t-21 21.5t-32.5 16q-24 10 -40.5 23t-27.5 39t-11 70h132q2 -21 11.5 -35.5t22 -23.5t33.5 -20q27 -14 42.5 -25t26.5 -32t11 -54v-61q53 -16 90.5 -52t57.5 -86.5t20 -111.5q0 -77 -31 -136.5t-89.5 -93
t-137.5 -33.5q-80 0 -138 33t-89 92.5t-31 137.5zM193 171q12 -36 38 -57t65 -21q38 0 64.5 21t39 56.5t12.5 78.5q0 44 -12.5 79t-39 56t-65.5 21q-38 0 -63.5 -21t-38.5 -56.5t-13 -78.5t13 -78z" />
    <glyph glyph-name="uni10D2.case" horiz-adv-x="569" 
d="M33 28q0 69 31 119t81 78.5t109 39.5q36 6 56.5 25.5t20.5 53.5q0 30 -15 50t-44 20q-30 0 -45 -21t-15 -57h-137q0 53 24.5 93.5t69 62.5t101.5 22q55 0 100.5 -20.5t71 -56t25.5 -77.5q0 -92 -80 -126v-4q45 -11 78.5 -40t52 -70.5t18.5 -91.5q0 -75 -33 -130
t-90 -83.5t-128 -28.5q-72 0 -129 28.5t-90 83.5t-33 130zM174 28q0 -39 12.5 -70t37.5 -49t61 -18q53 0 81.5 38t28.5 99q0 62 -28 99t-83 37q-53 0 -81.5 -37.5t-28.5 -98.5z" />
    <glyph glyph-name="uni10D3.case" horiz-adv-x="856" 
d="M62 397q24 57 69 87t108 30q56 0 98 -23t61 -71h4q27 47 73 70.5t108 23.5q69 0 122.5 -33.5t83 -92t29.5 -130.5q0 -73 -30 -129.5t-85.5 -88.5t-129.5 -32q-73 0 -128 32.5t-85 89.5t-30 128v51q0 44 -18.5 71t-52.5 27q-41 0 -60 -38t-19 -114q0 -70 27 -125.5
t73 -92.5t105 -52q70 -18 115.5 -40t71 -57t25.5 -88h-155q0 26 -18.5 47.5t-55.5 34t-91 12.5h-174v97h94v4q-53 19 -88.5 59t-53 92.5t-17.5 110.5q0 82 24 140zM466 259q0 -39 11.5 -72t36 -53t59.5 -20q36 0 60.5 20t36.5 52.5t12 72.5q0 41 -12 75t-36.5 54t-60.5 20
q-35 0 -59 -20.5t-36 -54.5t-12 -74z" />
    <glyph glyph-name="uni10D4.case" horiz-adv-x="569" 
d="M33 2q0 47 18 98h137q-13 -42 -13 -89q0 -31 10.5 -58t33 -43.5t57.5 -16.5q53 0 78 34.5t25 83.5v269q0 59 -21 93t-72 34q-47 0 -70 -30.5t-23 -75.5q0 -22 5 -42h-141q-6 26 -6 48q0 55 27.5 102.5t80.5 76t127 28.5q77 0 130 -31t79 -82.5t26 -111.5v-279
q0 -62 -29 -113t-84 -81t-132 -30q-78 0 -132.5 27.5t-82.5 76.5t-28 112z" />
    <glyph glyph-name="uni10D5.case" horiz-adv-x="565" 
d="M33 -4q0 24 4.5 45t13.5 44h137q-13 -42 -13 -80q0 -32 12.5 -57.5t37.5 -40.5t60 -15q34 0 57.5 15.5t35.5 41.5t12 56q0 53 -27 83.5t-78 30.5h-33v107h31q48 0 67.5 23.5t19.5 64.5q0 37 -20 65t-66 28q-48 0 -69.5 -27.5t-21.5 -71.5q0 -16 3 -34h-139q-5 18 -5 42
q0 55 28 100t81 71.5t125 26.5q68 0 119 -26t78.5 -69.5t27.5 -95.5q0 -58 -25.5 -95.5t-67.5 -52.5v-4q49 -17 81.5 -59t32.5 -112q0 -58 -31 -107t-87.5 -78t-130.5 -29q-76 0 -133 28.5t-87 76t-30 105.5z" />
    <glyph glyph-name="uni10D6.case" horiz-adv-x="673" 
d="M41 673q25 43 70.5 67t105.5 24q59 0 105.5 -23t73 -63.5t26.5 -90.5q0 -20 -7 -44t-19 -39v-4q70 -2 124.5 -34t84.5 -88t30 -129q0 -78 -33 -137.5t-92.5 -92.5t-136.5 -33t-136.5 33t-92.5 92.5t-33 137.5q0 40 12.5 77t39.5 66v5q-38 5 -72 27t-55 60t-21 89
q0 56 26 100zM268 173q13 -36 39.5 -58t65.5 -22q38 0 65 21.5t40.5 57t13.5 77.5q0 43 -13.5 78t-40.5 56t-66 21q-37 0 -63.5 -21t-40 -56.5t-13.5 -77.5q0 -41 13 -76zM141 570q0 -26 10 -47t27.5 -33t40.5 -12q35 0 56 25.5t21 66.5q0 27 -9.5 48.5t-27 34.5t-40.5 13
t-40.5 -12.5t-27.5 -34.5t-10 -49z" />
    <glyph glyph-name="uni10D7.case" horiz-adv-x="863" 
d="M38 250q0 74 28 134t83 95t132 35q62 0 106.5 -20.5t76.5 -73.5h4q25 52 63 72.5t93 20.5q63 0 108 -30.5t69 -88t24 -137.5q0 -82 -17.5 -143t-53.5 -114h-144q36 60 54.5 122t18.5 134q0 77 -18 113.5t-57 36.5q-36 0 -54 -25.5t-18 -73.5v-57q0 -76 -27.5 -136
t-83.5 -94t-138 -34q-83 0 -139 34.5t-83 94t-27 135.5zM207 137q26 -44 80 -44t81.5 43.5t27.5 113.5q0 71 -27 114t-83 43q-54 0 -80 -43.5t-26 -113.5t27 -113z" />
    <glyph glyph-name="uni10D8.case" horiz-adv-x="569" 
d="M38 248q0 77 28.5 137t84 94.5t133.5 34.5t134 -34.5t84.5 -94.5t28.5 -137q0 -78 -14.5 -134t-44.5 -114h-139q28 61 41.5 115.5t13.5 127.5t-24 118.5t-80 45.5q-55 0 -79 -45.5t-24 -118.5t13.5 -127.5t41.5 -115.5h-139q-30 57 -44.5 113t-14.5 135z" />
    <glyph glyph-name="uni10D9.case" horiz-adv-x="561" 
d="M33 -4q0 24 4 44.5t13 44.5h135q-11 -32 -11 -78q0 -30 12.5 -56.5t36.5 -43t58 -16.5t56.5 17t33.5 45t11 62q0 55 -26.5 89.5t-74.5 34.5h-43v107h43q38 0 58 21.5t20 54.5q0 18 -8.5 35t-24.5 29.5t-39 15.5v107q68 -2 115.5 -25t71.5 -61t24 -87q0 -53 -24.5 -87.5
t-65.5 -50.5v-4q33 -10 59.5 -34.5t42 -62.5t15.5 -87q0 -63 -30 -114t-85.5 -80.5t-130.5 -29.5q-76 0 -132 28t-85 76t-29 106z" />
    <glyph glyph-name="uni10DA.case" horiz-adv-x="1023" 
d="M64 397q23 57 67.5 87t107.5 30q51 0 87 -22.5t54 -69.5h4q14 46 47.5 69t78.5 23q51 0 81.5 -22t44.5 -70h4q19 46 56.5 69t83.5 23q99 0 151 -66t52 -188q0 -62 -10.5 -114.5t-31.5 -100.5h-144q22 46 32.5 97t10.5 112q0 79 -18.5 116t-55.5 37q-29 0 -44.5 -26
t-15.5 -72v-176h-133v175q0 49 -13.5 74t-47.5 25t-48 -25.5t-14 -72.5v-176h-134v174q0 49 -15 74.5t-45 25.5q-39 0 -56.5 -37.5t-17.5 -114.5q0 -73 26 -125.5t70.5 -83t102.5 -40.5l61 -8q14 -2 57 -7.5t65 -11.5q89 -24 133.5 -66.5t48.5 -112.5h-155q-8 47 -55.5 70.5
t-131.5 23.5h-290v99h85l1 4q-78 33 -119 103t-41 157q0 82 24 140z" />
    <glyph glyph-name="uni10DB.case" horiz-adv-x="602" 
d="M38 250q0 79 26.5 137t75 88.5t112.5 30.5q50 0 91.5 -19.5t64.5 -53.5h2v100q0 59 -27.5 92t-78.5 33q-30 0 -54 -12t-37.5 -32t-13.5 -44h-139q0 52 27.5 96t82.5 71t134 27q81 0 136.5 -28.5t83.5 -79t28 -114.5v-295q0 -77 -29.5 -136t-87.5 -92t-142 -33
q-83 0 -140.5 33.5t-86 93t-28.5 137.5zM210 134q29 -41 83 -41q37 0 64.5 19t42.5 53t15 79q0 76 -31.5 116t-88.5 40q-56 0 -85.5 -41t-29.5 -115q0 -69 30 -110z" />
    <glyph glyph-name="uni10DC.case" horiz-adv-x="602" 
d="M50 247v290q0 74 26 121t80.5 69.5t143.5 22.5h204v-109h-217q-51 0 -73 -21.5t-22 -71.5v-109h2q22 34 64 53.5t92 19.5q63 0 111.5 -32.5t75.5 -92.5t27 -139q0 -78 -28.5 -137t-86 -92t-141.5 -33q-83 0 -141 33t-87.5 91.5t-29.5 136.5zM187 245q0 -45 14.5 -79.5
t42 -53.5t64.5 -19q36 0 61.5 19t39 53.5t13.5 79.5q0 74 -30 117.5t-85 43.5q-57 0 -88.5 -42.5t-31.5 -118.5z" />
    <glyph glyph-name="uni10DD.case" horiz-adv-x="767" 
d="M61 398q23 57 67 86.5t107 29.5q55 0 90.5 -22t53.5 -70h4q18 47 56.5 69.5t91.5 22.5q63 0 107.5 -31t67.5 -88.5t23 -134.5q0 -84 -17.5 -145.5t-53.5 -114.5h-145q37 59 55.5 121t18.5 133q0 79 -20 116t-60 37q-30 0 -44.5 -27t-14.5 -75v-172h-132v172
q0 102 -57 102q-39 0 -59 -37t-20 -115q0 -136 73 -255h-144q-35 51 -53 113.5t-18 147.5q0 80 23 137z" />
    <glyph glyph-name="uni10DE.case" horiz-adv-x="573" 
d="M40 235q3 19 10 41h136q-9 -37 -9 -70q0 -31 13 -56.5t38 -41t60 -15.5q34 0 57.5 17t35 44.5t11.5 61.5q0 58 -26.5 92t-75.5 34h-41v108h47q34 0 54.5 15.5t20.5 44.5q0 31 -23 50t-63 32q-38 13 -64 29t-43 47.5t-17 81.5h139q1 -21 13.5 -36.5t31 -26.5t47.5 -24
q36 -15 62 -32t43 -44t17 -65q0 -46 -22.5 -75.5t-70.5 -47.5v-4q30 -11 56 -35.5t42 -63t16 -86.5q0 -64 -30.5 -115t-87.5 -80t-131 -29q-77 0 -133.5 27.5t-86.5 75.5t-30 107q0 20 4 39z" />
    <glyph glyph-name="uni10DF.case" horiz-adv-x="588" 
d="M38 145v104h69q27 0 45.5 15.5t18.5 41.5q0 27 -18 43t-46 16v99l280 42h146v-474q0 -80 -30 -135t-85.5 -83t-132.5 -28t-131.5 26.5t-83 74.5t-28.5 112q0 13 2.5 28t6.5 26h136q-4 -17 -4 -45q0 -52 26 -84t78 -32q54 0 79 39t25 97v379l-157 -22v-5q28 -17 46 -44
t18 -53q0 -39 -22.5 -70.5t-61.5 -49.5t-85 -18h-91z" />
    <glyph glyph-name="uni10E0.case" horiz-adv-x="768" 
d="M114 583q75 90 212 118l91 19q16 4 27 12t15 18h144q-6 -59 -41 -91.5t-110 -48.5l-90 -18q-56 -11 -97.5 -26t-74 -43.5t-44.5 -74.5h3q22 33 52 48.5t64 15.5q44 0 71 -22.5t44 -66.5h4q16 41 56.5 65t90.5 24q63 0 107.5 -31.5t68 -88.5t23.5 -132q0 -84 -17.5 -145.5
t-53.5 -114.5h-145q37 59 55 121t18 136q0 78 -19.5 113t-59.5 35q-30 0 -44.5 -27t-14.5 -75v-170h-132v170q0 102 -57 102q-40 0 -59.5 -36t-19.5 -114q0 -136 73 -255h-144q-35 51 -53.5 127.5t-18.5 189.5q0 175 76 266z" />
    <glyph glyph-name="uni10E1.case" horiz-adv-x="583" 
d="M192 750v-520q0 -62 26.5 -99.5t78.5 -37.5t78.5 35.5t26.5 94.5q0 30 -9.5 54.5t-26.5 48.5q-5 7 -24.5 34t-29.5 61.5t-10 78.5h139q0 -64 49 -128q26 -35 40.5 -71.5t14.5 -87.5q0 -68 -31.5 -119.5t-88 -79.5t-129.5 -28q-77 0 -132 29t-84.5 84t-29.5 132v519h142z
" />
    <glyph glyph-name="uni10E2.case" horiz-adv-x="707" 
d="M38 148q0 95 31.5 171.5t88.5 125t132 63.5h9q-5 20 -7 45.5t-2 59.5h127q0 -34 -2 -60t-7 -46h9q74 -14 131.5 -62.5t89 -125t31.5 -171.5q0 -108 -40.5 -190t-112.5 -127t-163 -45q-92 0 -163.5 45t-111.5 127.5t-40 189.5zM200 15q19 -58 57.5 -89.5t95.5 -31.5
q86 0 129.5 68.5t43.5 185.5q0 98 -27 163.5t-82 86.5l-12 7q6 -27 10.5 -66.5t4.5 -69.5v-136h-133v137q0 31 4.5 69.5t10.5 65.5l-12 -6q-56 -22 -82.5 -87.5t-26.5 -163.5q0 -76 19 -133z" />
    <glyph glyph-name="uni10E3.case" horiz-adv-x="594" 
d="M20 394v114h43q55 0 86.5 -17t51.5 -59h4q38 82 149 82q103 0 146.5 -57.5t43.5 -163.5v-269q0 -70 -29.5 -124t-86 -84t-133.5 -30t-134.5 29t-88 77t-30.5 104q0 48 18 97h137q-14 -44 -14 -86q0 -31 13 -57.5t38 -42t60 -15.5q33 0 57.5 17t37.5 46.5t13 66.5v298
q0 90 -67 90q-31 0 -47 -20.5t-16 -52.5v-112h-134v106q0 63 -75 63h-43z" />
    <glyph glyph-name="uni10E4.case" horiz-adv-x="822" 
d="M65 400q26 54 76 84t118 30q59 0 102.5 -22.5t67.5 -66.5h4q21 44 61.5 66.5t94.5 22.5q59 0 103.5 -27t68 -74t23.5 -104q0 -62 -28 -105.5t-74 -60.5v-4q48 -22 68.5 -59t20.5 -93q0 -62 -33 -107t-98 -69.5t-158 -24.5q-122 0 -194.5 47t-76.5 140h142
q13 -46 46.5 -64t89.5 -18q61 0 100.5 26.5t39.5 78.5q0 94 -74 94h-16v109h29q41 1 58.5 27t17.5 74q0 47 -20 78.5t-57 31.5q-35 0 -54 -24t-19 -65v-44q0 -70 -27 -122.5t-78 -81t-121 -28.5t-122 29t-80 81.5t-28 121.5t27 123zM168 278q0 -58 25 -95t75 -37t75 37
t25 95q0 59 -25 97t-75 38q-51 0 -75.5 -37t-24.5 -98z" />
    <glyph glyph-name="uni10E5.case" horiz-adv-x="580" 
d="M38 3q0 25 4.5 48t13.5 49h136q-7 -22 -10 -42t-3 -43q0 -56 25 -89t79 -33q55 0 80 36.5t25 94.5v237q0 64 -25.5 104t-74.5 40q-47 0 -68.5 -29t-21.5 -74q0 -18 5 -43h-140q-6 26 -6 56q0 55 20.5 100t64 72t110.5 27q46 0 81 -21t53 -53h2v310h142v-720
q0 -121 -64 -182.5t-183 -61.5q-79 0 -134 27t-83 76t-28 114z" />
    <glyph glyph-name="uni10E6.case" horiz-adv-x="768" 
d="M61 397q23 57 67 87t107 30q55 0 90.5 -22t53.5 -70h4q20 46 58 69t89 23q98 0 149 -65.5t51 -188.5q0 -62 -10.5 -114.5t-31.5 -100.5h-145q23 47 33.5 98t10.5 111q0 78 -19.5 115.5t-59.5 37.5q-30 0 -44.5 -28t-14.5 -76v-170h-133v170q0 50 -14.5 77t-43.5 27
q-40 0 -59 -38t-19 -114q0 -73 25 -128.5t70 -89.5t105 -47q104 -23 158.5 -67.5t54.5 -122.5h-154q0 26 -18.5 47.5t-56 34t-91.5 12.5h-169v97h94v4q-51 22 -87 61t-54.5 90.5t-18.5 110.5q0 82 23 140z" />
    <glyph glyph-name="uni10E7.case" horiz-adv-x="579" 
d="M52 425q12 46 29 75h134q-14 -33 -23.5 -75t-9.5 -81q0 -71 24.5 -105t79.5 -34q56 0 81 39t25 118v138h137v-480q0 -119 -64 -176.5t-182 -57.5q-72 0 -126 22t-84 65.5t-30 105.5q0 22 8 51h135q-4 -17 -4 -42q0 -43 26.5 -69t75.5 -26q54 0 78.5 34t24.5 92v149h-2
q-23 -35 -58 -52t-85 -17q-63 0 -108.5 27.5t-69.5 78.5t-24 118q0 55 12 102z" />
    <glyph glyph-name="uni10E8.case" horiz-adv-x="610" 
d="M38 650v105q40 5 73 5q90 0 120 -77h3q18 40 56 60.5t80 20.5q102 0 146 -52t44 -142v-326q0 -77 -29 -135.5t-87 -90.5t-142 -32q-83 0 -140.5 32.5t-86 91.5t-28.5 137q0 79 26.5 136t75 87t112.5 30q49 0 90 -18.5t66 -52.5h2v143q0 88 -67 88q-30 0 -46 -20t-16 -47
v-31h-130v31q0 31 -19 45.5t-52 14.5q-24 0 -51 -3zM219 133q30 -40 84 -40q37 0 64.5 18t42 51.5t14.5 78.5q0 75 -31.5 114t-88.5 39q-56 0 -85.5 -39.5t-29.5 -113.5q0 -68 30 -108z" />
    <glyph glyph-name="uni10E9.case" horiz-adv-x="589" 
d="M50 557q0 67 26 113.5t74.5 70t113.5 23.5q102 0 158 -53.5t56 -153.5h-138q0 49 -18 74.5t-57 25.5q-34 0 -53 -25.5t-19 -75.5v-125h2q23 35 60 53.5t86 18.5q63 0 110.5 -31.5t73.5 -89.5t26 -136q0 -77 -16 -137t-43 -109h-137q28 61 41.5 114.5t13.5 126.5
q0 74 -28.5 115t-82.5 41q-55 0 -83 -40t-28 -111v-246h-138v557z" />
    <glyph glyph-name="uni10EA.case" horiz-adv-x="637" 
d="M59 354q21 90 51 146h134q-26 -57 -44.5 -146t-18.5 -172q0 -150 42.5 -219.5t118.5 -69.5q55 0 86.5 32.5t31.5 92.5q0 56 -29 87t-82 31h-40v107h54q34 0 54.5 17.5t20.5 46.5q0 19 -7.5 33t-19 24t-30.5 23q-28 20 -44.5 45t-16.5 68h139q4 -21 16.5 -35.5t33.5 -30.5
q22 -16 36.5 -31t24 -37.5t9.5 -54.5q0 -40 -22 -70.5t-68 -48.5v-4q29 -10 54.5 -33t42 -60.5t16.5 -87.5q0 -67 -34.5 -117.5t-95.5 -77t-138 -26.5q-139 0 -217.5 94t-78.5 297q0 87 21 177z" />
    <glyph glyph-name="uni10EB.case" horiz-adv-x="600" 
d="M38 253q0 80 26.5 139t75 90.5t112.5 31.5q50 0 91 -19.5t63 -53.5h2v309h142v-500q0 -78 -29 -137.5t-87 -93t-141 -33.5t-140.5 34t-86 94.5t-28.5 138.5zM193 167q13 -35 38.5 -54.5t61.5 -19.5t63.5 19.5t42 54.5t14.5 80q0 77 -31 119.5t-87 42.5q-36 0 -62 -20
t-39.5 -56.5t-13.5 -85.5q0 -45 13 -80z" />
    <glyph glyph-name="uni10EC.case" horiz-adv-x="610" 
d="M50 559q0 205 190 205q42 0 80 -20.5t56 -60.5h3q30 77 120 77q33 0 73 -5v-105q-27 3 -51 3q-33 0 -52 -14.5t-19 -45.5v-31h-130v31q0 27 -16 47t-46 20q-67 0 -67 -88v-143h2q25 34 66 52.5t90 18.5q64 0 112.5 -30t75 -87t26.5 -136q0 -78 -28.5 -137t-86 -91.5
t-140.5 -32.5q-84 0 -142 32t-87 90.5t-29 135.5v315zM201 163q14 -34 41.5 -52t64.5 -18q54 0 84 40t30 108q0 74 -29.5 113.5t-85.5 39.5q-57 0 -88.5 -39t-31.5 -114q0 -45 15 -78z" />
    <glyph glyph-name="uni10ED.case" horiz-adv-x="637" 
d="M43 54h137q-6 -22 -6 -49q0 -49 25 -81t76 -32q54 0 78.5 39t24.5 103v169h-2q-17 -30 -55.5 -48t-88.5 -18q-53 0 -94.5 19.5t-65.5 59t-24 96.5q0 59 29 101.5t79 64.5t111 22h111v250h143v-250h101v-108h-102v-361q0 -77 -28.5 -132t-83.5 -84t-133 -29t-132.5 27
t-82 74.5t-27.5 107.5q0 34 10 59zM181 316q0 -37 26.5 -56t71.5 -19q28 0 51 10.5t36.5 29t13.5 42.5v71h-100q-45 0 -72 -21t-27 -57z" />
    <glyph glyph-name="uni10EE.case" horiz-adv-x="601" 
d="M50 750h142v-309h2q23 35 64 54t91 19q64 0 112.5 -31.5t75 -90.5t26.5 -139q0 -78 -28.5 -138.5t-86 -94.5t-141.5 -34q-83 0 -141 34t-87 94t-29 140v496zM187 247q0 -45 15 -80t42 -54.5t63 -19.5t62 19.5t39 54.5t13 80q0 49 -13.5 85.5t-39.5 56.5t-62 20
q-56 0 -87.5 -42.5t-31.5 -119.5z" />
    <glyph glyph-name="uni10EF.case" horiz-adv-x="559" 
d="M34 317v101h171v96h133v-96h173v-101h-173v-79q58 -11 100 -42t63.5 -77t21.5 -99q0 -59 -29.5 -113t-84.5 -87.5t-128 -33.5q-76 0 -131.5 27.5t-84.5 75.5t-29 108q0 16 3.5 32.5t9.5 28.5h134q-3 -11 -4.5 -25.5t-1.5 -26.5q0 -29 11.5 -55t35 -42t57.5 -16
q37 0 59.5 18.5t32 46t9.5 58.5q0 52 -25.5 89.5t-85.5 37.5h-66v174h-171z" />
    <glyph glyph-name="uni10F0.case" horiz-adv-x="564" 
d="M36 179q0 18 7 41h132q-4 -15 -4 -38q0 -26 13.5 -46.5t38.5 -31.5t57 -11q50 0 77 23.5t27 62.5q0 36 -26 59t-73 23h-48v99h68q66 0 66 42q0 21 -18 32.5t-48 11.5h-68v100h68q28 0 41.5 10.5t13.5 26.5q0 21 -21 32t-61 19q-53 11 -87 37t-34 79h139q6 -17 28 -29
t60 -21q48 -12 81 -38.5t33 -65.5q0 -38 -20.5 -61.5t-67.5 -35.5v-4q99 -17 99 -93q0 -38 -22.5 -59t-67.5 -30v-4q107 -34 107 -145q0 -56 -31 -96t-87 -61t-131 -21q-77 0 -131.5 23.5t-82 66.5t-27.5 103z" />
    <glyph glyph-name="uni10F1.case" horiz-adv-x="637" 
d="M49 527q11 69 28.5 127.5t36.5 95.5h133q-17 -37 -32.5 -95.5t-25.5 -126.5t-10 -130q0 -155 38.5 -229t120.5 -74q52 0 84.5 21t32.5 64q0 36 -25 58.5t-71 22.5h-46v99h66q33 0 49.5 10t16.5 35q0 24 -17.5 35.5t-48.5 11.5h-66v100h66q56 0 56 31q0 18 -11 29.5
t-35 26.5q-29 18 -46.5 43t-17.5 68h139q6 -21 17.5 -35t30.5 -27q20 -14 31.5 -25.5t20 -29.5t8.5 -44q0 -28 -21 -50.5t-67 -33.5v-4q43 -8 71 -31t28 -65q0 -73 -90 -92v-4q27 -9 51.5 -28t39.5 -47t15 -62q0 -57 -34.5 -99t-94.5 -64.5t-134 -22.5q-144 0 -221 101
t-77 306q0 65 11 134z" />
    <glyph glyph-name="uni10F2.case" horiz-adv-x="562" 
d="M64 404q28 49 84 79.5t133 30.5t133 -30.5t84.5 -80t28.5 -105.5q0 -43 -18.5 -81t-50 -64.5t-69.5 -35.5v-3q44 -6 75 -8.5t60 -2.5v-106q-136 0 -243 45q-107 -45 -243 -45v106q29 0 60 2.5t75 8.5v3q-38 9 -69.5 35.5t-50 64.5t-18.5 81q0 56 29 106zM204 199
q28 -44 77 -65q49 21 77 64.5t28 93.5q0 28 -11.5 54t-35 43t-58.5 17t-58.5 -17t-35 -43t-11.5 -54q0 -50 28 -93z" />
    <glyph glyph-name="uni10F3.case" horiz-adv-x="568" 
d="M35 -4q0 24 4 44.5t13 44.5h137q-13 -38 -13 -80q0 -50 29 -80t82 -30q33 0 56.5 16.5t35.5 44.5t12 61q0 34 -12.5 62.5t-35 45.5t-51.5 17h-53v109h50q71 0 71 84v58h-268v107h408v-156q0 -58 -24 -93.5t-66 -51.5v-4q54 -21 88.5 -66.5t34.5 -116.5q0 -63 -30 -114.5
t-86 -81.5t-130 -30q-77 0 -134 26.5t-87.5 74t-30.5 109.5z" />
    <glyph glyph-name="uni10F4.case" horiz-adv-x="569" 
d="M51 85h136q-11 -38 -11 -80q0 -50 29 -80t82 -30q51 0 77.5 33t26.5 89q0 35 -12 63.5t-35 45t-55 16.5h-40v109h43q35 0 55.5 17t20.5 50v75h-97q-57 0 -104 21t-76 69.5t-29 125.5h137q0 -61 32 -85t92 -24h186v-173q0 -49 -21.5 -79.5t-67.5 -48.5v-4q30 -11 56 -35
t42 -62t16 -86q0 -67 -30 -118t-86 -79.5t-131 -28.5q-77 0 -134 26.5t-87.5 74t-30.5 109.5q0 50 16 89z" />
    <glyph glyph-name="uni10F5.case" horiz-adv-x="627" 
d="M38 163q0 84 60 127t170 43h107v96h-105q-110 0 -166 40t-56 125q0 86 62.5 128t165.5 42q68 0 121 -20.5t83 -61.5t30 -102v-49h102v-102h-102v-96h102v-102h-102v-55q0 -61 -30.5 -103.5t-83.5 -64.5t-121 -22q-67 0 -120.5 19.5t-85 59.5t-31.5 98zM200 109
q28 -19 73 -19t73.5 23.5t28.5 65.5v52h-103q-100 0 -100 -68q0 -36 28 -54zM182 593q0 -34 22.5 -48t69.5 -14h101v46q0 40 -27.5 61.5t-72.5 21.5t-69 -16t-24 -51z" />
    <glyph glyph-name="uni10F6.case" horiz-adv-x="761" 
d="M38 256q0 82 34 138.5t95 85.5t141 32v68q0 60 16.5 97t52.5 54.5t96 17.5h64v-114h-32q-20 0 -31.5 -5t-17 -19t-5.5 -42v-57q83 -2 144 -33.5t93.5 -89t32.5 -134.5q0 -123 -69.5 -186.5t-201.5 -67.5v-39q0 -88 -39.5 -128t-128.5 -40h-59v113h32q27 0 40 11.5
t13 44.5v37q-131 5 -200.5 70t-69.5 186zM448 403v-295q65 0 97 33.5t32 113.5q0 74 -33.5 111t-95.5 37zM181 256q0 -78 32.5 -112t97.5 -35v293q-62 0 -96 -37t-34 -109z" />
    <glyph glyph-name="uni10F7.case" horiz-adv-x="579" 
d="M38 8q0 64 25 107.5t61.5 69.5t89.5 50q43 19 66.5 32t39.5 32t16 44q0 30 -15 49.5t-44 19.5q-30 0 -45 -21t-15 -57h-137q0 53 24.5 94t69 63.5t101.5 22.5q56 0 101 -20t70.5 -57t25.5 -85q0 -57 -23.5 -94t-55.5 -57.5t-89 -47.5q-40 -19 -66 -36.5t-42.5 -44.5
t-16.5 -65q0 -29 12.5 -54.5t38 -41.5t60.5 -16q53 0 81.5 34t28.5 89q0 26 -2 43.5t-9 36.5h138q6 -14 10 -35.5t4 -38.5q0 -75 -33 -129t-89.5 -81.5t-128.5 -27.5q-71 0 -128.5 27.5t-90.5 78t-33 116.5z" />
    <glyph glyph-name="uni10F8.case" horiz-adv-x="577" 
d="M50 500h137v-138q0 -79 25 -118t81 -39q55 0 79.5 34t24.5 105q0 39 -9.5 81t-23.5 75h134q17 -29 29 -75.5t12 -101.5q0 -67 -24 -118t-69.5 -78.5t-108.5 -27.5q-50 0 -85 17t-58 52h-2v-149q0 -58 24.5 -92t78.5 -34q49 0 75.5 26t26.5 69q0 25 -4 42h135q8 -29 8 -51
q0 -62 -30 -105.5t-84 -65.5t-126 -22q-118 0 -182 57.5t-64 176.5v480z" />
    <glyph glyph-name="uni10F9.case" horiz-adv-x="573" 
d="M68 402q33 55 90 83.5t128 28.5q72 0 129 -28.5t90 -83.5t33 -130q0 -69 -31 -119t-81 -78.5t-109 -39.5q-36 -6 -56.5 -25.5t-20.5 -53.5q0 -30 15 -50t44 -20q30 0 45 21t15 57h137q0 -53 -24.5 -93.5t-69 -62.5t-101.5 -22q-55 0 -100.5 20.5t-71 56t-25.5 77.5
q0 92 80 126v4q-45 11 -78.5 40t-52 70.5t-18.5 91.5q0 75 33 130zM204 173q28 -37 83 -37q53 0 81.5 37.5t28.5 98.5q0 39 -12.5 70t-37.5 49t-61 18q-53 0 -81.5 -38t-28.5 -99q0 -62 28 -99z" />
    <glyph glyph-name="uni10FA.case" horiz-adv-x="546" 
d="M66 418q28 45 81.5 70.5t127.5 25.5q118 0 177 -57t59 -159q0 -33 -10 -68h-133q7 32 7 59q0 54 -25 86t-75 32t-74.5 -29.5t-24.5 -77.5q0 -43 18 -70t45 -42t71 -31q40 -15 69 -33.5t48.5 -48.5t21.5 -75h-154q-7 24 -21 36.5t-40 17t-72 4.5h-88v94h84v4
q-57 17 -88.5 58t-31.5 100q0 58 28 104z" />
    <glyph glyph-name="uni10FD.case" horiz-adv-x="614" 
d="M190 240q2 -139 123 -139q61 0 86 25.5t25 69.5q0 27 -11.5 49t-42.5 42.5t-88 38.5q-116 36 -168.5 95.5t-52.5 133.5q0 66 30 113t84 71.5t125 24.5q81 0 137.5 -27.5t85.5 -78.5t29 -123h-147q-2 57 -26 85.5t-79 28.5q-44 0 -68 -24t-24 -63t33 -69t114 -56
q117 -37 169 -94.5t52 -138.5q0 -67 -30.5 -116t-90 -75.5t-146.5 -26.5q-132 0 -200.5 64.5t-70.5 189.5h152z" />
    <glyph glyph-name="uni10FE.case" horiz-adv-x="562" 
d="M35 202q0 43 18.5 81t50 64.5t69.5 35.5v3q-44 6 -75 8.5t-60 2.5v106q136 0 243 -45q107 45 243 45v-106q-29 0 -60 -2.5t-75 -8.5v-3q38 -9 69.5 -35.5t50 -64.5t18.5 -81q0 -56 -28.5 -105.5t-84.5 -80t-133 -30.5t-133 30.5t-84.5 80t-28.5 105.5zM188 154
q11 -26 34.5 -43t58.5 -17t58.5 17t35 43t11.5 54q0 50 -28 93.5t-77 64.5q-49 -21 -77 -64.5t-28 -93.5q0 -28 12 -54z" />
    <glyph glyph-name="uni10FF.case" horiz-adv-x="586" 
d="M35 250q0 77 31 137t89.5 93.5t137.5 33.5t137.5 -33.5t89.5 -93.5t31 -137t-31 -137t-89.5 -93.5t-137.5 -33.5q-80 0 -138 33.5t-89 93t-31 137.5zM176 250q0 -43 13 -78t39 -56t65 -21q38 0 64.5 21t39.5 56t13 78q0 68 -30 111.5t-88 43.5q-38 0 -64 -20.5t-39 -55.5
t-13 -79z" />
    <glyph glyph-name="grave.cap" 
d="M205 779h-99l-154 142h157z" />
    <glyph glyph-name="acute.cap" 
d="M154 779h-99l96 142h157z" />
    <glyph glyph-name="circumflex.cap" 
d="M65 921h130l110 -142h-115l-62 81l-64 -81h-110z" />
    <glyph glyph-name="caron.cap" 
d="M-46 921h115l62 -81l64 81h110l-111 -142h-130z" />
    <glyph glyph-name="caron.alt" 
d="M185 572h-98l31 142h148z" />
    <glyph glyph-name="tilde.cap" 
d="M-35 850q16 28 41.5 44.5t56.5 16.5q18 0 35.5 -4.5t44.5 -14.5q24 -9 38 -12.5t25 -3.5q18 0 28 8t15 27h64q-12 -59 -39.5 -86.5t-72.5 -27.5q-18 0 -36 4t-41 12q-27 10 -41.5 14t-28.5 4q-34 0 -45 -42h-63q4 33 19 61z" />
    <glyph glyph-name="dieresis.cap" 
d="M165 905h135v-117h-135v117zM-41 905h135v-117h-135v117z" />
    <glyph glyph-name="macron.cap" 
d="M306 809h-353v75h353v-75z" />
    <glyph glyph-name="breve.cap" 
d="M26 921q5 -33 33.5 -50t65.5 -17q94 0 110 67h63q-9 -70 -53.5 -106t-124.5 -36q-72 0 -112.5 36.5t-46.5 105.5h65z" />
    <glyph glyph-name="ring.cap" 
d="M29 917q15 26 42 41t59 15q33 0 60 -15.5t42 -41.5t15 -57t-15.5 -57t-42.5 -41.5t-59 -15.5t-59 15t-42.5 41t-15.5 58q0 31 16 58zM86 814q17 -18 44 -18q28 0 44.5 17.5t16.5 45.5q0 26 -16 44.5t-46 18.5q-26 0 -43 -17t-17 -46q0 -28 17 -45z" />
    <glyph glyph-name="hungarumlaut.cap" 
d="M242 921h157l-149 -142h-99zM35 921h157l-149 -142h-99z" />
    <glyph glyph-name="dotaccent.cap" 
d="M197 788h-135v117h135v-117z" />
    <glyph glyph-name="uni10FB.case" horiz-adv-x="582" 
d="M74 570h156v-161h-156v161zM74 217h156v-160h-156v160zM524 394v-160h-155v160h155z" />
    <glyph glyph-name=".ttfautohint" horiz-adv-x="582" 
 />
    </font>
</defs>
</svg>
